<svg width="24" height="24" viewBox="0 0 24 24" fill="none" xmlns="http://www.w3.org/2000/svg">
<g clip-path="url(#clip0_301_489)">
<path d="M19.761 13.006L21.007 14.252L22.253 13.006" stroke="#0C67BD" stroke-linecap="round" stroke-linejoin="round"/>
<path d="M4.23895 10.994L2.99295 9.748L1.74695 10.994" stroke="#0C67BD" stroke-linecap="round" stroke-linejoin="round"/>
<path d="M7.58691 10.729C7.58691 9.918 8.24491 9.26 9.05591 9.26C9.86691 9.26 10.5249 9.918 10.5249 10.729C10.5249 12.565 7.58791 12.565 7.58791 14.739H10.5249" stroke="#0C67BD" stroke-linecap="round" stroke-linejoin="round"/>
<path d="M15.894 12.03L13.382 12.003C13.24 12.001 13.125 11.886 13.125 11.743V9.261" stroke="#0C67BD" stroke-linecap="round" stroke-linejoin="round"/>
<path d="M15.8899 9.32V14.74" stroke="#0C67BD" stroke-linecap="round" stroke-linejoin="round"/>
<path d="M19.0229 17.628C17.3719 19.682 14.8429 21 12.0019 21H11.9999H11.9979C7.02392 21 2.99292 16.97 2.99292 11.998C2.99292 11.304 3.07892 10.631 3.22792 9.982" stroke="#0C67BD" stroke-linecap="round" stroke-linejoin="round"/>
<path d="M4.98096 6.372C6.63096 4.318 9.16096 3 12.002 3C16.976 3 21.007 7.03 21.007 12.002C21.007 12.696 20.921 13.369 20.772 14.018" stroke="#0C67BD" stroke-linecap="round" stroke-linejoin="round"/>
</g>
<defs>
<clipPath id="clip0_301_489">
<rect width="24" height="24" fill="white"/>
</clipPath>
</defs>
</svg>
