<svg width="54" height="54" viewBox="0 0 54 54" fill="none" xmlns="http://www.w3.org/2000/svg">
<g clip-path="url(#clip0_304_90)">
<path d="M46.3095 21.0443C46.9237 22.9702 47.2409 24.9785 47.25 27C47.25 31.0051 46.0624 34.9202 43.8373 38.2503C41.6122 41.5804 38.4496 44.1759 34.7493 45.7086C31.0491 47.2412 26.9775 47.6423 23.0494 46.8609C19.1213 46.0796 15.5131 44.1509 12.6811 41.3189C9.84908 38.4869 7.92046 34.8787 7.13911 30.9506C6.35776 27.0225 6.75877 22.9509 8.29145 19.2507C9.82412 15.5505 12.4196 12.3878 15.7497 10.1627C19.0798 7.93764 22.9949 6.75 27 6.75C29.0215 6.75914 31.0298 7.07628 32.9558 7.6905" stroke="#2F92EF" stroke-width="2" stroke-linecap="round" stroke-linejoin="round"/>
<path d="M47.25 9.61646L42.777 14.0895L39.9082 11.2207" stroke="#2F92EF" stroke-width="2" stroke-linecap="round" stroke-linejoin="round"/>
<path d="M17.1742 24.1335C17.1742 23.2539 17.5236 22.4104 18.1456 21.7884C18.7675 21.1664 19.6111 20.817 20.4907 20.817C21.3703 20.817 22.2139 21.1664 22.8358 21.7884C23.4578 22.4104 23.8072 23.2539 23.8072 24.1335C23.8072 28.278 17.1742 28.278 17.1742 33.1875H23.8072" stroke="#2F92EF" stroke-width="2" stroke-linecap="round" stroke-linejoin="round"/>
<path d="M34.9471 33.1875V21.9645C34.9482 21.7155 34.8681 21.473 34.719 21.2736C34.5699 21.0743 34.3598 20.929 34.1207 20.8598C33.8815 20.7906 33.6263 20.8013 33.3938 20.8902C33.1612 20.9791 32.964 21.1414 32.8321 21.3525C31.4213 23.634 29.8823 26.2238 28.5526 28.512C28.4438 28.7001 28.3867 28.9136 28.387 29.1309C28.3872 29.3482 28.4448 29.5615 28.5539 29.7494C28.663 29.9373 28.8198 30.093 29.0084 30.2009C29.197 30.3088 29.4108 30.365 29.6281 30.3638H36.8258" stroke="#2F92EF" stroke-width="2" stroke-linecap="round" stroke-linejoin="round"/>
</g>
<defs>
<clipPath id="clip0_304_90">
<rect width="54" height="54" fill="white"/>
</clipPath>
</defs>
</svg>
