<svg width="54" height="54" viewBox="0 0 54 54" fill="none" xmlns="http://www.w3.org/2000/svg">
<path d="M21.3345 44.4172C21.9983 44.3295 22.6688 44.5095 23.1975 44.9167L25.6343 46.7865C26.4398 47.4052 27.5603 47.4052 28.3635 46.7865L30.8925 44.8447C31.365 44.4825 31.9613 44.3227 32.5508 44.4015L35.7143 44.8177C36.72 44.9505 37.6898 44.3902 38.079 43.452L39.2963 40.509C39.5235 39.9577 39.96 39.5212 40.5113 39.294L43.4543 38.0767C44.3925 37.6897 44.9528 36.7177 44.82 35.712L44.4195 32.6632C44.3318 31.9995 44.5118 31.329 44.919 30.8002L46.7888 28.3635C47.4075 27.558 47.4075 26.4375 46.7888 25.6342L44.847 23.1052C44.4848 22.6327 44.325 22.0365 44.4038 21.447L44.82 18.2835C44.9528 17.2777 44.3925 16.308 43.4543 15.9187L40.5113 14.7015C39.96 14.4742 39.5235 14.0377 39.2963 13.4865L38.079 10.5435C37.692 9.6052 36.72 9.04495 35.7143 9.1777L32.5508 9.59395C31.9613 9.67495 31.365 9.5152 30.8948 9.1552L28.3658 7.21345C27.5603 6.5947 26.4398 6.5947 25.6365 7.21345L23.1075 9.1552C22.635 9.5152 22.0388 9.67495 21.4493 9.59845L18.2858 9.1822C17.28 9.04945 16.3103 9.6097 15.921 10.548L14.706 13.491C14.4765 14.04 14.04 14.4765 13.491 14.706L10.548 15.921C9.60976 16.3102 9.04951 17.28 9.18226 18.2857L9.59851 21.4492C9.67501 22.0387 9.51526 22.635 9.15526 23.1052L7.21351 25.6342C6.59476 26.4397 6.59476 27.5602 7.21351 28.3635L9.15526 30.8925C9.51751 31.365 9.67726 31.9612 9.59851 32.5507L9.18226 35.7142C9.04951 36.72 9.60976 37.6897 10.548 38.079L13.491 39.2962C14.0423 39.5235 14.4788 39.9599 14.706 40.5112L15.9233 43.4542C16.3103 44.3925 17.2823 44.9527 18.288 44.82L21.3345 44.4172Z" stroke="#2F92EF" stroke-width="2" stroke-linecap="round" stroke-linejoin="round"/>
<path d="M33.2978 23.8522L25.4205 31.7294L20.6978 27.0044" stroke="#2F92EF" stroke-width="2" stroke-linecap="round" stroke-linejoin="round"/>
</svg>
