<svg width="60" height="60" viewBox="0 0 60 60" fill="none" xmlns="http://www.w3.org/2000/svg">
<rect x="0.499969" y="0.5" width="59" height="59" rx="29.5" stroke="white" stroke-opacity="0.1"/>
<path d="M40 30.0607C40 24.504 35.5233 20 30 20C24.4766 20 20 24.504 20 30.0607C20 35.0833 23.656 39.2453 28.4373 40V32.9693H25.8986V30.06H28.4373V27.844C28.4373 25.3227 29.93 23.9293 32.2146 23.9293C33.308 23.9293 34.4533 24.126 34.4533 24.126V26.602H33.1913C31.9493 26.602 31.5626 27.378 31.5626 28.174V30.0607H34.336L33.8926 32.9687H31.5626V40C36.344 39.2453 40 35.0833 40 30.0607Z" fill="white"/>
</svg>
