<svg width="60" height="60" viewBox="0 0 60 60" fill="none" xmlns="http://www.w3.org/2000/svg">
<rect x="0.5" y="0.5" width="59" height="59" rx="29.5" stroke="white" stroke-opacity="0.1"/>
<path fill-rule="evenodd" clip-rule="evenodd" d="M26.3655 26.3655C27.3294 25.4015 28.6368 24.86 30 24.86C31.3632 24.86 32.6706 25.4015 33.6345 26.3655C34.5985 27.3294 35.14 28.6368 35.14 30C35.14 31.3632 34.5985 32.6706 33.6345 33.6345C32.6706 34.5985 31.3632 35.14 30 35.14C28.6368 35.14 27.3294 34.5985 26.3655 33.6345C25.4015 32.6706 24.86 31.3632 24.86 30C24.86 28.6368 25.4015 27.3294 26.3655 26.3655ZM28.7231 33.0827C29.1279 33.2504 29.5618 33.3367 30 33.3367C30.8849 33.3367 31.7336 32.9851 32.3594 32.3594C32.9851 31.7336 33.3367 30.8849 33.3367 30C33.3367 29.1151 32.9851 28.2664 32.3594 27.6406C31.7336 27.0149 30.8849 26.6633 30 26.6633C29.5618 26.6633 29.1279 26.7496 28.7231 26.9173C28.3183 27.085 27.9505 27.3308 27.6406 27.6406C27.3308 27.9505 27.085 28.3183 26.9173 28.7231C26.7496 29.1279 26.6633 29.5618 26.6633 30C26.6633 30.4382 26.7496 30.8721 26.9173 31.2769C27.085 31.6817 27.3308 32.0495 27.6406 32.3594C27.9505 32.6692 28.3183 32.915 28.7231 33.0827Z" fill="white"/>
<path d="M36.2795 25.6258C36.5073 25.3979 36.6353 25.0889 36.6353 24.7667C36.6353 24.4444 36.5073 24.1354 36.2795 23.9075C36.0516 23.6797 35.7426 23.5517 35.4203 23.5517C35.0981 23.5517 34.7891 23.6797 34.5612 23.9075C34.3333 24.1354 34.2053 24.4444 34.2053 24.7667C34.2053 25.0889 34.3333 25.3979 34.5612 25.6258C34.7891 25.8537 35.0981 25.9817 35.4203 25.9817C35.7426 25.9817 36.0516 25.8537 36.2795 25.6258Z" fill="white"/>
<path fill-rule="evenodd" clip-rule="evenodd" d="M25.8773 20.06C26.944 20.0113 27.284 20 30 20C32.7167 20 33.056 20.012 34.122 20.06C35.1867 20.1087 35.9147 20.2787 36.5507 20.5247C37.2177 20.7759 37.8219 21.1695 38.3213 21.678C38.83 22.1775 39.2236 22.782 39.4747 23.4493C39.722 24.0853 39.8913 24.8127 39.94 25.8773C39.9887 26.944 40 27.284 40 30C40 32.716 39.9887 33.056 39.94 34.1227C39.8913 35.1873 39.722 35.9147 39.4753 36.5507C39.2241 37.2177 38.8305 37.8219 38.322 38.3213C37.822 38.8307 37.2173 39.224 36.5507 39.4747C35.9147 39.722 35.1873 39.8913 34.1227 39.94C33.056 39.9887 32.716 40 30 40C27.284 40 26.944 39.9887 25.8773 39.94C24.8127 39.8913 24.0853 39.722 23.4493 39.4753C22.7823 39.2241 22.1781 38.8305 21.6787 38.322C21.1693 37.822 20.776 37.2173 20.5253 36.5507C20.278 35.9147 20.1087 35.1873 20.06 34.1227C20.0113 33.056 20 32.7167 20 30C20 27.2833 20.012 26.944 20.06 25.878C20.1087 24.8133 20.2787 24.0853 20.5247 23.4493C20.7759 22.7823 21.1695 22.1781 21.678 21.6787C22.178 21.1693 22.7827 20.776 23.4493 20.5253C24.0853 20.278 24.8127 20.1087 25.8773 20.06ZM34.0413 21.86C32.9867 21.812 32.67 21.802 30 21.802C27.33 21.802 27.0133 21.812 25.9587 21.86C24.984 21.9047 24.4547 22.0673 24.102 22.2047C23.6676 22.3647 23.2746 22.62 22.952 22.952C22.6027 23.302 22.3853 23.6353 22.2047 24.102C22.0667 24.4547 21.9047 24.984 21.86 25.9587C21.812 27.0133 21.802 27.33 21.802 30C21.802 32.67 21.812 32.9867 21.86 34.0413C21.9047 35.016 22.0673 35.5453 22.2047 35.898C22.3648 36.3323 22.6201 36.7253 22.952 37.048C23.2747 37.3799 23.6676 37.6353 24.102 37.7953C24.4547 37.9333 24.984 38.0953 25.9587 38.14C27.0133 38.188 27.3293 38.198 30 38.198C32.6707 38.198 32.9867 38.188 34.0413 38.14C35.016 38.0953 35.5453 37.9327 35.898 37.7953C36.3324 37.6354 36.7254 37.38 37.048 37.048C37.3799 36.7253 37.6353 36.3324 37.7953 35.898C37.9333 35.5453 38.0953 35.016 38.14 34.0413C38.188 32.9867 38.198 32.67 38.198 30C38.198 27.33 38.188 27.0133 38.14 25.9587C38.0953 24.984 37.9327 24.4547 37.7953 24.102C37.6147 23.6353 37.398 23.302 37.048 22.952C36.698 22.6027 36.3647 22.3853 35.898 22.2047C35.5453 22.0667 35.016 21.9047 34.0413 21.86Z" fill="white"/>
</svg>
