<svg width="60" height="60" viewBox="0 0 60 60" fill="none" xmlns="http://www.w3.org/2000/svg">
<rect x="0.5" y="0.5" width="59" height="59" rx="29.5" stroke="white" stroke-opacity="0.1"/>
<path d="M40 21.4706V38.5294C40 38.9194 39.8451 39.2935 39.5693 39.5693C39.2935 39.8451 38.9194 40 38.5294 40H21.4706C21.0806 40 20.7065 39.8451 20.4307 39.5693C20.1549 39.2935 20 38.9194 20 38.5294V21.4706C20 21.0806 20.1549 20.7065 20.4307 20.4307C20.7065 20.1549 21.0806 20 21.4706 20H38.5294C38.9194 20 39.2935 20.1549 39.5693 20.4307C39.8451 20.7065 40 21.0806 40 21.4706ZM25.8824 27.6471H22.9412V37.0588H25.8824V27.6471ZM26.1471 24.4118C26.1486 24.1893 26.1063 23.9687 26.0226 23.7626C25.9389 23.5564 25.8154 23.3688 25.6592 23.2104C25.503 23.052 25.3171 22.9259 25.1121 22.8393C24.9072 22.7528 24.6872 22.7074 24.4647 22.7059H24.4118C23.9593 22.7059 23.5254 22.8856 23.2055 23.2055C22.8856 23.5254 22.7059 23.9593 22.7059 24.4118C22.7059 24.8642 22.8856 25.2981 23.2055 25.618C23.5254 25.9379 23.9593 26.1176 24.4118 26.1176C24.6343 26.1231 24.8556 26.0847 25.0633 26.0046C25.2709 25.9245 25.4607 25.8042 25.6219 25.6507C25.783 25.4972 25.9124 25.3135 26.0025 25.11C26.0926 24.9065 26.1417 24.6872 26.1471 24.4647V24.4118ZM37.0588 31.3412C37.0588 28.5118 35.2588 27.4118 33.4706 27.4118C32.8851 27.3824 32.3021 27.5072 31.7799 27.7734C31.2576 28.0397 30.8143 28.4383 30.4941 28.9294H30.4118V27.6471H27.6471V37.0588H30.5882V32.0529C30.5457 31.5403 30.7072 31.0315 31.0376 30.6372C31.3681 30.2429 31.8407 29.9949 32.3529 29.9471H32.4647C33.4 29.9471 34.0941 30.5353 34.0941 32.0176V37.0588H37.0353L37.0588 31.3412Z" fill="white"/>
</svg>
