<svg width="55" height="54" viewBox="0 0 55 54" fill="none" xmlns="http://www.w3.org/2000/svg">
<rect x="0.666626" width="54" height="54" rx="27" fill="#0C67BD"/>
<g clip-path="url(#clip0_304_190)">
<path d="M26.6667 36.0001H21.6667L21.6567 35.9991C19.9967 35.9891 18.6567 34.6491 18.6567 32.9991V32.9981V20.9981C18.6467 19.3381 19.9967 17.9881 21.6467 17.9881H33.6467H33.6367C35.2867 17.9781 36.6367 19.3281 36.6367 20.9881V25.9881" stroke="white" stroke-width="1.5" stroke-linecap="round" stroke-linejoin="round"/>
<path d="M26.6666 31H27.6666" stroke="white" stroke-width="1.5" stroke-linecap="round" stroke-linejoin="round"/>
<path d="M35.2167 29.7601L37.4567 33.7501C37.8567 34.4701 37.5967 35.3901 36.8767 35.7901C36.6467 35.9101 36.3967 35.9801 36.1367 35.9801H31.6467C30.8067 35.9701 30.1367 35.3001 30.1367 34.4701C30.1367 34.2101 30.1967 33.9501 30.3267 33.7301L32.5667 29.7301H32.5567C32.9567 29.0001 33.8767 28.7401 34.5967 29.1501C34.8367 29.2801 35.0267 29.4801 35.1667 29.7201L35.2167 29.7601Z" stroke="white" stroke-width="1.5" stroke-linecap="round" stroke-linejoin="round"/>
<path d="M30.6666 27H26.6666" stroke="white" stroke-width="1.5" stroke-linecap="round" stroke-linejoin="round"/>
<path d="M32.6666 23H26.6666" stroke="white" stroke-width="1.5" stroke-linecap="round" stroke-linejoin="round"/>
<path d="M22.6667 23.1251H22.6567C22.7167 23.1251 22.7767 23.0651 22.7767 22.9951C22.7767 22.9251 22.7167 22.8651 22.6467 22.8651C22.5767 22.8551 22.5167 22.9151 22.5167 22.9851L22.5067 22.9751C22.5067 23.0351 22.5567 23.0951 22.6267 23.0951C22.6267 23.0851 22.6267 23.0851 22.6267 23.0851" stroke="white" stroke-width="1.5" stroke-linecap="round" stroke-linejoin="round"/>
<path d="M22.6667 31.1251H22.6567C22.7167 31.1251 22.7767 31.0651 22.7767 30.9951C22.7767 30.9251 22.7167 30.8651 22.6467 30.8651C22.5767 30.8551 22.5167 30.9151 22.5167 30.9851L22.5067 30.9751C22.5067 31.0351 22.5567 31.0951 22.6267 31.0951C22.6267 31.0851 22.6267 31.0851 22.6267 31.0851" stroke="white" stroke-width="1.5" stroke-linecap="round" stroke-linejoin="round"/>
<path d="M22.6667 27.1251H22.6567C22.7167 27.1251 22.7767 27.0651 22.7767 26.9951C22.7767 26.9251 22.7167 26.8651 22.6467 26.8651C22.5767 26.8551 22.5167 26.9151 22.5167 26.9851L22.5067 26.9751C22.5067 27.0351 22.5567 27.0951 22.6267 27.0951C22.6267 27.0851 22.6267 27.0851 22.6267 27.0851" stroke="white" stroke-width="1.5" stroke-linecap="round" stroke-linejoin="round"/>
</g>
<defs>
<clipPath id="clip0_304_190">
<rect width="24" height="24" fill="white" transform="translate(15.6666 15)"/>
</clipPath>
</defs>
</svg>
