<svg width="54" height="54" viewBox="0 0 54 54" fill="none" xmlns="http://www.w3.org/2000/svg">
<g clip-path="url(#clip0_304_111)">
<path d="M15.624 42.75H11.376C10.0643 42.75 9 41.6858 9 40.374V23.751C9 22.4392 10.0643 21.375 11.376 21.375H15.624C16.9357 21.375 18 22.4392 18 23.751V40.374C18 41.6858 16.9357 42.75 15.624 42.75Z" stroke="#2F92EF" stroke-width="2" stroke-linecap="round" stroke-linejoin="round"/>
<path d="M18 23.787L26.2103 13.0973C27.738 11.106 30.7215 11.0565 32.3168 12.9938C32.913 13.716 33.237 14.625 33.237 15.561V22.9208H40.203C41.5553 22.9208 42.8175 23.5958 43.569 24.7185L44.3093 25.8233C44.973 26.8155 45.1665 28.0508 44.8358 29.196L41.778 39.8205C41.2785 41.5553 39.6923 42.75 37.8878 42.75H23.7375C22.6125 42.75 21.537 42.282 20.772 41.4585L18 38.475" stroke="#2F92EF" stroke-width="2" stroke-linecap="round" stroke-linejoin="round"/>
</g>
<defs>
<clipPath id="clip0_304_111">
<rect width="54" height="54" fill="white"/>
</clipPath>
</defs>
</svg>
