<svg width="54" height="54" viewBox="0 0 54 54" fill="none" xmlns="http://www.w3.org/2000/svg">
<path d="M33.75 37.0196V38.9289C33.75 40.6465 34.2742 42.3232 35.2525 43.7349C36.2308 45.1466 37.6167 46.2262 39.2249 46.8292L40.2037 47.1963C40.3948 47.268 40.6052 47.268 40.7963 47.1963L41.7751 46.8292C43.3833 46.2262 44.7692 45.1466 45.7475 43.7349C46.7258 42.3232 47.25 40.6465 47.25 38.9289V37.0196C47.25 36.6599 47.1351 36.3097 46.9221 36.02C46.7091 35.7302 46.4091 35.5161 46.0658 35.4088L41.0033 33.8268C40.6756 33.7244 40.3244 33.7244 39.9967 33.8268L34.9342 35.4088C34.5909 35.5161 34.2909 35.7302 34.0779 36.02C33.8649 36.3097 33.75 36.6599 33.75 37.0196Z" stroke="#2F92EF" stroke-width="2" stroke-linecap="round" stroke-linejoin="round"/>
<path d="M25.5217 36C20.7055 36.0001 16.0866 37.9134 12.681 41.319" stroke="#2F92EF" stroke-width="2" stroke-linecap="round" stroke-linejoin="round"/>
<path d="M47.25 27C47.25 22.9949 46.0624 19.0798 43.8373 15.7497C41.6122 12.4196 38.4495 9.82412 34.7493 8.29145C31.0491 6.75877 26.9775 6.35776 23.0494 7.13911C19.1213 7.92046 15.5131 9.84908 12.6811 12.6811C9.84907 15.5131 7.92044 19.1213 7.13909 23.0494C6.35774 26.9775 6.75876 31.0491 8.29143 34.7493C9.82411 38.4496 12.4196 41.6122 15.7497 43.8373C19.0798 46.0624 22.9949 47.25 27 47.25" stroke="#2F92EF" stroke-width="2" stroke-linecap="round" stroke-linejoin="round"/>
<path d="M33.75 21.9375V23.0625C33.75 24.8527 33.0388 26.5696 31.773 27.8355C30.5071 29.1013 28.7902 29.8125 27 29.8125C25.2098 29.8125 23.4929 29.1013 22.227 27.8355C20.9612 26.5696 20.25 24.8527 20.25 23.0625V21.9375C20.25 20.1473 20.9612 18.4304 22.227 17.1645C23.4929 15.8987 25.2098 15.1875 27 15.1875C28.7902 15.1875 30.5071 15.8987 31.773 17.1645C33.0388 18.4304 33.75 20.1473 33.75 21.9375Z" stroke="#2F92EF" stroke-width="2" stroke-linecap="round" stroke-linejoin="round"/>
</svg>
