<svg width="133" height="40" viewBox="0 0 133 40" fill="none" xmlns="http://www.w3.org/2000/svg">
<rect x="0.404297" width="132.596" height="39.2855" rx="8" fill="#00B57A"/>
<path d="M48.7207 32.1838C47.0761 32.1838 46.0391 30.8829 46.0391 28.7781C46.0391 26.6917 47.0823 25.3969 48.733 25.3969C49.6841 25.3969 50.4205 25.9001 50.7396 26.6303H50.7764V23.2246H52.5682V32.0795H50.8009V30.9504H50.7703C50.4512 31.6745 49.6902 32.1838 48.7207 32.1838ZM49.3282 26.8328C48.4261 26.8328 47.8739 27.5876 47.8739 28.7904C47.8739 29.9992 48.4261 30.7418 49.3282 30.7418C50.218 30.7418 50.7887 29.9931 50.7887 28.7904C50.7887 27.5938 50.218 26.8328 49.3282 26.8328Z" fill="white"/>
<path d="M42.0934 32.2209C40.1052 32.2209 38.835 30.9445 38.835 28.7845C38.835 26.6551 40.1236 25.3604 42.0934 25.3604C44.0632 25.3604 45.3519 26.649 45.3519 28.7845C45.3519 30.9507 44.0816 32.2209 42.0934 32.2209ZM42.0934 30.8525C42.9709 30.8525 43.5293 30.11 43.5293 28.7906C43.5293 27.4836 42.9648 26.7288 42.0934 26.7288C41.222 26.7288 40.6513 27.4836 40.6513 28.7906C40.6513 30.11 41.2098 30.8525 42.0934 30.8525Z" fill="white"/>
<path d="M31.7656 32.0795V23.2246H33.5268V26.6733H33.5636C33.9134 25.8449 34.6313 25.3785 35.6316 25.3785C37.0921 25.3785 37.9266 26.3235 37.9266 27.8454V32.0795H36.1348V28.2258C36.1348 27.379 35.7175 26.8635 34.9013 26.8635C34.0545 26.8635 33.5575 27.4588 33.5575 28.324V32.0795H31.7656Z" fill="white"/>
<path d="M27.7342 23.9854H29.5261V25.5011H30.7411V26.8511H29.5261V29.9991C29.5261 30.5023 29.7715 30.7416 30.2993 30.7416C30.4588 30.7416 30.6245 30.7293 30.7349 30.7109V32.0302C30.5508 32.0732 30.244 32.1039 29.882 32.1039C28.3356 32.1039 27.7342 31.5884 27.7342 30.3059V26.8511H26.8076V25.5011H27.7342V23.9854Z" fill="white"/>
<path d="M23.2242 26.6858C22.4387 26.6858 21.8741 27.2811 21.8128 28.1033H24.6049C24.568 27.2626 24.0219 26.6858 23.2242 26.6858ZM24.6294 30.067H26.274C26.0776 31.3557 24.8994 32.2209 23.2732 32.2209C21.2482 32.2209 20.0332 30.9261 20.0332 28.8213C20.0332 26.7226 21.2605 25.3604 23.2057 25.3604C25.1203 25.3604 26.3292 26.6551 26.3292 28.6556V29.2018H21.7944V29.3122C21.7944 30.2511 22.3896 30.8954 23.3039 30.8954C23.9605 30.8954 24.4637 30.5702 24.6294 30.067Z" fill="white"/>
<path d="M18.9527 32.0795H17.302V26.1026H17.2529L14.8474 31.9936H13.6815L11.276 26.1026H11.2269V32.0795H9.57617V23.2246H11.7239L14.2399 29.5022H14.289L16.8049 23.2246H18.9527V32.0795Z" fill="white"/>
<path d="M48.9538 19.5916C48.8924 19.5916 48.334 19.5854 48.2788 19.5732V18.1925C48.334 18.2047 48.6593 18.2047 48.7268 18.2047C49.3834 18.2047 49.7086 17.9961 49.8313 17.4745C49.8313 17.45 49.8988 17.1861 49.8865 17.1616L47.5977 10.5771H49.5675L50.9666 15.7195H50.9972L52.3964 10.5771H54.2864L52.022 17.3027C51.4575 18.9902 50.6352 19.5916 48.9538 19.5916Z" fill="white"/>
<path d="M43.5356 17.1552V10.577H45.2661V11.7613H45.3029C45.5361 10.9268 46.0945 10.4727 46.8677 10.4727C47.0764 10.4727 47.2543 10.5033 47.3771 10.5402V12.1172C47.2298 12.0559 46.9843 12.0129 46.7266 12.0129C45.8429 12.0129 45.3275 12.5529 45.3275 13.4795V17.1552H43.5356Z" fill="white"/>
<path d="M39.5035 11.762C38.718 11.762 38.1534 12.3572 38.0921 13.1795H40.8842C40.8473 12.3388 40.3012 11.762 39.5035 11.762ZM40.9087 15.1432H42.5533C42.3569 16.4318 41.1787 17.2971 39.5525 17.2971C37.5275 17.2971 36.3125 16.0023 36.3125 13.8975C36.3125 11.7988 37.5398 10.4365 39.485 10.4365C41.3996 10.4365 42.6085 11.7313 42.6085 13.7318V14.2779H38.0737V14.3884C38.0737 15.3273 38.6689 15.9716 39.5832 15.9716C40.2398 15.9716 40.743 15.6464 40.9087 15.1432Z" fill="white"/>
<path d="M36.1106 10.5771L33.8524 17.1554H31.8274L29.5508 10.5771H31.4715L32.8399 15.5722H32.8767L34.239 10.5771H36.1106Z" fill="white"/>
<path d="M27.1082 17.1556V10.5773H28.9001V17.1556H27.1082ZM28.0042 9.85321C27.4642 9.85321 27.0469 9.44206 27.0469 8.9266C27.0469 8.40501 27.4642 8 28.0042 8C28.5442 8 28.9614 8.40501 28.9614 8.9266C28.9614 9.44206 28.5442 9.85321 28.0042 9.85321Z" fill="white"/>
<path d="M24.0771 17.1557V8.30078H25.869V17.1557H24.0771Z" fill="white"/>
<path d="M20.0025 11.762C19.217 11.762 18.6525 12.3572 18.5911 13.1795H21.3832C21.3464 12.3388 20.8002 11.762 20.0025 11.762ZM21.4077 15.1432H23.0523C22.8559 16.4318 21.6777 17.2971 20.0516 17.2971C18.0265 17.2971 16.8115 16.0023 16.8115 13.8975C16.8115 11.7988 18.0388 10.4365 19.9841 10.4365C21.8986 10.4365 23.1075 11.7313 23.1075 13.7318V14.2779H18.5727V14.3884C18.5727 15.3273 19.1679 15.9716 20.0822 15.9716C20.7388 15.9716 21.242 15.6464 21.4077 15.1432Z" fill="white"/>
<path d="M8.4043 8.30078H11.7855C14.4426 8.30078 16.0074 9.88398 16.0074 12.6945C16.0074 15.505 14.4426 17.1557 11.7855 17.1557H8.4043V8.30078ZM10.2575 9.82876V15.6216H11.5646C13.2214 15.6216 14.1173 14.6152 14.1173 12.7006C14.1173 10.8474 13.1969 9.82876 11.5646 9.82876H10.2575Z" fill="white"/>
<line x1="60.7866" y1="8" x2="60.7866" y2="32.3494" stroke="white"/>
<path d="M125.911 15.6066V8.12988H127.424V15.6066H125.911Z" fill="white"/>
<path d="M122.206 14.601C122.864 14.601 123.408 14.171 123.408 13.5699V13.1658L122.237 13.2383C121.672 13.2798 121.351 13.5337 121.351 13.9274C121.351 14.342 121.693 14.601 122.206 14.601ZM121.709 15.6943C120.652 15.6943 119.849 15.0103 119.849 14.0103C119.849 13 120.626 12.4145 122.009 12.3316L123.408 12.2487V11.8808C123.408 11.3627 123.046 11.0622 122.476 11.0622C121.911 11.0622 121.553 11.3419 121.481 11.7513H120.097C120.154 10.6736 121.071 9.93262 122.543 9.93262C123.968 9.93262 124.895 10.6684 124.895 11.7875V15.6062H123.434V14.7565H123.403C123.092 15.3471 122.403 15.6943 121.709 15.6943Z" fill="white"/>
<path d="M117.02 15.6947C116.207 15.6947 115.585 15.3009 115.279 14.6532H115.248V15.6066H113.756V8.12988H115.269V11.0159H115.3C115.606 10.3579 116.222 9.96408 117.015 9.96408C118.414 9.96408 119.274 11.0366 119.274 12.8294C119.274 14.6169 118.419 15.6947 117.02 15.6947ZM116.497 11.1765C115.766 11.1765 115.264 11.8346 115.264 12.8294C115.264 13.8346 115.761 14.477 116.497 14.477C117.253 14.477 117.725 13.8449 117.725 12.8294C117.725 11.819 117.248 11.1765 116.497 11.1765Z" fill="white"/>
<path d="M110.186 15.7254C108.507 15.7254 107.435 14.6477 107.435 12.8238C107.435 11.0259 108.523 9.93262 110.186 9.93262C111.849 9.93262 112.937 11.0207 112.937 12.8238C112.937 14.6528 111.865 15.7254 110.186 15.7254ZM110.186 14.5699C110.927 14.5699 111.398 13.943 111.398 12.829C111.398 11.7254 110.922 11.0881 110.186 11.0881C109.45 11.0881 108.968 11.7254 108.968 12.829C108.968 13.943 109.44 14.5699 110.186 14.5699Z" fill="white"/>
<path d="M105.103 15.6066V8.12988H106.615V15.6066H105.103Z" fill="white"/>
<path d="M104.16 12.4663C104.16 14.5026 102.927 15.7358 100.844 15.7358C98.6106 15.7358 97.2427 14.2746 97.2427 11.8446C97.2427 9.45078 98.6106 8 100.807 8C102.554 8 103.87 9.03109 104.092 10.544H102.522C102.294 9.76166 101.657 9.29534 100.813 9.29534C99.5795 9.29534 98.8385 10.2332 98.8385 11.8238C98.8385 13.4456 99.6261 14.4352 100.87 14.4352C101.89 14.4352 102.6 13.8083 102.631 12.8808L102.636 12.7617H101.01V11.6218H104.16V12.4663Z" fill="white"/>
<path d="M127.141 28.376H128.005V29.1073H128.592V29.7587H128.005V31.2775C128.005 31.5203 128.124 31.6358 128.379 31.6358C128.456 31.6358 128.535 31.6299 128.589 31.621V32.2576C128.5 32.2783 128.352 32.2931 128.177 32.2931C127.431 32.2931 127.141 32.0444 127.141 31.4256V29.7587H126.694V29.1073H127.141V28.376Z" fill="white"/>
<path d="M124.964 29.6786C124.585 29.6786 124.313 29.9658 124.283 30.3625H125.63C125.612 29.9569 125.349 29.6786 124.964 29.6786ZM125.642 31.31H126.435C126.341 31.9317 125.772 32.3492 124.988 32.3492C124.011 32.3492 123.424 31.7245 123.424 30.7089C123.424 29.6964 124.016 29.0391 124.955 29.0391C125.879 29.0391 126.462 29.6638 126.462 30.629V30.8925H124.274V30.9458C124.274 31.3988 124.561 31.7097 125.002 31.7097C125.319 31.7097 125.562 31.5528 125.642 31.31Z" fill="white"/>
<path d="M120.046 32.281V29.1071H120.881V29.6726H120.899C121.068 29.2788 121.402 29.0479 121.891 29.0479C122.596 29.0479 122.992 29.492 122.992 30.2351V32.281H122.128V30.4157C122.128 30.0012 121.932 29.7644 121.545 29.7644C121.157 29.7644 120.911 30.0486 120.911 30.4601V32.281H120.046Z" fill="white"/>
<path d="M117.838 32.2809V29.107H118.673V29.6784H118.691C118.803 29.2757 119.073 29.0566 119.446 29.0566C119.546 29.0566 119.632 29.0714 119.691 29.0892V29.8501C119.62 29.8205 119.502 29.7998 119.377 29.7998C118.951 29.7998 118.702 30.0603 118.702 30.5074V32.2809H117.838Z" fill="white"/>
<path d="M115.892 29.6786C115.513 29.6786 115.241 29.9658 115.211 30.3625H116.558C116.541 29.9569 116.277 29.6786 115.892 29.6786ZM116.57 31.31H117.364C117.269 31.9317 116.7 32.3492 115.916 32.3492C114.939 32.3492 114.353 31.7245 114.353 30.7089C114.353 29.6964 114.945 29.0391 115.883 29.0391C116.807 29.0391 117.39 29.6638 117.39 30.629V30.8925H115.202V30.9458C115.202 31.3988 115.489 31.7097 115.931 31.7097C116.247 31.7097 116.49 31.5528 116.57 31.31Z" fill="white"/>
<path d="M112.591 28.376H113.456V29.1073H114.042V29.7587H113.456V31.2775C113.456 31.5203 113.574 31.6358 113.829 31.6358C113.906 31.6358 113.986 31.6299 114.039 31.621V32.2576C113.95 32.2783 113.802 32.2931 113.627 32.2931C112.881 32.2931 112.591 32.0444 112.591 31.4256V29.7587H112.144V29.1073H112.591V28.376Z" fill="white"/>
<path d="M108.867 32.281V29.1071H109.702V29.6726H109.719C109.888 29.2788 110.223 29.0479 110.711 29.0479C111.416 29.0479 111.813 29.492 111.813 30.2351V32.281H110.948V30.4157C110.948 30.0012 110.753 29.7644 110.365 29.7644C109.977 29.7644 109.731 30.0486 109.731 30.4601V32.281H108.867Z" fill="white"/>
<path d="M107.425 32.2808V29.1068H108.29V32.2808H107.425ZM107.857 28.7574C107.597 28.7574 107.396 28.5591 107.396 28.3104C107.396 28.0587 107.597 27.8633 107.857 27.8633C108.118 27.8633 108.319 28.0587 108.319 28.3104C108.319 28.5591 108.118 28.7574 107.857 28.7574Z" fill="white"/>
<path d="M104.263 29.6786C103.884 29.6786 103.611 29.9658 103.582 30.3625H104.929C104.911 29.9569 104.648 29.6786 104.263 29.6786ZM104.941 31.31H105.734C105.64 31.9317 105.071 32.3492 104.286 32.3492C103.309 32.3492 102.723 31.7245 102.723 30.7089C102.723 29.6964 103.315 29.0391 104.254 29.0391C105.178 29.0391 105.761 29.6638 105.761 30.629V30.8925H103.573V30.9458C103.573 31.3988 103.86 31.7097 104.301 31.7097C104.618 31.7097 104.861 31.5528 104.941 31.31Z" fill="white"/>
<path d="M99.312 32.2812V28.0088H100.162V29.6727H100.18C100.348 29.273 100.695 29.048 101.177 29.048C101.882 29.048 102.285 29.504 102.285 30.2383V32.2812H101.42V30.4218C101.42 30.0132 101.219 29.7645 100.825 29.7645C100.416 29.7645 100.177 30.0517 100.177 30.4692V32.2812H99.312Z" fill="white"/>
<path d="M97.3665 28.376H98.2311V29.1073H98.8173V29.7587H98.2311V31.2775C98.2311 31.5203 98.3495 31.6358 98.6041 31.6358C98.6811 31.6358 98.761 31.6299 98.8143 31.621V32.2576C98.7255 32.2783 98.5775 32.2931 98.4028 32.2931C97.6567 32.2931 97.3665 32.0444 97.3665 31.4256V29.7587H96.9194V29.1073H97.3665V28.376Z" fill="white"/>
<path d="M122.072 24.1266C122.448 24.1266 122.759 23.8809 122.759 23.5374V23.3065L122.09 23.348C121.767 23.3716 121.583 23.5167 121.583 23.7417C121.583 23.9786 121.779 24.1266 122.072 24.1266ZM121.788 24.7514C121.184 24.7514 120.725 24.3605 120.725 23.7891C120.725 23.2118 121.169 22.8772 121.959 22.8298L122.759 22.7825V22.5722C122.759 22.2762 122.551 22.1044 122.226 22.1044C121.903 22.1044 121.699 22.2643 121.657 22.4982H120.867C120.899 21.8824 121.423 21.459 122.264 21.459C123.078 21.459 123.608 21.8794 123.608 22.5189V24.701H122.773V24.2155H122.756C122.578 24.553 122.184 24.7514 121.788 24.7514Z" fill="white"/>
<path d="M119.404 24.7017V21.5277H120.269V24.7017H119.404ZM119.836 21.1783C119.576 21.1783 119.375 20.98 119.375 20.7313C119.375 20.4796 119.576 20.2842 119.836 20.2842C120.097 20.2842 120.298 20.4796 120.298 20.7313C120.298 20.98 120.097 21.1783 119.836 21.1783Z" fill="white"/>
<path d="M119.087 21.5273L117.997 24.7013H117.02L115.922 21.5273H116.849L117.509 23.9374H117.527L118.184 21.5273H119.087Z" fill="white"/>
<path d="M113.038 22.0985C112.659 22.0985 112.386 22.3857 112.357 22.7825H113.704C113.686 22.3768 113.423 22.0985 113.038 22.0985ZM113.716 23.7299H114.509C114.414 24.3517 113.846 24.7691 113.061 24.7691C112.084 24.7691 111.498 24.1444 111.498 23.1289C111.498 22.1163 112.09 21.459 113.029 21.459C113.953 21.459 114.536 22.0837 114.536 23.0489V23.3124H112.348V23.3657C112.348 23.8187 112.635 24.1296 113.076 24.1296C113.393 24.1296 113.636 23.9727 113.716 23.7299Z" fill="white"/>
<path d="M108.12 24.7019V21.528H108.955V22.0935H108.973C109.142 21.6997 109.476 21.4688 109.965 21.4688C110.669 21.4688 111.066 21.9129 111.066 22.656V24.7019H110.202V22.8366C110.202 22.4221 110.006 22.1853 109.618 22.1853C109.23 22.1853 108.985 22.4695 108.985 22.881V24.7019H108.12Z" fill="white"/>
<path d="M106.679 24.7017V21.5277H107.543V24.7017H106.679ZM107.111 21.1783C106.85 21.1783 106.649 20.98 106.649 20.7313C106.649 20.4796 106.85 20.2842 107.111 20.2842C107.371 20.2842 107.573 20.4796 107.573 20.7313C107.573 20.98 107.371 21.1783 107.111 21.1783Z" fill="white"/>
<path d="M105.216 24.7011V20.4287H106.08V24.7011H105.216Z" fill="white"/>
<path d="M101.701 24.7019V21.528H102.536V22.0935H102.554C102.723 21.6997 103.057 21.4688 103.546 21.4688C104.25 21.4688 104.647 21.9129 104.647 22.656V24.7019H103.783V22.8366C103.783 22.4221 103.587 22.1853 103.199 22.1853C102.811 22.1853 102.566 22.4695 102.566 22.881V24.7019H101.701Z" fill="white"/>
<path d="M99.1374 20.3545C100.402 20.3545 101.198 21.2042 101.198 22.5662C101.198 23.9252 100.402 24.7749 99.1374 24.7749C97.8701 24.7749 97.0767 23.9252 97.0767 22.5662C97.0767 21.2042 97.8701 20.3545 99.1374 20.3545ZM99.1374 21.1006C98.4386 21.1006 97.9886 21.6691 97.9886 22.5662C97.9886 23.4603 98.4357 24.0259 99.1374 24.0259C99.8361 24.0259 100.283 23.4603 100.283 22.5662C100.283 21.6691 99.8361 21.1006 99.1374 21.1006Z" fill="white"/>
<g clip-path="url(#clip0_2099_4416)">
<path d="M89.4269 13.4897C89.2793 13.1702 89.0311 12.9171 88.731 12.7504C88.4309 12.5837 88.0802 12.4992 87.7102 12.4992C87.0617 12.4992 86.3507 12.759 85.7217 13.3148C85.1976 13.7772 84.7349 14.4463 84.4004 15.3362V8.77785C84.4003 8.34879 84.0512 8 83.6225 8H72.7061C72.2766 8 71.9283 8.34879 71.9283 8.77785V15.1509L70.281 14.5304C70.0302 14.4362 69.7716 14.3913 69.517 14.3913C69.0774 14.3913 68.6524 14.5244 68.2958 14.7674C67.9389 15.0096 67.65 15.3624 67.4866 15.796C67.392 16.0465 67.3472 16.3059 67.3472 16.5597C67.3472 16.9989 67.481 17.4238 67.7232 17.7809C67.9654 18.1371 68.3186 18.4264 68.7523 18.5897L70.2134 19.1399C70.1237 19.1833 70.037 19.2334 69.954 19.2898C69.6168 19.5197 69.3413 19.8542 69.1873 20.265C69.0972 20.5016 69.055 20.7472 69.055 20.9883C69.055 21.4051 69.1806 21.8069 69.4112 22.1459C69.6415 22.4834 69.9756 22.7567 70.3868 22.9129L70.4951 22.9532C70.4551 22.9768 70.4155 23.0019 70.3774 23.0276C70.038 23.2568 69.764 23.5909 69.61 24.0032C69.5199 24.2398 69.4777 24.485 69.4777 24.7265C69.4777 25.1436 69.6036 25.5447 69.8347 25.8823C70.0627 26.2216 70.3972 26.4952 70.8076 26.6493L70.9157 26.6904C70.8738 26.7139 70.8338 26.7393 70.7942 26.7666C70.4563 26.995 70.1812 27.3295 70.0268 27.74C69.9367 27.9781 69.8949 28.2237 69.8949 28.4651C69.8949 28.88 70.0209 29.2837 70.2511 29.6208C70.4814 29.9588 70.8159 30.2339 71.2267 30.3879L72.6299 30.9164C72.8665 31.0053 73.1124 31.0487 73.3535 31.0487C73.6903 31.0487 74.0166 30.9643 74.3082 30.8117C74.7526 31.1152 75.2654 31.4023 75.8575 31.6438C76.8267 32.0392 77.9997 32.314 79.3979 32.3465C79.4865 32.3488 79.5736 32.3496 79.6603 32.3496C81.022 32.3503 82.1594 32.0901 83.104 31.6176C83.8123 31.2633 84.4093 30.7909 84.9086 30.2328C85.6592 29.3959 86.1922 28.3725 86.5948 27.253C86.9959 26.1365 87.268 24.9217 87.4881 23.6867C87.4937 23.6606 87.5221 23.5334 87.5681 23.3261C87.7494 22.5101 88.2039 20.4643 88.627 18.573C88.8386 17.6277 89.0423 16.7209 89.2004 16.0265C89.2789 15.6796 89.3462 15.3854 89.3974 15.1668C89.4228 15.0576 89.4441 14.9672 89.4609 14.8983C89.4766 14.8311 89.4893 14.7825 89.4927 14.7709C89.5492 14.5732 89.5768 14.3799 89.5768 14.1934C89.5772 13.9413 89.5253 13.7021 89.4269 13.4897ZM69.0259 17.8616C68.7459 17.7562 68.5231 17.5722 68.3668 17.3435C68.211 17.114 68.125 16.8404 68.125 16.5597C68.125 16.3971 68.1534 16.2326 68.2147 16.0696C68.3205 15.7901 68.5037 15.5666 68.7331 15.4103C68.9619 15.2548 69.2362 15.1685 69.517 15.1685C69.6788 15.1685 69.844 15.1972 70.0062 15.2582L71.9282 15.9815V18.9546L69.0259 17.8616ZM70.0553 21.7085C69.9121 21.4969 69.8329 21.2465 69.8329 20.9882C69.8329 20.8391 69.8594 20.6881 69.9151 20.5386C70.0115 20.2821 70.1812 20.0766 70.3913 19.9331C70.6014 19.7903 70.8533 19.711 71.1101 19.711C71.2592 19.711 71.4102 19.7379 71.5594 19.7933H71.5609L71.9283 19.9323L72.9644 20.3226C73.1557 20.3939 73.3172 20.5061 73.4481 20.6462C73.4914 20.6926 73.5322 20.7441 73.5695 20.7987C73.7124 21.0084 73.7905 21.2607 73.7905 21.5171C73.7905 21.6666 73.764 21.8176 73.7079 21.9686C73.6473 22.1305 73.5584 22.2699 73.4481 22.388C73.3827 22.4587 73.3113 22.5189 73.2317 22.5734C73.0216 22.7166 72.7716 22.7947 72.5133 22.7947C72.3638 22.7947 72.2128 22.7682 72.0636 22.7118L71.9283 22.6602L70.6604 22.1847C70.4036 22.0868 70.198 21.9186 70.0553 21.7085ZM70.4765 25.4456C70.3341 25.2351 70.256 24.9832 70.256 24.7264C70.256 24.5769 70.2821 24.426 70.3386 24.2772C70.4346 24.0189 70.6025 23.8152 70.8144 23.6701C71.0242 23.5273 71.2764 23.4488 71.5332 23.4488C71.6641 23.4488 71.7964 23.4682 71.9283 23.5131C71.947 23.5176 71.9642 23.5258 71.9829 23.5318L73.3861 24.0603C73.4078 24.0682 73.428 24.076 73.4482 24.0857C73.6769 24.1852 73.8604 24.3421 73.9909 24.535C74.1344 24.7466 74.2133 24.9974 74.2133 25.2556C74.2133 25.4052 74.1872 25.5554 74.1314 25.705C74.1314 25.7064 74.1296 25.708 74.1296 25.7094C74.0331 25.9651 73.8634 26.1688 73.6552 26.3105C73.4452 26.4536 73.1929 26.5325 72.9361 26.5325C72.7869 26.5325 72.6363 26.5063 72.4867 26.4506L71.9283 26.2402L71.0836 25.921C70.8252 25.8246 70.6212 25.6564 70.4765 25.4456ZM74.565 29.3905C74.5601 29.4077 74.5541 29.4264 74.5482 29.4436C74.4513 29.7 74.2831 29.9052 74.0723 30.0483C73.8619 30.1915 73.6118 30.2715 73.3535 30.2715C73.204 30.2715 73.053 30.2449 72.9039 30.1885L71.5003 29.6596C71.242 29.5632 71.0383 29.3935 70.8951 29.1834C70.752 28.9737 70.6728 28.7222 70.6728 28.465C70.6728 28.3155 70.6989 28.163 70.7554 28.0154C70.8518 27.7575 71.0211 27.5515 71.2312 27.4087C71.4349 27.2697 71.6794 27.1923 71.9283 27.1878H71.95C72.0992 27.1878 72.2502 27.2128 72.3997 27.2697L72.4606 27.2922L73.8025 27.7978C74.0608 27.8954 74.2649 28.064 74.4095 28.2741C74.5527 28.4852 74.6308 28.7357 74.6308 28.9943C74.6307 29.1247 74.6106 29.2582 74.565 29.3905ZM73.6615 23.3326L73.5498 23.2904C73.5901 23.2672 73.6294 23.2422 73.669 23.2164C74.008 22.9876 74.2816 22.6527 74.436 22.2423C74.5261 22.0042 74.5683 21.7579 74.5683 21.5172C74.5683 21.1007 74.4423 20.6993 74.2117 20.3614C74.0237 20.0833 73.7639 19.8478 73.4481 19.6879V10.3335H82.9111V25.6318H74.9533C74.9765 25.5061 74.9911 25.3806 74.9911 25.2557C74.9911 24.8386 74.8655 24.4371 74.6353 24.0978C74.405 23.7606 74.0704 23.4862 73.6615 23.3326ZM78.7091 27.2285C78.7091 27.5291 78.4651 27.7735 78.1645 27.7735C77.8636 27.7735 77.6199 27.5291 77.6199 27.2285C77.6199 26.9284 77.8636 26.6843 78.1645 26.6843C78.465 26.6844 78.7091 26.9284 78.7091 27.2285ZM88.7448 14.5577C88.7325 14.5995 88.7182 14.6582 88.6966 14.7479C88.6177 15.078 88.4554 15.7886 88.2562 16.6729C87.659 19.3238 86.7278 23.5237 86.7278 23.5237L86.726 23.5318L86.7244 23.5401C86.5323 24.621 86.3009 25.6718 85.9851 26.6331C85.7485 27.3549 85.4644 28.0254 85.116 28.6223C84.5927 29.5187 83.9311 30.2472 83.0565 30.7593C82.1807 31.2702 81.0829 31.5711 79.6603 31.5718C79.5803 31.5718 79.4988 31.5703 79.4158 31.5688C78.109 31.5378 77.0337 31.284 76.1515 30.9241C75.6982 30.7383 75.2963 30.5245 74.9401 30.298C75.0795 30.1279 75.195 29.9339 75.2758 29.7171C75.3165 29.6102 75.3475 29.4996 75.3677 29.3904C75.3838 29.3142 75.3938 29.2376 75.3998 29.1617L83.6223 29.2349C84.0511 29.2349 84.4002 28.8866 84.4002 28.4575V18.0787C84.5415 17.5819 84.7235 16.9413 84.9594 16.113C85.2625 15.05 85.7357 14.3401 86.2366 13.8972C86.7378 13.4546 87.2701 13.2767 87.71 13.2767C88.0456 13.2767 88.3234 13.3799 88.5077 13.5376C88.5996 13.6169 88.6706 13.7085 88.7203 13.8161C88.7697 13.9234 88.7985 14.0467 88.7989 14.1933C88.799 14.302 88.7829 14.4231 88.7448 14.5577Z" fill="white"/>
<path d="M78.1653 22.0399C79.9198 22.0399 81.3421 20.6176 81.3421 18.8627C81.3421 17.1078 79.9198 15.6855 78.1653 15.6855C76.41 15.6855 74.9881 17.1078 74.9878 18.8627C74.9881 20.6176 76.41 22.0399 78.1653 22.0399ZM80.0256 20.7226C79.7509 20.997 79.4175 21.21 79.0452 21.342C79.2239 21.1264 79.3719 20.8501 79.4881 20.5305H80.1998C80.1448 20.5971 80.0866 20.6617 80.0256 20.7226ZM80.4009 20.2487H79.5793C79.6847 19.8734 79.7479 19.4518 79.7595 19.0036H80.7918C80.7683 19.4592 80.6274 19.8839 80.4009 20.2487ZM80.7918 18.7221H79.7583C79.7475 18.274 79.6859 17.852 79.58 17.4771H80.4009C80.6274 17.8419 80.7683 18.2661 80.7918 18.7221ZM80.0256 17.0031C80.0866 17.0641 80.1449 17.1284 80.1998 17.1949H79.4881C79.438 17.0566 79.382 16.9257 79.3196 16.805C79.2388 16.6476 79.1465 16.5056 79.0459 16.3838C79.4179 16.5161 79.7512 16.7291 80.0256 17.0031ZM78.3062 16.2361C78.3503 16.2387 78.3937 16.2417 78.4374 16.2462C78.5058 16.2776 78.575 16.3194 78.6426 16.3747C78.8497 16.5433 79.0418 16.8289 79.1876 17.1948H78.3063L78.3062 16.2361ZM78.3062 17.4771H79.2851C79.3977 17.843 79.4657 18.2676 79.478 18.7221H78.3062V17.4771ZM78.3062 19.0036H79.4769C79.4642 19.4585 79.3957 19.8828 79.2847 20.2487H78.3062V19.0036ZM78.3062 20.5305H79.1857C79.1498 20.6221 79.1113 20.711 79.0695 20.791C78.9447 21.0329 78.7973 21.2242 78.6426 21.3506C78.575 21.4063 78.5059 21.4486 78.4374 21.4799C78.3937 21.4837 78.3503 21.4874 78.3062 21.4896V20.5305ZM76.3054 20.7226C76.2441 20.6617 76.185 20.597 76.1312 20.5305H76.8417C76.8926 20.6692 76.9479 20.7997 77.0103 20.9204C77.0918 21.0789 77.183 21.2198 77.2843 21.342C76.9123 21.2101 76.579 20.997 76.3054 20.7226ZM78.0244 21.4896C77.9803 21.4874 77.9365 21.4837 77.8924 21.4799C77.824 21.4486 77.7549 21.4063 77.6868 21.3506C77.4801 21.1817 77.2888 20.8961 77.1422 20.5305H78.0244V21.4896ZM78.0244 20.2487H77.0447C76.9329 19.8828 76.8642 19.4578 76.8526 19.0036H78.0244V20.2487ZM78.0244 18.7221H76.8529C76.8646 18.2676 76.9341 17.843 77.0458 17.4771H78.0244L78.0244 18.7221ZM77.6868 16.3748C77.7549 16.3195 77.824 16.2776 77.8924 16.2462C77.9365 16.2418 77.9803 16.2388 78.0244 16.2362V17.1949H77.1441C77.18 17.1037 77.2189 17.0155 77.2607 16.9348C77.3856 16.6925 77.5325 16.5012 77.6868 16.3748ZM76.3054 17.0031C76.579 16.7291 76.9131 16.5154 77.2847 16.3838C77.1071 16.5991 76.958 16.8761 76.8417 17.1949H76.1312C76.185 17.1283 76.2441 17.064 76.3054 17.0031ZM75.929 17.4771H76.7505C76.6451 17.852 76.582 18.274 76.5704 18.7221H75.538C75.5619 18.2661 75.7024 17.8419 75.929 17.4771ZM76.5715 19.0036C76.5831 19.4518 76.644 19.8734 76.7505 20.2487H75.929C75.7024 19.8839 75.5619 19.4592 75.538 19.0036H76.5715Z" fill="white"/>
</g>
<defs>
<clipPath id="clip0_2099_4416">
<rect width="24.3494" height="24.3494" fill="white" transform="translate(66.2866 8)"/>
</clipPath>
</defs>
</svg>
