<svg width="161" height="40" viewBox="0 0 161 40" fill="none" xmlns="http://www.w3.org/2000/svg">
<rect x="0.939453" width="159.277" height="39.2857" rx="8" fill="#00B57A"/>
<path d="M33.3257 26.6858C32.5403 26.6858 31.9757 27.2811 31.9143 28.1033H34.7064C34.6696 27.2626 34.1235 26.6858 33.3257 26.6858ZM34.731 30.067H36.3755C36.1792 31.3557 35.001 32.2209 33.3748 32.2209C31.3498 32.2209 30.1348 30.9261 30.1348 28.8213C30.1348 26.7226 31.3621 25.3604 33.3073 25.3604C35.2219 25.3604 36.4308 26.6551 36.4308 28.6556V29.2018H31.8959V29.3122C31.8959 30.2511 32.4912 30.8954 33.4055 30.8954C34.0621 30.8954 34.5653 30.5702 34.731 30.067Z" fill="white"/>
<path d="M19.5244 32.0789V25.5007H21.2549V26.6911H21.2917C21.5678 25.8995 22.2735 25.3779 23.1695 25.3779C24.1206 25.3779 24.7833 25.8688 25.0043 26.7279H25.0411C25.3356 25.8995 26.1211 25.3779 27.0845 25.3779C28.3732 25.3779 29.2384 26.2616 29.2384 27.587V32.0789H27.4466V28.035C27.4466 27.2741 27.0661 26.8568 26.3727 26.8568C25.6915 26.8568 25.2436 27.3539 25.2436 28.0841V32.0789H23.5192V27.9798C23.5192 27.2741 23.1204 26.8568 22.4576 26.8568C21.7765 26.8568 21.3163 27.3723 21.3163 28.1086V32.0789H19.5244Z" fill="white"/>
<path d="M16.536 32.0794V25.5011H18.3278V32.0794H16.536ZM17.4319 24.777C16.8919 24.777 16.4746 24.3659 16.4746 23.8504C16.4746 23.3288 16.8919 22.9238 17.4319 22.9238C17.9719 22.9238 18.3892 23.3288 18.3892 23.8504C18.3892 24.3659 17.9719 24.777 17.4319 24.777Z" fill="white"/>
<path d="M13.3516 32.0795H11.4984V24.7526H8.93945V23.2246H15.9166V24.7526H13.3516V32.0795Z" fill="white"/>
<path d="M49.9313 19.5916C49.87 19.5916 49.3116 19.5854 49.2563 19.5732V18.1925C49.3116 18.2047 49.6368 18.2047 49.7043 18.2047C50.3609 18.2047 50.6861 17.9961 50.8089 17.4745C50.8089 17.45 50.8764 17.1861 50.8641 17.1616L48.5752 10.5771H50.545L51.9441 15.7195H51.9748L53.3739 10.5771H55.2639L52.9996 17.3027C52.435 18.9902 51.6127 19.5916 49.9313 19.5916Z" fill="white"/>
<path d="M44.5127 17.1552V10.577H46.2432V11.7613H46.28C46.5132 10.9268 47.0716 10.4727 47.8448 10.4727C48.0534 10.4727 48.2314 10.5033 48.3541 10.5402V12.1172C48.2068 12.0559 47.9614 12.0129 47.7036 12.0129C46.82 12.0129 46.3045 12.5529 46.3045 13.4795V17.1552H44.5127Z" fill="white"/>
<path d="M40.481 11.762C39.6955 11.762 39.131 12.3572 39.0696 13.1795H41.8617C41.8249 12.3388 41.2787 11.762 40.481 11.762ZM41.8862 15.1432H43.5308C43.3344 16.4318 42.1562 17.2971 40.5301 17.2971C38.5051 17.2971 37.29 16.0023 37.29 13.8975C37.29 11.7988 38.5173 10.4365 40.4626 10.4365C42.3772 10.4365 43.586 11.7313 43.586 13.7318V14.2779H39.0512V14.3884C39.0512 15.3273 39.6464 15.9716 40.5608 15.9716C41.2174 15.9716 41.7206 15.6464 41.8862 15.1432Z" fill="white"/>
<path d="M37.0872 10.5771L34.829 17.1554H32.804L30.5273 10.5771H32.4481L33.8165 15.5722H33.8533L35.2156 10.5771H37.0872Z" fill="white"/>
<path d="M28.0848 17.1556V10.5773H29.8766V17.1556H28.0848ZM28.9807 9.85321C28.4407 9.85321 28.0234 9.44206 28.0234 8.9266C28.0234 8.40501 28.4407 8 28.9807 8C29.5207 8 29.938 8.40501 29.938 8.9266C29.938 9.44206 29.5207 9.85321 28.9807 9.85321Z" fill="white"/>
<path d="M25.0537 17.1557V8.30078H26.8456V17.1557H25.0537Z" fill="white"/>
<path d="M20.979 11.762C20.1936 11.762 19.629 12.3572 19.5677 13.1795H22.3597C22.3229 12.3388 21.7768 11.762 20.979 11.762ZM22.3843 15.1432H24.0288C23.8325 16.4318 22.6543 17.2971 21.0281 17.2971C19.0031 17.2971 17.7881 16.0023 17.7881 13.8975C17.7881 11.7988 19.0154 10.4365 20.9606 10.4365C22.8752 10.4365 24.0841 11.7313 24.0841 13.7318V14.2779H19.5492V14.3884C19.5492 15.3273 20.1445 15.9716 21.0588 15.9716C21.7154 15.9716 22.2186 15.6464 22.3843 15.1432Z" fill="white"/>
<path d="M9.38086 8.30078H12.762C15.4191 8.30078 16.9839 9.88398 16.9839 12.6945C16.9839 15.505 15.4191 17.1557 12.762 17.1557H9.38086V8.30078ZM11.2341 9.82876V15.6216H12.5411C14.198 15.6216 15.0939 14.6152 15.0939 12.7006C15.0939 10.8474 14.1734 9.82876 12.5411 9.82876H11.2341Z" fill="white"/>
<line x1="61.7637" y1="8" x2="61.7637" y2="32.3494" stroke="white"/>
<path d="M152.052 17.7359C152.001 17.7359 151.532 17.7308 151.485 17.7205V16.5609C151.532 16.5712 151.805 16.5712 151.861 16.5712C152.413 16.5712 152.686 16.396 152.789 15.9579C152.789 15.9373 152.846 15.7157 152.835 15.695L150.913 10.165H152.567L153.743 14.4839H153.768L154.943 10.165H156.531L154.629 15.8136C154.155 17.2309 153.464 17.7359 152.052 17.7359Z" fill="white"/>
<path d="M148.826 15.6889V8.25195H150.331V15.6889H148.826Z" fill="white"/>
<path d="M145.404 11.1591C144.744 11.1591 144.27 11.659 144.218 12.3496H146.563C146.532 11.6436 146.074 11.1591 145.404 11.1591ZM146.584 13.9988H147.965C147.8 15.0811 146.811 15.8078 145.445 15.8078C143.744 15.8078 142.724 14.7204 142.724 12.9526C142.724 11.19 143.754 10.0459 145.388 10.0459C146.996 10.0459 148.011 11.1333 148.011 12.8135V13.2722H144.203V13.3649C144.203 14.1535 144.703 14.6946 145.471 14.6946C146.022 14.6946 146.445 14.4215 146.584 13.9988Z" fill="white"/>
<path d="M139.658 8.8916H141.163V10.1646H142.183V11.2984H141.163V13.9423C141.163 14.3649 141.369 14.5659 141.812 14.5659C141.946 14.5659 142.086 14.5556 142.178 14.5401V15.6482C142.024 15.6843 141.766 15.7101 141.462 15.7101C140.163 15.7101 139.658 15.2771 139.658 14.2V11.2984H138.88V10.1646H139.658V8.8916Z" fill="white"/>
<path d="M135.607 14.6895C136.261 14.6895 136.802 14.2617 136.802 13.6639V13.2619L135.638 13.334C135.076 13.3752 134.756 13.6278 134.756 14.0195C134.756 14.4318 135.096 14.6895 135.607 14.6895ZM135.112 15.7769C134.061 15.7769 133.262 15.0966 133.262 14.1019C133.262 13.0969 134.035 12.5146 135.411 12.4321L136.802 12.3496V11.9837C136.802 11.4683 136.442 11.1694 135.875 11.1694C135.313 11.1694 134.957 11.4477 134.885 11.8549H133.509C133.566 10.7829 134.478 10.0459 135.942 10.0459C137.359 10.0459 138.282 10.7777 138.282 11.891V15.6893H136.828V14.8441H136.797C136.488 15.4316 135.803 15.7769 135.112 15.7769Z" fill="white"/>
<path d="M130.963 15.6894V10.1646H132.468V15.6894H130.963ZM131.715 9.55644C131.262 9.55644 130.911 9.21114 130.911 8.77822C130.911 8.34015 131.262 8 131.715 8C132.169 8 132.519 8.34015 132.519 8.77822C132.519 9.21114 132.169 9.55644 131.715 9.55644Z" fill="white"/>
<path d="M126.701 15.7765C125.32 15.7765 124.449 14.6839 124.449 12.9161C124.449 11.1638 125.325 10.0764 126.712 10.0764C127.511 10.0764 128.129 10.499 128.397 11.1123H128.428V8.25195H129.933V15.6889H128.449V14.7406H128.423C128.155 15.3487 127.516 15.7765 126.701 15.7765ZM127.212 11.2824C126.454 11.2824 125.99 11.9163 125.99 12.9264C125.99 13.9417 126.454 14.5653 127.212 14.5653C127.959 14.5653 128.438 13.9366 128.438 12.9264C128.438 11.9214 127.959 11.2824 127.212 11.2824Z" fill="white"/>
<path d="M121.264 11.1591C120.604 11.1591 120.13 11.659 120.079 12.3496H122.424C122.393 11.6436 121.934 11.1591 121.264 11.1591ZM122.444 13.9988H123.825C123.66 15.0811 122.671 15.8078 121.305 15.8078C119.604 15.8078 118.584 14.7204 118.584 12.9526C118.584 11.19 119.615 10.0459 121.248 10.0459C122.856 10.0459 123.872 11.1333 123.872 12.8135V13.2722H120.063V13.3649C120.063 14.1535 120.563 14.6946 121.331 14.6946C121.882 14.6946 122.305 14.4215 122.444 13.9988Z" fill="white"/>
<path d="M109.673 15.6895V10.1646H111.126V11.1644H111.157C111.389 10.4996 111.982 10.0615 112.734 10.0615C113.533 10.0615 114.09 10.4738 114.275 11.1954H114.306C114.553 10.4996 115.213 10.0615 116.022 10.0615C117.105 10.0615 117.831 10.8037 117.831 11.9169V15.6895H116.326V12.2931C116.326 11.654 116.007 11.3036 115.424 11.3036C114.852 11.3036 114.476 11.721 114.476 12.3343V15.6895H113.028V12.2467C113.028 11.654 112.693 11.3036 112.136 11.3036C111.564 11.3036 111.178 11.7365 111.178 12.355V15.6895H109.673Z" fill="white"/>
<path d="M100.562 15.6895V10.1646H102.015V11.1644H102.046C102.278 10.4996 102.87 10.0615 103.623 10.0615C104.422 10.0615 104.978 10.4738 105.164 11.1954H105.195C105.442 10.4996 106.102 10.0615 106.911 10.0615C107.993 10.0615 108.72 10.8037 108.72 11.9169V15.6895H107.215V12.2931C107.215 11.654 106.896 11.3036 106.313 11.3036C105.741 11.3036 105.365 11.721 105.365 12.3343V15.6895H103.917V12.2467C103.917 11.654 103.582 11.3036 103.025 11.3036C102.453 11.3036 102.066 11.7365 102.066 12.355V15.6895H100.562Z" fill="white"/>
<path d="M99.4529 15.6889H97.8965V8.25195H99.4529V15.6889Z" fill="white"/>
<path d="M154.476 28.0264H155.359L155.289 30.8771H154.546L154.476 28.0264ZM154.918 32.3497C154.65 32.3497 154.438 32.1464 154.438 31.8873C154.438 31.6281 154.65 31.4249 154.918 31.4249C155.186 31.4249 155.398 31.6281 155.398 31.8873C155.398 32.1464 155.186 32.3497 154.918 32.3497Z" fill="white"/>
<path d="M152.803 32.276V28.0264H153.663V32.276H152.803Z" fill="white"/>
<path d="M152.223 29.1182V32.2752H151.393V31.7068H151.375C151.219 32.1044 150.907 32.3341 150.43 32.3341C149.747 32.3341 149.293 31.8894 149.293 31.1532V29.1182H150.153V30.9735C150.153 31.3947 150.362 31.6185 150.742 31.6185C151.125 31.6185 151.363 31.3446 151.363 30.9264V29.1182H152.223Z" fill="white"/>
<path d="M147.387 32.2753V29.7661H146.957V29.1329H147.387V28.8944C147.387 28.2759 147.679 27.9873 148.427 27.9873C148.586 27.9873 148.765 28.005 148.865 28.0256V28.594C148.804 28.5822 148.718 28.5763 148.633 28.5763C148.35 28.5763 148.226 28.7 148.226 28.9238V29.1329H148.854V29.7661H148.247V32.2753H147.387Z" fill="white"/>
<path d="M143.995 30.0462C143.995 29.4454 144.516 29.0508 145.326 29.0508C146.118 29.0508 146.633 29.4513 146.645 30.0639H145.853C145.835 29.8106 145.632 29.6545 145.314 29.6545C145.016 29.6545 144.822 29.79 144.822 29.9932C144.822 30.1493 144.958 30.2553 145.234 30.3201L145.838 30.4497C146.471 30.591 146.728 30.8414 146.728 31.3126C146.728 31.934 146.156 32.3433 145.323 32.3433C144.48 32.3433 143.962 31.9369 143.915 31.3214H144.754C144.796 31.5864 145.005 31.7396 145.346 31.7396C145.673 31.7396 145.871 31.61 145.871 31.4039C145.871 31.2448 145.765 31.1565 145.482 31.0887L144.899 30.9592C144.301 30.8237 143.995 30.5115 143.995 30.0462Z" fill="white"/>
<path d="M140.885 30.0462C140.885 29.4454 141.406 29.0508 142.216 29.0508C143.009 29.0508 143.524 29.4513 143.536 30.0639H142.743C142.726 29.8106 142.523 29.6545 142.205 29.6545C141.907 29.6545 141.713 29.79 141.713 29.9932C141.713 30.1493 141.848 30.2553 142.125 30.3201L142.729 30.4497C143.362 30.591 143.618 30.8414 143.618 31.3126C143.618 31.934 143.047 32.3433 142.213 32.3433C141.371 32.3433 140.853 31.9369 140.806 31.3214H141.645C141.686 31.5864 141.895 31.7396 142.237 31.7396C142.564 31.7396 142.761 31.61 142.761 31.4039C142.761 31.2448 142.655 31.1565 142.372 31.0887L141.789 30.9592C141.191 30.8237 140.885 30.5115 140.885 30.0462Z" fill="white"/>
<path d="M139.003 29.6869C138.626 29.6869 138.355 29.9726 138.326 30.3672H139.666C139.648 29.9637 139.386 29.6869 139.003 29.6869ZM139.677 31.3096H140.467C140.373 31.9281 139.807 32.3433 139.027 32.3433C138.055 32.3433 137.472 31.7219 137.472 30.7118C137.472 29.7046 138.061 29.0508 138.994 29.0508C139.913 29.0508 140.493 29.6722 140.493 30.6323V30.8944H138.317V30.9474C138.317 31.398 138.603 31.7072 139.041 31.7072C139.356 31.7072 139.598 31.5511 139.677 31.3096Z" fill="white"/>
<path d="M137.168 30.2936H136.37C136.32 29.9608 136.099 29.7252 135.745 29.7252C135.321 29.7252 135.056 30.0845 135.056 30.6941C135.056 31.3155 135.321 31.6689 135.748 31.6689C136.093 31.6689 136.317 31.4628 136.37 31.1182H137.171C137.127 31.8633 136.57 32.3433 135.74 32.3433C134.788 32.3433 134.185 31.7249 134.185 30.6941C134.185 29.681 134.788 29.0508 135.734 29.0508C136.588 29.0508 137.13 29.5779 137.168 30.2936Z" fill="white"/>
<path d="M133.882 30.2936H133.084C133.034 29.9608 132.813 29.7252 132.459 29.7252C132.035 29.7252 131.77 30.0845 131.77 30.6941C131.77 31.3155 132.035 31.6689 132.462 31.6689C132.807 31.6689 133.031 31.4628 133.084 31.1182H133.885C133.841 31.8633 133.284 32.3433 132.453 32.3433C131.502 32.3433 130.898 31.7249 130.898 30.6941C130.898 29.681 131.502 29.0508 132.448 29.0508C133.302 29.0508 133.843 29.5779 133.882 30.2936Z" fill="white"/>
<path d="M130.454 29.1182V32.2752H129.623V31.7068H129.606C129.449 32.1044 129.137 32.3341 128.66 32.3341C127.977 32.3341 127.523 31.8894 127.523 31.1532V29.1182H128.383V30.9735C128.383 31.3947 128.592 31.6185 128.972 31.6185C129.355 31.6185 129.594 31.3446 129.594 30.9264V29.1182H130.454Z" fill="white"/>
<path d="M124.374 30.0462C124.374 29.4454 124.896 29.0508 125.706 29.0508C126.498 29.0508 127.013 29.4513 127.025 30.0639H126.233C126.215 29.8106 126.012 29.6545 125.694 29.6545C125.396 29.6545 125.202 29.79 125.202 29.9932C125.202 30.1493 125.337 30.2553 125.614 30.3201L126.218 30.4497C126.851 30.591 127.107 30.8414 127.107 31.3126C127.107 31.934 126.536 32.3433 125.703 32.3433C124.86 32.3433 124.342 31.9369 124.295 31.3214H125.134C125.175 31.5864 125.385 31.7396 125.726 31.7396C126.053 31.7396 126.25 31.61 126.25 31.4039C126.25 31.2448 126.144 31.1565 125.862 31.0887L125.279 30.9592C124.681 30.8237 124.374 30.5115 124.374 30.0462Z" fill="white"/>
<path d="M119.758 32.2755V29.1185H120.588V29.681H120.606C120.774 29.2893 121.107 29.0596 121.593 29.0596C122.293 29.0596 122.688 29.5013 122.688 30.2405V32.2755H121.828V30.4202C121.828 30.0079 121.634 29.7723 121.248 29.7723C120.862 29.7723 120.618 30.055 120.618 30.4643V32.2755H119.758Z" fill="white"/>
<path d="M117.822 29.6869C117.445 29.6869 117.175 29.9726 117.145 30.3672H118.485C118.467 29.9637 118.205 29.6869 117.822 29.6869ZM118.497 31.3096H119.286C119.192 31.9281 118.626 32.3433 117.846 32.3433C116.874 32.3433 116.291 31.7219 116.291 30.7118C116.291 29.7046 116.88 29.0508 117.814 29.0508C118.732 29.0508 119.313 29.6722 119.313 30.6323V30.8944H117.136V30.9474C117.136 31.398 117.422 31.7072 117.861 31.7072C118.176 31.7072 118.417 31.5511 118.497 31.3096Z" fill="white"/>
<path d="M114.471 29.6869C114.094 29.6869 113.823 29.9726 113.794 30.3672H115.133C115.116 29.9637 114.854 29.6869 114.471 29.6869ZM115.145 31.3096H115.935C115.84 31.9281 115.275 32.3433 114.494 32.3433C113.523 32.3433 112.939 31.7219 112.939 30.7118C112.939 29.7046 113.528 29.0508 114.462 29.0508C115.381 29.0508 115.961 29.6722 115.961 30.6323V30.8944H113.785V30.9474C113.785 31.398 114.07 31.7072 114.509 31.7072C114.824 31.7072 115.066 31.5511 115.145 31.3096Z" fill="white"/>
<path d="M111.326 32.3261C110.864 32.3261 110.51 32.1023 110.337 31.7341H110.319V32.276H109.471V28.0264H110.331V29.6667H110.348C110.522 29.2927 110.873 29.0689 111.323 29.0689C112.118 29.0689 112.607 29.6785 112.607 30.6975C112.607 31.7135 112.121 32.3261 111.326 32.3261ZM111.029 29.758C110.613 29.758 110.328 30.1321 110.328 30.6975C110.328 31.2688 110.61 31.634 111.029 31.634C111.459 31.634 111.727 31.2747 111.727 30.6975C111.727 30.1232 111.456 29.758 111.029 29.758Z" fill="white"/>
<path d="M105.091 30.0462C105.091 29.4454 105.613 29.0508 106.422 29.0508C107.215 29.0508 107.73 29.4513 107.742 30.0639H106.95C106.932 29.8106 106.729 29.6545 106.411 29.6545C106.113 29.6545 105.919 29.79 105.919 29.9932C105.919 30.1493 106.054 30.2553 106.331 30.3201L106.935 30.4497C107.568 30.591 107.824 30.8414 107.824 31.3126C107.824 31.934 107.253 32.3433 106.419 32.3433C105.577 32.3433 105.059 31.9369 105.012 31.3214H105.851C105.892 31.5864 106.101 31.7396 106.443 31.7396C106.77 31.7396 106.967 31.61 106.967 31.4039C106.967 31.2448 106.861 31.1565 106.578 31.0887L105.995 30.9592C105.398 30.8237 105.091 30.5115 105.091 30.0462Z" fill="white"/>
<path d="M103.059 31.7042C103.433 31.7042 103.742 31.4598 103.742 31.1182V30.8885L103.076 30.9297C102.755 30.9533 102.573 31.0976 102.573 31.3214C102.573 31.557 102.767 31.7042 103.059 31.7042ZM102.776 32.3256C102.175 32.3256 101.719 31.9369 101.719 31.3685C101.719 30.7942 102.161 30.4614 102.947 30.4143L103.742 30.3672V30.1581C103.742 29.8636 103.536 29.6928 103.212 29.6928C102.891 29.6928 102.688 29.8518 102.646 30.0845H101.86C101.893 29.4719 102.414 29.0508 103.25 29.0508C104.06 29.0508 104.587 29.469 104.587 30.1051V32.2756H103.757V31.7926H103.739C103.562 32.1283 103.171 32.3256 102.776 32.3256Z" fill="white"/>
<path d="M98.332 32.276V28.0264H99.1773V29.6815H99.1949C99.3628 29.2839 99.7074 29.0601 100.187 29.0601C100.888 29.0601 101.289 29.5136 101.289 30.244V32.276H100.429V30.4266C100.429 30.0201 100.229 29.7728 99.8369 29.7728C99.4305 29.7728 99.192 30.0584 99.192 30.4737V32.276H98.332Z" fill="white"/>
<path d="M146.033 20.8516H146.893V21.579H147.476V22.2269H146.893V23.7377C146.893 23.9792 147.01 24.094 147.264 24.094C147.34 24.094 147.42 24.0881 147.473 24.0793V24.7125C147.384 24.7331 147.237 24.7478 147.063 24.7478C146.321 24.7478 146.033 24.5004 146.033 23.8849V22.2269H145.588V21.579H146.033V20.8516Z" fill="white"/>
<path d="M142.328 24.7365V21.5794H143.159V22.1419H143.176C143.344 21.7502 143.677 21.5205 144.163 21.5205C144.864 21.5205 145.258 21.9623 145.258 22.7015V24.7365H144.398V22.8811C144.398 22.4688 144.204 22.2332 143.818 22.2332C143.433 22.2332 143.188 22.5159 143.188 22.9253V24.7365H142.328Z" fill="white"/>
<path d="M140.393 22.1478C140.016 22.1478 139.745 22.4335 139.715 22.8281H141.055C141.038 22.4247 140.776 22.1478 140.393 22.1478ZM141.067 23.7705H141.856C141.762 24.389 141.197 24.8042 140.416 24.8042C139.444 24.8042 138.861 24.1829 138.861 23.1727C138.861 22.1655 139.45 21.5117 140.384 21.5117C141.303 21.5117 141.883 22.1331 141.883 23.0932V23.3553H139.707V23.4083C139.707 23.8589 139.992 24.1681 140.431 24.1681C140.746 24.1681 140.988 24.012 141.067 23.7705Z" fill="white"/>
<path d="M133.77 24.7365V21.5794H134.6V22.1507H134.618C134.75 21.7708 135.089 21.5205 135.519 21.5205C135.975 21.5205 136.293 21.7561 136.399 22.1684H136.417C136.558 21.7708 136.935 21.5205 137.398 21.5205C138.016 21.5205 138.431 21.9446 138.431 22.5807V24.7365H137.572V22.7957C137.572 22.4305 137.389 22.2303 137.056 22.2303C136.729 22.2303 136.514 22.4688 136.514 22.8193V24.7365H135.687V22.7692C135.687 22.4305 135.495 22.2303 135.177 22.2303C134.85 22.2303 134.629 22.4776 134.629 22.831V24.7365H133.77Z" fill="white"/>
<path d="M130.899 25.9053C130.869 25.9053 130.601 25.9024 130.575 25.8965V25.2339C130.601 25.2398 130.758 25.2398 130.79 25.2398C131.105 25.2398 131.261 25.1396 131.32 24.8893C131.32 24.8775 131.352 24.7509 131.347 24.7391L130.248 21.5791H131.193L131.865 24.047H131.88L132.551 21.5791H133.458L132.371 24.8068C132.1 25.6167 131.706 25.9053 130.899 25.9053Z" fill="white"/>
<path d="M128.428 24.1652C128.802 24.1652 129.111 23.9207 129.111 23.5791V23.3494L128.446 23.3906C128.125 23.4142 127.942 23.5585 127.942 23.7823C127.942 24.0179 128.136 24.1652 128.428 24.1652ZM128.145 24.7866C127.544 24.7866 127.088 24.3978 127.088 23.8294C127.088 23.2552 127.53 22.9224 128.316 22.8753L129.111 22.8281V22.619C129.111 22.3245 128.905 22.1537 128.581 22.1537C128.26 22.1537 128.057 22.3128 128.016 22.5454H127.229C127.262 21.9329 127.783 21.5117 128.619 21.5117C129.429 21.5117 129.956 21.9299 129.956 22.566V24.7365H129.126V24.2535H129.108C128.931 24.5893 128.54 24.7866 128.145 24.7866Z" fill="white"/>
<path d="M125.471 21.5293C126.272 21.5293 126.763 22.1389 126.763 23.1579C126.763 24.1739 126.275 24.7865 125.485 24.7865C125.026 24.7865 124.672 24.5627 124.505 24.2063H124.487V25.7672H123.627V21.5794H124.475V22.1301H124.493C124.664 21.759 125.014 21.5293 125.471 21.5293ZM125.182 24.0944C125.612 24.0944 125.883 23.7322 125.883 23.1579C125.883 22.5866 125.612 22.2184 125.182 22.2184C124.761 22.2184 124.484 22.5924 124.484 23.1579C124.484 23.7292 124.761 24.0944 125.182 24.0944Z" fill="white"/>
<path d="M120.496 22.1478C120.119 22.1478 119.848 22.4335 119.819 22.8281H121.159C121.141 22.4247 120.879 22.1478 120.496 22.1478ZM121.171 23.7705H121.96C121.866 24.389 121.3 24.8042 120.52 24.8042C119.548 24.8042 118.965 24.1829 118.965 23.1727C118.965 22.1655 119.554 21.5117 120.487 21.5117C121.406 21.5117 121.986 22.1331 121.986 23.0932V23.3553H119.81V23.4083C119.81 23.8589 120.096 24.1681 120.535 24.1681C120.85 24.1681 121.091 24.012 121.171 23.7705Z" fill="white"/>
<path d="M115.572 24.736V20.4863H116.417V22.1414H116.435C116.603 21.7439 116.948 21.52 117.428 21.52C118.129 21.52 118.529 21.9736 118.529 22.7039V24.736H117.669V22.8865C117.669 22.4801 117.469 22.2327 117.077 22.2327C116.671 22.2327 116.432 22.5184 116.432 22.9336V24.736H115.572Z" fill="white"/>
<path d="M113.638 20.8516H114.498V21.579H115.081V22.2269H114.498V23.7377C114.498 23.9792 114.616 24.094 114.869 24.094C114.946 24.094 115.025 24.0881 115.078 24.0793V24.7125C114.99 24.7331 114.843 24.7478 114.669 24.7478C113.927 24.7478 113.638 24.5004 113.638 23.8849V22.2269H113.193V21.579H113.638V20.8516Z" fill="white"/>
<path d="M110.015 24.7364V21.5794H110.845V22.1478H110.863C110.975 21.7472 111.243 21.5293 111.614 21.5293C111.714 21.5293 111.799 21.544 111.858 21.5617V22.3186C111.788 22.2891 111.67 22.2685 111.546 22.2685C111.122 22.2685 110.875 22.5277 110.875 22.9724V24.7364H110.015Z" fill="white"/>
<path d="M108.08 22.1478C107.703 22.1478 107.432 22.4335 107.403 22.8281H108.743C108.725 22.4247 108.463 22.1478 108.08 22.1478ZM108.755 23.7705H109.544C109.45 24.389 108.884 24.8042 108.104 24.8042C107.132 24.8042 106.549 24.1829 106.549 23.1727C106.549 22.1655 107.138 21.5117 108.071 21.5117C108.99 21.5117 109.57 22.1331 109.57 23.0932V23.3553H107.394V23.4083C107.394 23.8589 107.68 24.1681 108.119 24.1681C108.434 24.1681 108.675 24.012 108.755 23.7705Z" fill="white"/>
<path d="M104.796 20.8516H105.656V21.579H106.239V22.2269H105.656V23.7377C105.656 23.9792 105.774 24.094 106.027 24.094C106.104 24.094 106.183 24.0881 106.236 24.0793V24.7125C106.148 24.7331 106.001 24.7478 105.827 24.7478C105.085 24.7478 104.796 24.5004 104.796 23.8849V22.2269H104.352V21.579H104.796V20.8516Z" fill="white"/>
<path d="M102.647 24.7362V22.227H102.217V21.5939H102.647V21.3553C102.647 20.7369 102.938 20.4482 103.686 20.4482C103.845 20.4482 104.025 20.4659 104.125 20.4865V21.0549C104.063 21.0431 103.978 21.0372 103.893 21.0372C103.61 21.0372 103.486 21.1609 103.486 21.3848V21.5939H104.113V22.227H103.507V24.7362H102.647Z" fill="white"/>
<path d="M101.168 24.736L100.844 23.7052H99.3512L99.0272 24.736H98.1143L99.5897 20.4863H100.635L102.114 24.736H101.168ZM100.087 21.2992L99.5426 23.0397H100.653L100.108 21.2992H100.087Z" fill="white"/>
<g clip-path="url(#clip0_2099_4351)">
<path d="M91.3158 24.5621C91.1256 24.3719 90.8675 24.265 90.5985 24.265C90.3295 24.265 90.0715 24.3719 89.8812 24.5621L84.1723 30.272L81.4452 27.5804C81.2568 27.3873 80.9995 27.277 80.7298 27.2737C80.4601 27.2703 80.2001 27.3743 80.007 27.5626C79.814 27.751 79.7036 28.0083 79.7003 28.278C79.697 28.5477 79.8009 28.8077 79.9893 29.0008L82.7732 31.7401C82.9479 31.9283 83.1588 32.0793 83.3933 32.1839C83.6278 32.2886 83.8811 32.3446 84.1378 32.3488H84.1713C84.423 32.3496 84.6723 32.3005 84.9048 32.2041C85.1373 32.1078 85.3484 31.9663 85.5257 31.7878L91.3158 25.9966C91.506 25.8064 91.6129 25.5484 91.6129 25.2794C91.6129 25.0103 91.506 24.7523 91.3158 24.5621ZM78.5151 30.2781C76.5561 30.0991 74.6913 29.3544 73.1478 28.1346C71.6044 26.9149 70.4488 25.2727 69.8219 23.4081C69.1949 21.5434 69.1235 19.5367 69.6165 17.6323C70.1095 15.7278 71.1455 14.0077 72.5984 12.6814C74.0513 11.3552 75.8585 10.4799 77.7999 10.1622C79.7413 9.84448 81.7332 10.0981 83.5331 10.892C85.333 11.686 86.8632 12.9861 87.9375 14.6341C89.0118 16.2821 89.5839 18.2069 89.584 20.1741C89.584 20.4856 89.5687 20.794 89.5424 21.0984C89.53 21.2314 89.5439 21.3655 89.5835 21.4931C89.6231 21.6208 89.6875 21.7393 89.773 21.8419C89.8585 21.9446 89.9634 22.0294 90.0817 22.0914C90.2001 22.1534 90.3295 22.1914 90.4626 22.2032C90.5956 22.2166 90.7299 22.2033 90.8576 22.164C90.9854 22.1248 91.104 22.0604 91.2066 21.9747C91.3091 21.889 91.3935 21.7836 91.4548 21.6649C91.516 21.5461 91.553 21.4163 91.5634 21.283C91.5958 20.9147 91.6131 20.5464 91.6131 20.1741C91.613 17.8133 90.9265 15.5035 89.6372 13.5259C88.348 11.5483 86.5116 9.98811 84.3516 9.03541C82.1916 8.08271 79.8012 7.77854 77.4714 8.15995C75.1417 8.54135 72.9731 9.59188 71.2296 11.1836C69.4862 12.7754 68.2431 14.8396 67.6518 17.1251C67.0605 19.4107 67.1464 21.8188 67.899 24.0563C68.6517 26.2939 70.0387 28.2644 71.8911 29.7278C73.7436 31.1913 75.9815 32.0847 78.3325 32.2991C78.364 32.2991 78.3944 32.2991 78.4248 32.2991C78.6939 32.3111 78.9567 32.2157 79.1555 32.0339C79.3542 31.8521 79.4726 31.5988 79.4845 31.3297C79.4965 31.0606 79.4011 30.7978 79.2193 30.5991C79.0375 30.4003 78.7842 30.2819 78.5151 30.27V30.2781ZM78.4238 15.1013V19.7541L75.6774 22.5005C75.5805 22.5941 75.5032 22.706 75.45 22.8298C75.3969 22.9536 75.3689 23.0867 75.3677 23.2214C75.3665 23.3561 75.3922 23.4897 75.4432 23.6144C75.4942 23.7391 75.5696 23.8524 75.6648 23.9476C75.7601 24.0429 75.8734 24.1182 75.9981 24.1692C76.1227 24.2203 76.2563 24.2459 76.3911 24.2448C76.5258 24.2436 76.6589 24.2156 76.7827 24.1624C76.9065 24.1093 77.0184 24.032 77.112 23.9351L80.1557 20.8914C80.346 20.7012 80.4529 20.4432 80.4529 20.1741V15.1013C80.4529 14.8322 80.346 14.5742 80.1558 14.3839C79.9655 14.1936 79.7075 14.0867 79.4384 14.0867C79.1693 14.0867 78.9112 14.1936 78.721 14.3839C78.5307 14.5742 78.4238 14.8322 78.4238 15.1013Z" fill="white"/>
</g>
<defs>
<clipPath id="clip0_2099_4351">
<rect width="24.3494" height="24.3494" fill="white" transform="translate(67.2637 8)"/>
</clipPath>
</defs>
</svg>
