<svg width="143" height="40" viewBox="0 0 143 40" fill="none" xmlns="http://www.w3.org/2000/svg">
<rect width="142.393" height="39.2855" rx="8" fill="#00B57A"/>
<path d="M44.5545 23.6846H46.3464V25.2003H47.5614V26.5503H46.3464V29.6983C46.3464 30.2015 46.5918 30.4408 47.1196 30.4408C47.2791 30.4408 47.4448 30.4285 47.5553 30.4101V31.7294C47.3712 31.7724 47.0643 31.8031 46.7023 31.8031C45.1559 31.8031 44.5545 31.2876 44.5545 30.0051V26.5503H43.6279V25.2003H44.5545V23.6846Z" fill="white"/>
<path d="M39.7315 30.5885C40.5109 30.5885 41.1552 30.0792 41.1552 29.3674V28.8887L39.7684 28.9746C39.0995 29.0237 38.719 29.3244 38.719 29.7908C38.719 30.2817 39.124 30.5885 39.7315 30.5885ZM39.1424 31.8833C37.8906 31.8833 36.9395 31.0733 36.9395 29.889C36.9395 28.6923 37.8599 27.9989 39.4984 27.9007L41.1552 27.8026V27.3669C41.1552 26.7532 40.7256 26.3973 40.0506 26.3973C39.3818 26.3973 38.9583 26.7287 38.8724 27.2135H37.234C37.3015 25.9371 38.3877 25.0596 40.1304 25.0596C41.8179 25.0596 42.9163 25.9309 42.9163 27.2564V31.779H41.1859V30.7726H41.1491C40.7809 31.4722 39.9647 31.8833 39.1424 31.8833Z" fill="white"/>
<path d="M26.3418 31.7791V25.2009H28.0723V26.3913H28.1091C28.3852 25.5997 29.0909 25.0781 29.9868 25.0781C30.938 25.0781 31.6007 25.569 31.8216 26.4281H31.8585C32.153 25.5997 32.9385 25.0781 33.9019 25.0781C35.1905 25.0781 36.0558 25.9618 36.0558 27.2872V31.7791H34.2639V27.7352C34.2639 26.9743 33.8835 26.557 33.1901 26.557C32.5089 26.557 32.061 27.0541 32.061 27.7843V31.7791H30.3366V27.68C30.3366 26.9743 29.9378 26.557 29.275 26.557C28.5939 26.557 28.1336 27.0725 28.1336 27.8088V31.7791H26.3418Z" fill="white"/>
<path d="M21.7637 31.7793V25.201H23.4941V26.3853H23.531C23.7642 25.5508 24.3226 25.0967 25.0958 25.0967C25.3044 25.0967 25.4824 25.1274 25.6051 25.1642V26.7412C25.4578 26.6799 25.2124 26.6369 24.9546 26.6369C24.071 26.6369 23.5555 27.1769 23.5555 28.1035V31.7793H21.7637Z" fill="white"/>
<path d="M17.5788 31.9201C15.5906 31.9201 14.3203 30.6437 14.3203 28.4837C14.3203 26.3544 15.609 25.0596 17.5788 25.0596C19.5486 25.0596 20.8372 26.3482 20.8372 28.4837C20.8372 30.6499 19.567 31.9201 17.5788 31.9201ZM17.5788 30.5517C18.4563 30.5517 19.0147 29.8092 19.0147 28.4898C19.0147 27.1828 18.4501 26.428 17.5788 26.428C16.7074 26.428 16.1367 27.1828 16.1367 28.4898C16.1367 29.8092 16.6951 30.5517 17.5788 30.5517Z" fill="white"/>
<path d="M9.85321 31.7787H8V22.9238H13.7989V24.4518H9.85321V26.8266H13.4553V28.2932H9.85321V31.7787Z" fill="white"/>
<path d="M42.5418 8.76074H44.3337V10.2764H45.5487V11.6265H44.3337V14.7745C44.3337 15.2776 44.5791 15.517 45.1069 15.517C45.2664 15.517 45.4321 15.5047 45.5426 15.4863V16.8056C45.3585 16.8486 45.0516 16.8793 44.6896 16.8793C43.1432 16.8793 42.5418 16.3638 42.5418 15.0813V11.6265H41.6152V10.2764H42.5418V8.76074Z" fill="white"/>
<path d="M37.4854 16.8554V10.2772H39.2158V11.4615H39.2526C39.4858 10.6269 40.0442 10.1729 40.8174 10.1729C41.0261 10.1729 41.204 10.2035 41.3268 10.2404V11.8174C41.1795 11.7561 40.934 11.7131 40.6763 11.7131C39.7927 11.7131 39.2772 12.2531 39.2772 13.1797V16.8554H37.4854Z" fill="white"/>
<path d="M33.3004 16.9963C31.3122 16.9963 30.042 15.7199 30.042 13.5599C30.042 11.4305 31.3306 10.1357 33.3004 10.1357C35.2702 10.1357 36.5589 11.4244 36.5589 13.5599C36.5589 15.726 35.2887 16.9963 33.3004 16.9963ZM33.3004 15.6279C34.178 15.6279 34.7364 14.8853 34.7364 13.566C34.7364 12.259 34.1718 11.5042 33.3004 11.5042C32.4291 11.5042 31.8584 12.259 31.8584 13.566C31.8584 14.8853 32.4168 15.6279 33.3004 15.6279Z" fill="white"/>
<path d="M26.6607 10.1729C28.3299 10.1729 29.3546 11.4431 29.3546 13.5663C29.3546 15.6834 28.336 16.9598 26.6914 16.9598C25.7341 16.9598 24.9978 16.4934 24.648 15.7509H24.6112V19.0032H22.8193V10.2772H24.5866V11.4247H24.6235C24.9794 10.6515 25.7096 10.1729 26.6607 10.1729ZM26.0594 15.5177C26.9553 15.5177 27.5199 14.7629 27.5199 13.5663C27.5199 12.3758 26.9553 11.6088 26.0594 11.6088C25.1819 11.6088 24.605 12.3881 24.605 13.5663C24.605 14.7568 25.1819 15.5177 26.0594 15.5177Z" fill="white"/>
<path d="M18.7876 11.4612C18.0022 11.4612 17.4376 12.0564 17.3762 12.8787H20.1683C20.1315 12.038 19.5854 11.4612 18.7876 11.4612ZM20.1929 14.8424H21.8374C21.6411 16.131 20.4629 16.9963 18.8367 16.9963C16.8117 16.9963 15.5967 15.7015 15.5967 13.5967C15.5967 11.498 16.824 10.1357 18.7692 10.1357C20.6838 10.1357 21.8927 11.4305 21.8927 13.431V13.9772H17.3578V14.0876C17.3578 15.0265 17.9531 15.6708 18.8674 15.6708C19.524 15.6708 20.0272 15.3456 20.1929 14.8424Z" fill="white"/>
<path d="M9.85321 9.4482V12.271H11.4487C12.3814 12.271 12.9276 11.7371 12.9276 10.8596C12.9276 10.0005 12.3507 9.4482 11.4303 9.4482H9.85321ZM9.85321 13.6148V16.8549H8V8H11.6266C13.6639 8 14.8299 9.07388 14.8299 10.8228C14.8299 11.958 14.2408 12.9398 13.2221 13.3387L15.0876 16.8549H12.9889L11.3382 13.6148H9.85321Z" fill="white"/>
<line x1="54.0615" y1="8" x2="54.0615" y2="32.3494" stroke="white"/>
<path d="M128.485 15.4467C127.141 15.4467 126.294 14.3837 126.294 12.6638C126.294 10.959 127.146 9.90101 128.495 9.90101C129.272 9.90101 129.874 10.3122 130.135 10.9089H130.165V8.12598H131.629V15.3615H130.185V14.4389H130.16C129.899 15.0306 129.277 15.4467 128.485 15.4467ZM128.982 11.0743C128.244 11.0743 127.793 11.6911 127.793 12.6739C127.793 13.6617 128.244 14.2684 128.982 14.2684C129.709 14.2684 130.175 13.6567 130.175 12.6739C130.175 11.6961 129.709 11.0743 128.982 11.0743Z" fill="white"/>
<path d="M122.93 15.3609V9.98563H124.344V10.9534H124.374C124.564 10.2714 125.021 9.90039 125.652 9.90039C125.823 9.90039 125.968 9.92546 126.069 9.95555V11.2442C125.948 11.1941 125.748 11.159 125.537 11.159C124.815 11.159 124.394 11.6002 124.394 12.3574V15.3609H122.93Z" fill="white"/>
<path d="M119.379 14.3879C120.016 14.3879 120.542 13.9717 120.542 13.3901V12.999L119.409 13.0692C118.863 13.1093 118.552 13.355 118.552 13.7361C118.552 14.1372 118.883 14.3879 119.379 14.3879ZM118.898 15.4459C117.875 15.4459 117.098 14.784 117.098 13.8163C117.098 12.8385 117.85 12.2719 119.189 12.1917L120.542 12.1115V11.7555C120.542 11.254 120.191 10.9632 119.64 10.9632C119.093 10.9632 118.747 11.234 118.677 11.6301H117.338C117.393 10.5871 118.281 9.87012 119.705 9.87012C121.084 9.87012 121.982 10.5821 121.982 11.6652V15.3607H120.567V14.5384H120.537C120.237 15.11 119.57 15.4459 118.898 15.4459Z" fill="white"/>
<path d="M113.181 15.4467C111.838 15.4467 110.99 14.3837 110.99 12.6638C110.99 10.959 111.843 9.90101 113.191 9.90101C113.969 9.90101 114.57 10.3122 114.831 10.9089H114.861V8.12598H116.325V15.3615H114.881V14.4389H114.856C114.595 15.0306 113.974 15.4467 113.181 15.4467ZM113.678 11.0743C112.941 11.0743 112.489 11.6911 112.489 12.6739C112.489 13.6617 112.941 14.2684 113.678 14.2684C114.405 14.2684 114.871 13.6567 114.871 12.6739C114.871 11.6961 114.405 11.0743 113.678 11.0743Z" fill="white"/>
<path d="M105.269 15.3613V9.98603H106.683V10.9437H106.713C106.998 10.2769 107.565 9.88574 108.392 9.88574C109.586 9.88574 110.258 10.6379 110.258 11.8964V15.3613H108.794V12.2023C108.794 11.5003 108.463 11.0992 107.806 11.0992C107.149 11.0992 106.733 11.5805 106.733 12.2775V15.3613H105.269Z" fill="white"/>
<path d="M101.719 14.3879C102.356 14.3879 102.882 13.9717 102.882 13.3901V12.999L101.749 13.0692C101.203 13.1093 100.892 13.355 100.892 13.7361C100.892 14.1372 101.223 14.3879 101.719 14.3879ZM101.238 15.4459C100.215 15.4459 99.4375 14.784 99.4375 13.8163C99.4375 12.8385 100.19 12.2719 101.528 12.1917L102.882 12.1115V11.7555C102.882 11.254 102.531 10.9632 101.98 10.9632C101.433 10.9632 101.087 11.234 101.017 11.6301H99.6782C99.7333 10.5871 100.621 9.87012 102.045 9.87012C103.424 9.87012 104.321 10.5821 104.321 11.6652V15.3607H102.907V14.5384H102.877C102.576 15.11 101.91 15.4459 101.238 15.4459Z" fill="white"/>
<path d="M96.4339 8.74707H97.8981V9.98558H98.8909V11.0887H97.8981V13.661C97.8981 14.0722 98.0986 14.2677 98.5298 14.2677C98.6602 14.2677 98.7956 14.2577 98.8859 14.2426V15.3207C98.7354 15.3558 98.4847 15.3809 98.1889 15.3809C96.9253 15.3809 96.4339 14.9597 96.4339 13.9117V11.0887H95.6768V9.98558H96.4339V8.74707Z" fill="white"/>
<path d="M89.4092 13.3H90.8683C90.9385 13.8967 91.5603 14.2878 92.3626 14.2878C93.1698 14.2878 93.7214 13.9017 93.7214 13.3702C93.7214 12.8989 93.3754 12.6381 92.503 12.4426L91.5603 12.237C90.2265 11.9512 89.5696 11.2743 89.5696 10.2163C89.5696 8.8825 90.7229 8 92.3375 8C94.0223 8 95.0803 8.86746 95.1053 10.1762H93.6863C93.6362 9.56444 93.0996 9.19338 92.3425 9.19338C91.5954 9.19338 91.094 9.54939 91.094 10.0859C91.094 10.5322 91.445 10.7829 92.2773 10.9734L93.1548 11.159C94.6039 11.4698 95.2357 12.0916 95.2357 13.1947C95.2357 14.5987 94.0975 15.4862 92.3024 15.4862C90.5624 15.4862 89.4543 14.6589 89.4092 13.3Z" fill="white"/>
<path d="M106.49 27.7188H107.327V28.4265H107.894V29.0568H107.327V30.5267C107.327 30.7617 107.442 30.8734 107.688 30.8734C107.762 30.8734 107.84 30.8677 107.891 30.8591V31.4751C107.805 31.4952 107.662 31.5095 107.493 31.5095C106.771 31.5095 106.49 31.2688 106.49 30.67V29.0568H106.058V28.4265H106.49V27.7188Z" fill="white"/>
<path d="M104.238 30.9429C104.602 30.9429 104.903 30.7051 104.903 30.3727V30.1493L104.255 30.1894C103.943 30.2123 103.765 30.3527 103.765 30.5704C103.765 30.7997 103.955 30.9429 104.238 30.9429ZM103.963 31.5475C103.379 31.5475 102.935 31.1693 102.935 30.6163C102.935 30.0576 103.364 29.7338 104.129 29.6879L104.903 29.6421V29.4387C104.903 29.1521 104.702 28.986 104.387 28.986C104.075 28.986 103.877 29.1407 103.837 29.367H103.072C103.104 28.7711 103.611 28.3613 104.425 28.3613C105.212 28.3613 105.725 28.7682 105.725 29.3871V31.4988H104.917V31.0289H104.9C104.728 31.3555 104.347 31.5475 103.963 31.5475Z" fill="white"/>
<path d="M97.9863 31.498V28.4264H98.7943V28.9823H98.8115C98.9405 28.6127 99.27 28.3691 99.6883 28.3691C100.132 28.3691 100.442 28.5984 100.545 28.9995H100.562C100.7 28.6127 101.066 28.3691 101.516 28.3691C102.118 28.3691 102.522 28.7817 102.522 29.4006V31.498H101.685V29.6098C101.685 29.2545 101.508 29.0597 101.184 29.0597C100.866 29.0597 100.657 29.2918 100.657 29.6327V31.498H99.8516V29.584C99.8516 29.2545 99.6654 29.0597 99.3559 29.0597C99.0379 29.0597 98.823 29.3004 98.823 29.6442V31.498H97.9863Z" fill="white"/>
<path d="M95.8486 31.4982V28.4266H96.6566V28.9796H96.6738C96.7827 28.59 97.0434 28.3779 97.4045 28.3779C97.5019 28.3779 97.585 28.3923 97.6423 28.4094V29.1458C97.5735 29.1172 97.4589 29.0971 97.3386 29.0971C96.926 29.0971 96.6853 29.3493 96.6853 29.7819V31.4982H95.8486Z" fill="white"/>
<path d="M93.8945 31.5647C92.9662 31.5647 92.373 30.9687 92.373 29.9601C92.373 28.9659 92.9748 28.3613 93.8945 28.3613C94.8143 28.3613 95.416 28.963 95.416 29.9601C95.416 30.9716 94.8228 31.5647 93.8945 31.5647ZM93.8945 30.9257C94.3042 30.9257 94.565 30.579 94.565 29.963C94.565 29.3527 94.3014 29.0003 93.8945 29.0003C93.4876 29.0003 93.2212 29.3527 93.2212 29.963C93.2212 30.579 93.4819 30.9257 93.8945 30.9257Z" fill="white"/>
<path d="M90.2872 31.4979H89.4219V27.3633H92.1296V28.0767H90.2872V29.1856H91.9691V29.8704H90.2872V31.4979Z" fill="white"/>
<path d="M136.845 20.3838H137.681V21.0915H138.249V21.7219H137.681V23.1917C137.681 23.4267 137.796 23.5384 138.042 23.5384C138.117 23.5384 138.194 23.5327 138.246 23.5241V24.1402C138.16 24.1602 138.017 24.1745 137.848 24.1745C137.126 24.1745 136.845 23.9339 136.845 23.335V21.7219H136.412V21.0915H136.845V20.3838Z" fill="white"/>
<path d="M133.24 24.163V21.0915H134.048V21.6388H134.065C134.229 21.2577 134.553 21.0342 135.025 21.0342C135.707 21.0342 136.091 21.464 136.091 22.1832V24.163H135.255V22.3579C135.255 21.9568 135.065 21.7276 134.69 21.7276C134.315 21.7276 134.077 22.0026 134.077 22.4009V24.163H133.24Z" fill="white"/>
<path d="M131.358 21.6443C130.991 21.6443 130.728 21.9222 130.699 22.3062H132.003C131.986 21.9136 131.731 21.6443 131.358 21.6443ZM132.014 23.223H132.782C132.69 23.8248 132.14 24.2288 131.381 24.2288C130.435 24.2288 129.868 23.6242 129.868 22.6414C129.868 21.6615 130.441 21.0254 131.35 21.0254C132.243 21.0254 132.808 21.63 132.808 22.564V22.819H130.69V22.8706C130.69 23.309 130.968 23.6099 131.395 23.6099C131.702 23.6099 131.937 23.458 132.014 23.223Z" fill="white"/>
<path d="M124.913 24.163V21.0915H125.721V21.6473H125.738C125.867 21.2777 126.197 21.0342 126.615 21.0342C127.059 21.0342 127.369 21.2634 127.472 21.6645H127.489C127.626 21.2777 127.993 21.0342 128.443 21.0342C129.045 21.0342 129.449 21.4468 129.449 22.0657V24.163H128.612V22.2748C128.612 21.9195 128.434 21.7247 128.111 21.7247C127.793 21.7247 127.584 21.9568 127.584 22.2978V24.163H126.778V22.2491C126.778 21.9195 126.592 21.7247 126.283 21.7247C125.965 21.7247 125.75 21.9654 125.75 22.3092V24.163H124.913Z" fill="white"/>
<path d="M124.369 21.0918V24.1634H123.561V23.6104H123.544C123.392 23.9972 123.089 24.2207 122.625 24.2207C121.96 24.2207 121.519 23.788 121.519 23.0717V21.0918H122.355V22.8969C122.355 23.3066 122.559 23.5244 122.928 23.5244C123.301 23.5244 123.533 23.2579 123.533 22.8511V21.0918H124.369Z" fill="white"/>
<path d="M121.126 22.2345H120.35C120.301 21.9108 120.086 21.6815 119.742 21.6815C119.33 21.6815 119.072 22.0311 119.072 22.6242C119.072 23.2288 119.33 23.5726 119.745 23.5726C120.08 23.5726 120.298 23.372 120.35 23.0368H121.129C121.086 23.7617 120.544 24.2288 119.736 24.2288C118.811 24.2288 118.224 23.6271 118.224 22.6242C118.224 21.6386 118.811 21.0254 119.731 21.0254C120.562 21.0254 121.089 21.5383 121.126 22.2345Z" fill="white"/>
<path d="M116.381 24.2288C115.452 24.2288 114.859 23.6328 114.859 22.6242C114.859 21.63 115.461 21.0254 116.381 21.0254C117.301 21.0254 117.902 21.6271 117.902 22.6242C117.902 23.6356 117.309 24.2288 116.381 24.2288ZM116.381 23.5898C116.791 23.5898 117.051 23.2431 117.051 22.6271C117.051 22.0168 116.788 21.6643 116.381 21.6643C115.974 21.6643 115.707 22.0168 115.707 22.6271C115.707 23.2431 115.968 23.5898 116.381 23.5898Z" fill="white"/>
<path d="M110.934 20.0283H112.512C113.753 20.0283 114.484 20.7676 114.484 22.0799C114.484 23.3921 113.753 24.1629 112.512 24.1629H110.934V20.0283ZM111.799 20.7418V23.4466H112.409C113.183 23.4466 113.601 22.9767 113.601 22.0827C113.601 21.2174 113.171 20.7418 112.409 20.7418H111.799Z" fill="white"/>
<path d="M107.817 21.6443C107.45 21.6443 107.187 21.9222 107.158 22.3062H108.462C108.445 21.9136 108.19 21.6443 107.817 21.6443ZM108.473 23.223H109.241C109.149 23.8248 108.599 24.2288 107.84 24.2288C106.894 24.2288 106.327 23.6242 106.327 22.6414C106.327 21.6615 106.9 21.0254 107.808 21.0254C108.702 21.0254 109.267 21.63 109.267 22.564V22.819H107.149V22.8706C107.149 23.309 107.427 23.6099 107.854 23.6099C108.161 23.6099 108.396 23.458 108.473 23.223Z" fill="white"/>
<path d="M105.037 24.1629V20.0283H105.874V24.1629H105.037Z" fill="white"/>
<path d="M103.335 24.2116C102.886 24.2116 102.542 23.9938 102.373 23.6357H102.355V24.1629H101.53V20.0283H102.367V21.6243H102.384C102.553 21.2604 102.894 21.0426 103.333 21.0426C104.106 21.0426 104.582 21.6357 104.582 22.6271C104.582 23.6156 104.109 24.2116 103.335 24.2116ZM103.046 21.7131C102.642 21.7131 102.364 22.077 102.364 22.6271C102.364 23.183 102.639 23.5383 103.046 23.5383C103.464 23.5383 103.725 23.1887 103.725 22.6271C103.725 22.0684 103.461 21.7131 103.046 21.7131Z" fill="white"/>
<path d="M99.4814 23.607C99.8453 23.607 100.146 23.3692 100.146 23.0368V22.8133L99.4986 22.8534C99.1863 22.8764 99.0087 23.0168 99.0087 23.2345C99.0087 23.4637 99.1978 23.607 99.4814 23.607ZM99.2064 24.2116C98.6219 24.2116 98.1777 23.8334 98.1777 23.2804C98.1777 22.7216 98.6075 22.3979 99.3726 22.352L100.146 22.3062V22.1027C100.146 21.8162 99.9456 21.65 99.6304 21.65C99.3181 21.65 99.1204 21.8047 99.0803 22.0311H98.3153C98.3468 21.4351 98.8539 21.0254 99.6677 21.0254C100.456 21.0254 100.969 21.4323 100.969 22.0512V24.1629H100.16V23.693H100.143C99.9714 24.0196 99.5903 24.2116 99.2064 24.2116Z" fill="white"/>
<path d="M96.462 20.3838H97.2986V21.0915H97.8659V21.7219H97.2986V23.1917C97.2986 23.4267 97.4132 23.5384 97.6596 23.5384C97.7341 23.5384 97.8115 23.5327 97.8631 23.5241V24.1402C97.7771 24.1602 97.6338 24.1745 97.4648 24.1745C96.7427 24.1745 96.462 23.9339 96.462 23.335V21.7219H96.0293V21.0915H96.462V20.3838Z" fill="white"/>
<path d="M94.2842 24.2288C93.3558 24.2288 92.7627 23.6328 92.7627 22.6242C92.7627 21.63 93.3644 21.0254 94.2842 21.0254C95.2039 21.0254 95.8056 21.6271 95.8056 22.6242C95.8056 23.6356 95.2125 24.2288 94.2842 24.2288ZM94.2842 23.5898C94.6939 23.5898 94.9546 23.2431 94.9546 22.6271C94.9546 22.0168 94.691 21.6643 94.2842 21.6643C93.8773 21.6643 93.6108 22.0168 93.6108 22.6271C93.6108 23.2431 93.8716 23.5898 94.2842 23.5898Z" fill="white"/>
<path d="M89.4219 20.0283H91.1038C91.9519 20.0283 92.5364 20.5928 92.5364 21.4438C92.5364 22.2919 91.9318 22.8592 91.0608 22.8592H90.2872V24.1629H89.4219V20.0283ZM90.2872 20.7131V22.183H90.8717C91.3674 22.183 91.6568 21.9194 91.6568 21.4466C91.6568 20.9767 91.3703 20.7131 90.8746 20.7131H90.2872Z" fill="white"/>
<g clip-path="url(#clip0_2099_4297)">
<path d="M75.5645 23.9346C75.178 23.9113 74.2487 23.9664 73.3181 24.1432C72.7798 23.5983 72.3136 22.9119 71.9678 22.3458C73.0759 19.1596 72.3741 18.2539 71.4295 18.2539C70.6876 18.2539 70.3172 19.0368 70.3996 19.9018C70.4413 20.3372 70.8101 21.2521 71.264 22.1212C70.9855 22.8535 70.4886 24.0912 69.9954 24.987C69.418 25.1624 68.9228 25.3574 68.5674 25.5219C66.7971 26.3451 66.6549 27.4444 67.0232 27.9102C67.7226 28.795 69.2128 28.0316 70.7081 25.3574C71.7318 25.0663 73.0787 24.6784 73.2001 24.6784C73.2141 24.6784 73.2333 24.6829 73.2555 24.6901C74.0018 25.3481 74.8832 26.1016 75.6086 26.2008C76.6583 26.3451 77.2558 25.5838 77.2144 25.1104C77.1733 24.6367 76.8967 24.0146 75.5645 23.9346ZM68.9378 26.8191C68.5052 27.3336 67.8054 27.827 67.5584 27.6629C67.3111 27.4984 67.2701 27.025 67.8262 26.4895C68.382 25.9545 69.3123 25.6768 69.4522 25.6248C69.6174 25.5633 69.6585 25.6248 69.6585 25.7072C69.6585 25.7897 69.3701 26.3041 68.9378 26.8191ZM70.8323 19.9014C70.7909 19.3863 70.8935 18.8925 71.3261 18.8309C71.7581 18.7687 71.9644 19.2629 71.7998 20.0656C71.6349 20.8694 71.5522 21.404 71.4701 21.4666C71.3877 21.5281 71.3059 21.3219 71.3059 21.3219C71.1408 20.9921 70.8733 20.4158 70.8323 19.9014ZM70.9971 24.7397C71.2232 24.3685 71.7998 22.8664 71.7998 22.8664C71.9233 23.0931 72.8906 24.2451 72.8906 24.2451C72.8906 24.2451 71.4082 24.5752 70.9971 24.7397ZM75.4841 25.3977C74.8667 25.3163 73.8171 24.5741 73.8171 24.5741C73.6731 24.5126 74.9673 24.3368 75.4643 24.3686C76.1028 24.41 76.3292 24.6777 76.3292 24.9452C76.3292 25.213 76.1028 25.4802 75.4841 25.3977Z" fill="white"/>
<path d="M80.7929 12.9549L76.2669 8.42857L75.8383 8H75.2316H66.0014C63.8221 8 62.0491 9.77337 62.0491 11.9534V12.2558H61.4639V16.9839H62.0491V27.6109C62.0491 29.7906 63.8221 31.564 66.0015 31.564H77.2684C79.4484 31.564 81.2215 29.7906 81.2215 27.6109V13.9902V13.3838L80.7929 12.9549ZM77.2683 30.1001H66.0014C64.6265 30.1001 63.5122 28.9858 63.5122 27.6109V16.9839H70.7522V12.2558H63.5122V11.9534C63.5122 10.5781 64.6265 9.46345 66.0014 9.46345H74.8814V12.266C74.8814 13.4114 75.8106 14.34 76.9561 14.34H79.7582V27.6108C79.7582 28.9858 78.6436 30.1001 77.2683 30.1001ZM63.6149 15.6438V13.4552C63.6149 13.4166 63.6463 13.3851 63.685 13.3851H64.3803C64.4949 13.3851 64.6006 13.4039 64.695 13.4409C64.7884 13.4775 64.8704 13.5288 64.9389 13.5938C65.0079 13.6591 65.061 13.7385 65.0969 13.8295C65.1328 13.9187 65.1513 14.0162 65.1513 14.1191C65.1513 14.2241 65.1328 14.3223 65.0965 14.4105C65.0606 14.4988 65.0076 14.5771 64.9392 14.6431C64.8711 14.7088 64.7887 14.7605 64.6943 14.7964C64.6006 14.8323 64.4949 14.8504 64.3803 14.8504H64.0869V15.6439C64.0869 15.6825 64.0554 15.714 64.0168 15.714H63.685C63.6463 15.714 63.6149 15.6825 63.6149 15.6438ZM65.7593 15.6438V13.4552C65.7593 13.4166 65.7908 13.3851 65.8295 13.3851H66.598C66.744 13.3851 66.8726 13.4094 66.9811 13.4573C67.0909 13.5061 67.189 13.5838 67.2732 13.6878C67.3166 13.7425 67.3511 13.803 67.3761 13.868C67.4004 13.9313 67.4188 13.9997 67.4308 14.0708C67.4424 14.1413 67.4492 14.2172 67.4516 14.299C67.4537 14.3769 67.4547 14.4608 67.4547 14.5497C67.4547 14.6382 67.4537 14.7221 67.4516 14.8C67.4492 14.8815 67.4424 14.9577 67.4308 15.0285C67.4188 15.0997 67.4004 15.1677 67.3761 15.231C67.3508 15.2966 67.3162 15.3572 67.2734 15.4109C67.1887 15.5159 67.0904 15.5935 66.981 15.6417C66.8736 15.6896 66.7447 15.7139 66.5979 15.7139H65.8294C65.7908 15.714 65.7593 15.6825 65.7593 15.6438ZM69.422 14.3503C69.4607 14.3503 69.4921 14.3818 69.4921 14.4205V14.7187C69.4921 14.7574 69.4607 14.7889 69.422 14.7889H68.5824V15.6439C68.5824 15.6826 68.5509 15.714 68.5122 15.714H68.1805C68.1418 15.714 68.1104 15.6826 68.1104 15.6439V13.4553C68.1104 13.4167 68.1418 13.3852 68.1805 13.3852H69.4531C69.4918 13.3852 69.5233 13.4167 69.5233 13.4553V13.7536C69.5233 13.7922 69.4918 13.8237 69.4531 13.8237H68.5824V14.3504L69.422 14.3503Z" fill="white"/>
<path d="M64.5965 14.3383C64.6523 14.288 64.6793 14.2166 64.6793 14.1197C64.6793 14.0233 64.6523 13.9518 64.5965 13.9015C64.5384 13.8495 64.4618 13.8242 64.3619 13.8242H64.0869V14.4155H64.3619C64.4617 14.4156 64.5384 14.3903 64.5965 14.3383Z" fill="white"/>
<path d="M66.7468 15.2476C66.7988 15.2281 66.8436 15.1966 66.8836 15.1515C66.9271 15.1029 66.9544 15.0332 66.9651 14.9439C66.977 14.8423 66.9828 14.7096 66.9828 14.5495C66.9828 14.3891 66.977 14.2564 66.9651 14.1551C66.9544 14.0656 66.9271 13.9958 66.884 13.9476C66.844 13.9024 66.7978 13.8703 66.7472 13.8514C66.6928 13.8306 66.6306 13.8203 66.5612 13.8203H66.2314V15.2783H66.5612C66.6302 15.2784 66.6928 15.2681 66.7468 15.2476Z" fill="white"/>
</g>
<defs>
<clipPath id="clip0_2099_4297">
<rect width="23.5639" height="23.5639" fill="white" transform="translate(59.5615 8)"/>
</clipPath>
</defs>
</svg>
