<svg width="32" height="32" viewBox="0 0 32 32" fill="none" xmlns="http://www.w3.org/2000/svg">
<path d="M22.6667 28V25.3333C22.6667 23.9188 22.1048 22.5623 21.1046 21.5621C20.1044 20.5619 18.7479 20 17.3334 20H6.66671C5.25222 20 3.89567 20.5619 2.89547 21.5621C1.89528 22.5623 1.33337 23.9188 1.33337 25.3333V28" stroke="#004851" stroke-width="1.5" stroke-linecap="round" stroke-linejoin="round"/>
<path d="M12 14.6667C14.9455 14.6667 17.3333 12.2789 17.3333 9.33333C17.3333 6.38781 14.9455 4 12 4C9.05444 4 6.66663 6.38781 6.66663 9.33333C6.66663 12.2789 9.05444 14.6667 12 14.6667Z" stroke="#004851" stroke-width="1.5" stroke-linecap="round" stroke-linejoin="round"/>
<path d="M20 4C21.4145 4 22.771 4.5619 23.7712 5.5621C24.7714 6.56229 25.3333 7.91885 25.3333 9.33333C25.3333 10.7478 24.7714 12.1044 23.7712 13.1046C22.771 14.1048 21.4145 14.6667 20 14.6667" stroke="#004851" stroke-width="1.5" stroke-linecap="round" stroke-linejoin="round"/>
<path d="M30.6667 28V25.3333C30.6667 23.9188 30.1048 22.5623 29.1046 21.5621C28.1044 20.5619 26.7479 20 25.3334 20" stroke="#004851" stroke-width="1.5" stroke-linecap="round" stroke-linejoin="round"/>
</svg>
