<svg width="32" height="32" viewBox="0 0 32 32" fill="none" xmlns="http://www.w3.org/2000/svg">
<g clip-path="url(#clip0_5001_874)">
<path d="M5.3333 25.3333C5.33038 24.6359 5.46486 23.9447 5.72906 23.2992C5.99327 22.6537 6.38203 22.0666 6.87315 21.5713C7.36426 21.0761 7.94811 20.6824 8.59136 20.4128C9.23462 20.1432 9.92468 20.0029 10.6221 20C10.637 20 10.6518 20 10.6666 20H13.7481" stroke="#004851" stroke-width="1.5" stroke-linecap="round" stroke-linejoin="round"/>
<path fill-rule="evenodd" clip-rule="evenodd" d="M17.3334 21.9872C17.398 23.3214 17.9299 24.5903 18.836 25.5718C19.5597 26.4124 20.4233 27.1216 21.3885 27.6681C21.8011 27.8983 22.2683 28.0124 22.7406 27.9985C23.2128 27.9846 23.6725 27.8431 24.0708 27.5891C24.9457 27.0298 25.7324 26.3432 26.4049 25.552C27.3277 24.5805 27.8906 23.3227 28 21.9872C28.0064 21.1927 27.7093 20.4258 27.1695 19.8428C26.9128 19.5632 26.6014 19.3393 26.2545 19.1852C25.9077 19.031 25.5328 18.9499 25.1532 18.9468C24.6792 18.9137 24.2045 19.0007 23.7731 19.1997C23.3417 19.3988 22.9674 19.7035 22.6851 20.0857L22.6668 20.1125L22.6483 20.0857C22.3912 19.7238 22.049 19.4307 21.652 19.2321C21.255 19.0335 20.8152 18.9355 20.3714 18.9468C19.9704 18.94 19.5721 19.014 19.2002 19.1644C18.8284 19.3148 18.4907 19.5386 18.2072 19.8223C17.9237 20.106 17.7002 20.444 17.5501 20.8159C17.3999 21.1878 17.3262 21.5862 17.3334 21.9872Z" stroke="#004851" stroke-width="1.5" stroke-linecap="round" stroke-linejoin="round"/>
<path d="M16 15.3333C19.1297 15.3333 21.6667 12.7963 21.6667 9.66667C21.6667 6.53705 19.1297 4 16 4C12.8704 4 10.3334 6.53705 10.3334 9.66667C10.3334 12.7963 12.8704 15.3333 16 15.3333Z" stroke="#004851" stroke-width="1.5" stroke-linecap="round" stroke-linejoin="round"/>
</g>
<defs>
<clipPath id="clip0_5001_874">
<rect width="32" height="32" fill="white"/>
</clipPath>
</defs>
</svg>
