<svg width="32" height="32" viewBox="0 0 32 32" fill="none" xmlns="http://www.w3.org/2000/svg">
<path d="M7.97867 28H5.33333C4.59733 28 4 27.4027 4 26.6667V18.6667C4 17.9307 4.59733 17.3334 5.33333 17.3334H7.97867C8.71467 17.3334 9.312 17.9307 9.312 18.6667V26.6667C9.312 27.4027 8.71467 28 7.97867 28Z" stroke="#004851" stroke-width="1.5" stroke-linecap="round" stroke-linejoin="round"/>
<path d="M17.28 22.6667H20.3787C20.9533 22.6667 21.512 22.48 21.972 22.1333L25.18 19.7173C25.9813 19.1147 27.1013 19.1947 27.8093 19.9053C28.5947 20.6947 28.5947 21.9733 27.8093 22.7613L25.0573 25.5253C24.316 26.2693 23.372 26.7773 22.3427 26.984L18.4507 27.7653C17.68 27.92 16.884 27.9013 16.12 27.7093L12.6013 26.8267C12.1813 26.72 11.748 26.6667 11.3133 26.6667H9.31201" stroke="#004851" stroke-width="1.5" stroke-linecap="round" stroke-linejoin="round"/>
<path d="M17.28 22.6667H19.252C20.3627 22.6667 21.264 21.7627 21.264 20.6467V20.2427C21.264 19.316 20.636 18.508 19.74 18.284L16.696 17.52C16.2013 17.396 15.6933 17.3334 15.184 17.3334C13.9533 17.3334 12.7493 17.6987 11.7253 18.3854L9.31201 20" stroke="#004851" stroke-width="1.5" stroke-linecap="round" stroke-linejoin="round"/>
<path d="M20.3813 4.88139L19.916 5.37872L19.4493 4.88139C18.4267 3.79072 16.7307 3.70139 15.6 4.67739C14.444 5.67472 14.3067 7.40406 15.2573 8.60139C16.6173 10.3134 18.176 12.0041 19.916 13.3334C21.7 11.9707 23.292 10.2294 24.676 8.47339C25.5747 7.33339 25.3893 5.67872 24.2933 4.73072L24.2427 4.68672C23.1013 3.70139 21.404 3.79072 20.3813 4.88139Z" stroke="#004851" stroke-width="1.5" stroke-linecap="round" stroke-linejoin="round"/>
</svg>
