<svg width="32" height="32" viewBox="0 0 32 32" fill="none" xmlns="http://www.w3.org/2000/svg">
<path d="M4 22V14.613C4 13.7131 4.20238 12.8248 4.59217 12.0138C4.98196 11.2028 5.54916 10.4899 6.2518 9.92775L11.8353 5.4609C13.0174 4.51522 14.4862 4 16 4C17.5138 4 18.9826 4.51522 20.1647 5.4609L25.7482 9.92774C26.4508 10.4899 27.018 11.2028 27.4078 12.0138C27.7976 12.8248 28 13.7131 28 14.6129V22C28 23.5913 27.3679 25.1174 26.2426 26.2426C25.1174 27.3679 23.5913 28 22 28H10C8.4087 28 6.88258 27.3679 5.75736 26.2426C4.63214 25.1174 4 23.5913 4 22Z" stroke="#004851" stroke-width="1.5" stroke-linecap="round" stroke-linejoin="round"/>
<path d="M15.7217 15.1426L16 15.4251L16.2783 15.1425C16.529 14.8864 16.8283 14.6828 17.1586 14.5439C17.489 14.4049 17.8438 14.3334 18.2022 14.3334C18.5606 14.3334 18.9154 14.4049 19.2458 14.5439C19.5762 14.6828 19.8755 14.8864 20.1261 15.1425C20.637 15.6645 20.9231 16.3657 20.9231 17.0961C20.9231 17.8264 20.637 18.5277 20.1261 19.0496L17.5229 21.6928C17.3245 21.8956 17.0876 22.0567 16.8261 22.1667C16.5645 22.2767 16.2837 22.3334 16 22.3334C15.7162 22.3334 15.4354 22.2767 15.1738 22.1667C14.9123 22.0567 14.6754 21.8956 14.477 21.6928L11.8738 19.0497C11.363 18.5277 11.0769 17.8264 11.0769 17.0961C11.0769 16.3658 11.363 15.6645 11.8738 15.1426C12.1245 14.8864 12.4238 14.6829 12.7542 14.5439C13.0845 14.405 13.4393 14.3334 13.7978 14.3334C14.1562 14.3334 14.511 14.405 14.8413 14.5439C15.1717 14.6829 15.471 14.8864 15.7217 15.1426Z" stroke="#004851" stroke-width="1.5" stroke-linecap="round" stroke-linejoin="round"/>
</svg>
