<svg width="32" height="32" viewBox="0 0 32 32" fill="none" xmlns="http://www.w3.org/2000/svg">
<g clip-path="url(#clip0_5012_1618)">
<path d="M27.4427 12.4707C27.8067 13.612 27.9946 14.8021 28 16C28 18.3734 27.2962 20.6935 25.9776 22.6668C24.6591 24.6402 22.7849 26.1783 20.5922 27.0866C18.3995 27.9948 15.9867 28.2324 13.6589 27.7694C11.3312 27.3064 9.19295 26.1635 7.51472 24.4853C5.83649 22.8071 4.6936 20.6689 4.23058 18.3411C3.76756 16.0133 4.0052 13.6005 4.91345 11.4078C5.8217 9.21509 7.35977 7.34094 9.33316 6.02236C11.3066 4.70379 13.6266 4 16 4C17.1979 4.00541 18.388 4.19335 19.5293 4.55733" stroke="#004851" stroke-width="1.5" stroke-linecap="round" stroke-linejoin="round"/>
<path d="M28.0001 5.69861L25.3494 8.34928L23.6494 6.64927" stroke="#004851" stroke-width="1.5" stroke-linecap="round" stroke-linejoin="round"/>
<path d="M10.1772 14.3014C10.1772 13.7802 10.3843 13.2803 10.7529 12.9117C11.1215 12.5431 11.6213 12.3361 12.1426 12.3361C12.6638 12.3361 13.1637 12.5431 13.5323 12.9117C13.9009 13.2803 14.1079 13.7802 14.1079 14.3014C14.1079 16.7574 10.1772 16.7574 10.1772 19.6667H14.1079" stroke="#004851" stroke-width="1.5" stroke-linecap="round" stroke-linejoin="round"/>
<path d="M20.7092 19.6666V13.016C20.7099 12.8684 20.6625 12.7247 20.5741 12.6066C20.4857 12.4884 20.3612 12.4023 20.2195 12.3613C20.0778 12.3203 19.9266 12.3266 19.7888 12.3793C19.651 12.432 19.5341 12.5282 19.4559 12.6533C18.6199 14.0053 17.7079 15.54 16.9199 16.896C16.8555 17.0074 16.8216 17.134 16.8218 17.2627C16.8219 17.3915 16.856 17.5179 16.9207 17.6292C16.9854 17.7406 17.0783 17.8329 17.1901 17.8968C17.3018 17.9607 17.4285 17.994 17.5572 17.9933H21.8226" stroke="#004851" stroke-width="1.5" stroke-linecap="round" stroke-linejoin="round"/>
</g>
<defs>
<clipPath id="clip0_5012_1618">
<rect width="32" height="32" fill="white"/>
</clipPath>
</defs>
</svg>
