<svg width="32" height="32" viewBox="0 0 32 32" fill="none" xmlns="http://www.w3.org/2000/svg">
<path d="M11.3335 12V13.3333" stroke="#004851" stroke-width="1.5" stroke-linecap="round" stroke-linejoin="round"/>
<path d="M20.6665 12V13.3333" stroke="#004851" stroke-width="1.5" stroke-linecap="round" stroke-linejoin="round"/>
<path d="M20.6668 19.584C19.3738 20.712 17.716 21.3335 16.0002 21.3335C14.2843 21.3335 12.6265 20.712 11.3335 19.584" stroke="#004851" stroke-width="1.5" stroke-linecap="round" stroke-linejoin="round"/>
<path d="M25.7737 4.02299L25.9999 4.25274L26.2338 4.00553C26.4302 3.79597 26.6671 3.62837 26.9301 3.51286C27.193 3.39734 27.4767 3.3363 27.7639 3.33342C28.0511 3.33054 28.3359 3.38587 28.6012 3.49608C28.8664 3.60629 29.1066 3.7691 29.3072 3.97467L29.3547 4.02295C29.7685 4.44814 30 5.01799 30 5.61126C30 6.20453 29.7685 6.77439 29.3547 7.19957L27.0156 9.57459C26.883 9.70933 26.7249 9.81633 26.5505 9.88937C26.3762 9.96241 26.189 10 25.9999 10C25.8109 10 25.6237 9.96241 25.4493 9.88937C25.2749 9.81633 25.1168 9.70933 24.9842 9.57459L22.6453 7.19962C22.2315 6.77444 22 6.20458 22 5.61131C22 5.01803 22.2315 4.44818 22.6453 4.02299C22.8495 3.81551 23.093 3.65072 23.3615 3.53825C23.6301 3.42577 23.9183 3.36785 24.2095 3.36785C24.5006 3.36785 24.7889 3.42577 25.0574 3.53825C25.3259 3.65072 25.5694 3.81551 25.7737 4.02299Z" stroke="#004851" stroke-width="1.5" stroke-linecap="round" stroke-linejoin="round"/>
<path d="M28.3418 13.1852C28.9719 15.879 28.7093 18.7047 27.5935 21.2363C26.4778 23.7679 24.5694 25.8682 22.1559 27.2207C19.7425 28.5731 16.9548 29.1044 14.2131 28.7344C11.4714 28.3645 8.92421 27.1133 6.95553 25.1696C4.98685 23.2258 3.70336 20.6948 3.2985 17.9581C2.89364 15.2213 3.38936 12.4271 4.71095 9.99657C6.03253 7.56608 8.10836 5.63105 10.6255 4.48313C13.1427 3.33522 15.9648 3.03664 18.6665 3.6324" stroke="#004851" stroke-width="1.5" stroke-linecap="round" stroke-linejoin="round"/>
</svg>
