<svg width="32" height="32" viewBox="0 0 32 32" fill="none" xmlns="http://www.w3.org/2000/svg">
<path d="M16.8386 4.87595C16.3495 5.27167 15.6504 5.27167 15.1613 4.87595C13.4346 3.49799 10.9177 3.78072 9.53979 5.50743C9.17457 5.96508 8.91428 6.49734 8.77729 7.06661C8.66414 7.58397 8.25908 7.98746 7.74129 8.09861C5.21546 8.61127 3.58346 11.0744 4.09612 13.6003C4.21599 14.1909 4.44912 14.7527 4.78263 15.2546C5.09236 15.7081 5.09236 16.3051 4.78263 16.7586C3.35631 18.9053 3.94027 21.8018 6.08695 23.2281C6.5889 23.5616 7.15069 23.7947 7.7413 23.9146C8.25909 24.0258 8.66415 24.4293 8.7773 24.9466C9.29723 27.0937 11.4593 28.4128 13.6064 27.8928C14.1741 27.7554 14.7049 27.4952 15.1613 27.1306C15.6504 26.7349 16.3495 26.7349 16.8386 27.1306C18.5659 28.5078 21.0826 28.224 22.4599 26.4967C22.8257 26.0378 23.0862 25.5041 23.2226 24.9333C23.3358 24.4159 23.7408 24.0124 24.2586 23.9013C26.7844 23.3884 28.4162 20.9251 27.9033 18.3993C27.7833 17.8083 27.5499 17.2461 27.216 16.7439C26.9074 16.2911 26.9074 15.6955 27.216 15.2426C28.6431 13.0965 28.0602 10.1997 25.914 8.77266C25.4118 8.43872 24.8497 8.20529 24.2586 8.08529C23.7408 7.97414 23.3358 7.57064 23.2226 7.05329C22.7027 4.90621 20.5407 3.58713 18.3936 4.10706C17.8258 4.24454 17.2951 4.50472 16.8386 4.86929L16.8386 4.87595Z" stroke="#004851" stroke-width="1.5" stroke-linecap="round" stroke-linejoin="round"/>
<path d="M16 5.17334V26.8267" stroke="#004851" stroke-width="1.5" stroke-linecap="round" stroke-linejoin="round"/>
<path d="M20 21.3333C20 19.8605 21.1939 18.6666 22.6667 18.6666" stroke="#004851" stroke-width="1.5" stroke-linecap="round" stroke-linejoin="round"/>
<path d="M12.0002 10.6666C12.0002 12.1394 10.8063 13.3333 9.3335 13.3333" stroke="#004851" stroke-width="1.5" stroke-linecap="round" stroke-linejoin="round"/>
<path d="M12.0002 21.3333C12.0002 19.8605 10.8063 18.6666 9.3335 18.6666" stroke="#004851" stroke-width="1.5" stroke-linecap="round" stroke-linejoin="round"/>
<path d="M20 10.6666C20 12.1394 21.1939 13.3333 22.6667 13.3333" stroke="#004851" stroke-width="1.5" stroke-linecap="round" stroke-linejoin="round"/>
</svg>
