<svg width="32" height="32" viewBox="0 0 32 32" fill="none" xmlns="http://www.w3.org/2000/svg">
<g clip-path="url(#clip0_5012_165)">
<path d="M28.0002 28L28.7708 26.4587C29.141 25.7184 29.3336 24.902 29.3335 24.0743V15.3334C29.3335 14.8029 29.1228 14.2942 28.7477 13.9192C28.3726 13.5441 27.8639 13.3334 27.3335 13.3334C26.8031 13.3334 26.2944 13.5441 25.9193 13.9192C25.5442 14.2942 25.3335 14.8029 25.3335 15.3334V20.6667" stroke="#004851" stroke-width="1.5" stroke-linecap="round" stroke-linejoin="round"/>
<path d="M18.6665 28V24.1156C18.6665 23.5386 18.8536 22.9772 19.1998 22.5156L21.4371 19.5325C21.6232 19.2845 21.8604 19.0792 22.1326 18.9308C22.4049 18.7824 22.7059 18.6942 23.0152 18.6722C23.3246 18.6502 23.635 18.695 23.9255 18.8034C24.2161 18.9118 24.4799 19.0814 24.6992 19.3007C25.0676 19.6691 25.2908 20.1581 25.3277 20.6778C25.3646 21.1975 25.2129 21.7131 24.9002 22.1299L23.4976 24" stroke="#004851" stroke-width="1.5" stroke-linecap="round" stroke-linejoin="round"/>
<path d="M3.99984 28L3.22917 26.4587C2.85903 25.7184 2.66638 24.902 2.6665 24.0743V15.3334C2.6665 14.8029 2.87722 14.2942 3.25229 13.9192C3.62736 13.5441 4.13607 13.3334 4.6665 13.3334C5.19694 13.3334 5.70564 13.5441 6.08072 13.9192C6.45579 14.2942 6.6665 14.8029 6.6665 15.3334V20.6667" stroke="#004851" stroke-width="1.5" stroke-linecap="round" stroke-linejoin="round"/>
<path d="M13.3331 28V24.1156C13.3331 23.5386 13.146 22.9772 12.7998 22.5156L10.5626 19.5325C10.3765 19.2845 10.1393 19.0792 9.86701 18.9308C9.59474 18.7824 9.29374 18.6942 8.98442 18.6722C8.67509 18.6502 8.36465 18.695 8.07412 18.8034C7.78358 18.9118 7.51974 19.0814 7.30046 19.3007C6.93204 19.6691 6.70888 20.1581 6.67195 20.6778C6.63502 21.1975 6.78679 21.7131 7.09941 22.1299L8.50201 24" stroke="#004851" stroke-width="1.5" stroke-linecap="round" stroke-linejoin="round"/>
<path d="M22 8.93333C22 8.57971 21.8595 8.24057 21.6095 7.99052C21.3594 7.74048 21.0203 7.6 20.6667 7.6H18.4V5.33333C18.4 4.97971 18.2595 4.64057 18.0095 4.39052C17.7594 4.14048 17.4203 4 17.0667 4H14.9333C14.5797 4 14.2406 4.14048 13.9905 4.39052C13.7405 4.64057 13.6 4.97971 13.6 5.33333V7.6H11.3333C10.9797 7.6 10.6406 7.74048 10.3905 7.99052C10.1405 8.24057 10 8.57971 10 8.93333V11.0667C10 11.4203 10.1405 11.7594 10.3905 12.0095C10.6406 12.2595 10.9797 12.4 11.3333 12.4H13.6V14.6667C13.6 15.0203 13.7405 15.3594 13.9905 15.6095C14.2406 15.8595 14.5797 16 14.9333 16H17.0667C17.4203 16 17.7594 15.8595 18.0095 15.6095C18.2595 15.3594 18.4 15.0203 18.4 14.6667V12.4H20.6667C20.8418 12.4 21.0151 12.3655 21.1769 12.2985C21.3387 12.2315 21.4857 12.1333 21.6095 12.0095C21.7333 11.8857 21.8315 11.7387 21.8985 11.5769C21.9655 11.4151 22 11.2418 22 11.0667V8.93333Z" stroke="#004851" stroke-width="1.5" stroke-linecap="round" stroke-linejoin="round"/>
</g>
<defs>
<clipPath id="clip0_5012_165">
<rect width="32" height="32" fill="white"/>
</clipPath>
</defs>
</svg>
