<svg width="32" height="32" viewBox="0 0 32 32" fill="none" xmlns="http://www.w3.org/2000/svg">
<g clip-path="url(#clip0_5012_2477)">
<path d="M25.3335 20.6667V15.3334C25.3335 14.8029 25.5442 14.2942 25.9193 13.9192C26.2944 13.5441 26.8031 13.3334 27.3335 13.3334C27.8639 13.3334 28.3726 13.5441 28.7477 13.9192C29.1228 14.2942 29.3335 14.8029 29.3335 15.3334V24.0743C29.3335 24.9023 29.1407 25.7189 28.7704 26.4594L28.0002 28" stroke="#004851" stroke-width="1.5" stroke-linecap="round" stroke-linejoin="round"/>
<path d="M18.6665 28V24.1156C18.6665 23.5386 18.8536 22.9772 19.1998 22.5156L21.4371 19.5325C21.6232 19.2845 21.8604 19.0792 22.1326 18.9308C22.4049 18.7824 22.7059 18.6942 23.0152 18.6722C23.3246 18.6502 23.635 18.695 23.9255 18.8034C24.2161 18.9118 24.4799 19.0814 24.6992 19.3007C25.0676 19.6691 25.2908 20.1581 25.3277 20.6778C25.3646 21.1975 25.2129 21.7131 24.9002 22.1299L23.4976 24" stroke="#004851" stroke-width="1.5" stroke-linecap="round" stroke-linejoin="round"/>
<path d="M6.6665 20.6667V15.3334C6.6665 14.8029 6.45579 14.2942 6.08072 13.9192C5.70564 13.5441 5.19694 13.3334 4.6665 13.3334C4.13607 13.3334 3.62736 13.5441 3.25229 13.9192C2.87722 14.2942 2.6665 14.8029 2.6665 15.3334V24.0743C2.66651 24.9023 2.85929 25.7189 3.22957 26.4594L3.99984 28" stroke="#004851" stroke-width="1.5" stroke-linecap="round" stroke-linejoin="round"/>
<path d="M13.3331 28V24.1156C13.3331 23.5386 13.146 22.9772 12.7998 22.5156L10.5626 19.5325C10.3765 19.2845 10.1393 19.0792 9.86701 18.9308C9.59474 18.7824 9.29374 18.6942 8.98442 18.6722C8.67509 18.6502 8.36465 18.695 8.07412 18.8034C7.78358 18.9118 7.51974 19.0814 7.30046 19.3007C6.93204 19.6691 6.70888 20.1581 6.67195 20.6778C6.63502 21.1975 6.78679 21.7131 7.09941 22.1299L8.50201 24" stroke="#004851" stroke-width="1.5" stroke-linecap="round" stroke-linejoin="round"/>
<path d="M18.0735 13.808C17.5235 14.3577 16.7778 14.6666 16.0002 14.6667C15.2226 14.6666 14.4768 14.3577 13.9268 13.808L10.4135 10.2947C10.0711 9.95226 9.79948 9.54577 9.61418 9.0984C9.42887 8.65104 9.3335 8.17155 9.3335 7.68733C9.3335 6.70939 9.72198 5.7715 10.4135 5.07999C11.105 4.38848 12.0429 4 13.0208 4C13.9988 4 14.9366 4.38848 15.6282 5.07999L16.0002 5.45199L16.3722 5.07999C17.0637 4.38848 18.0015 4 18.9795 4C19.9574 4 20.8953 4.38848 21.5868 5.07999C22.2783 5.7715 22.6668 6.70939 22.6668 7.68733C22.6668 8.66527 22.2783 9.60315 21.5868 10.2947L18.0735 13.808Z" stroke="#004851" stroke-width="1.5" stroke-linecap="round" stroke-linejoin="round"/>
</g>
<defs>
<clipPath id="clip0_5012_2477">
<rect width="32" height="32" fill="white"/>
</clipPath>
</defs>
</svg>
