<svg width="32" height="32" viewBox="0 0 32 32" fill="none" xmlns="http://www.w3.org/2000/svg">
<g clip-path="url(#clip0_5012_1163)">
<path d="M10.6667 28C14.3486 28 17.3333 25.0152 17.3333 21.3333C17.3333 17.6514 14.3486 14.6666 10.6667 14.6666C6.98477 14.6666 4 17.6514 4 21.3333C4 25.0152 6.98477 28 10.6667 28Z" stroke="#004851" stroke-width="1.5" stroke-linecap="round" stroke-linejoin="round"/>
<path d="M10.6667 24C12.1394 24 13.3333 22.8061 13.3333 21.3333C13.3333 19.8605 12.1394 18.6666 10.6667 18.6666C9.19391 18.6666 8 19.8605 8 21.3333C8 22.8061 9.19391 24 10.6667 24Z" stroke="#004851" stroke-width="1.5" stroke-linecap="round" stroke-linejoin="round"/>
<path d="M28.0001 26.6667H25.8539C25.7053 26.6667 25.5608 26.617 25.4437 26.5255C25.3265 26.434 25.2432 26.3059 25.2072 26.1617L23.1717 18.0199C23.0275 17.443 22.6945 16.9308 22.2258 16.5648C21.757 16.1988 21.1794 16 20.5847 16H14.6667" stroke="#004851" stroke-width="1.5" stroke-linecap="round" stroke-linejoin="round"/>
<path d="M21.3333 10.6666H9.33325" stroke="#004851" stroke-width="1.5" stroke-linecap="round" stroke-linejoin="round"/>
<path d="M18.6667 16V10.6666" stroke="#004851" stroke-width="1.5" stroke-linecap="round" stroke-linejoin="round"/>
<path d="M5.33325 4H6.66659C7.37383 4 8.05211 4.28095 8.5522 4.78105C9.0523 5.28115 9.33325 5.95942 9.33325 6.66667V14.6667" stroke="#004851" stroke-width="1.5" stroke-linecap="round" stroke-linejoin="round"/>
<path d="M24.6667 24H16.7769" stroke="#004851" stroke-width="1.5" stroke-linecap="round" stroke-linejoin="round"/>
</g>
<defs>
<clipPath id="clip0_5012_1163">
<rect width="32" height="32" fill="white"/>
</clipPath>
</defs>
</svg>
