<svg width="32" height="32" viewBox="0 0 32 32" fill="none" xmlns="http://www.w3.org/2000/svg">
<g clip-path="url(#clip0_5012_897)">
<path d="M11.3333 12V13.3333" stroke="#004851" stroke-width="1.5" stroke-linecap="round" stroke-linejoin="round"/>
<path d="M20.6667 12V13.3333" stroke="#004851" stroke-width="1.5" stroke-linecap="round" stroke-linejoin="round"/>
<path d="M20.6666 19.584C19.3736 20.712 17.7158 21.3335 15.9999 21.3335C14.284 21.3335 12.6262 20.712 11.3333 19.584" stroke="#004851" stroke-width="1.5" stroke-linecap="round" stroke-linejoin="round"/>
<path d="M25.7737 4.02293L25.9999 4.25268L26.2338 4.00547C26.4302 3.79591 26.6671 3.62831 26.9301 3.5128C27.193 3.39728 27.4767 3.33624 27.7639 3.33336C28.0511 3.33048 28.3359 3.38581 28.6012 3.49602C28.8664 3.60623 29.1066 3.76904 29.3072 3.97461L29.3547 4.02289C29.7685 4.44807 30 5.01793 30 5.6112C30 6.20447 29.7685 6.77432 29.3547 7.19951L27.0156 9.57453C26.883 9.70927 26.7249 9.81627 26.5505 9.88931C26.3762 9.96235 26.189 9.99996 25.9999 9.99996C25.8109 9.99996 25.6237 9.96235 25.4493 9.88931C25.2749 9.81627 25.1168 9.70927 24.9842 9.57453L22.6453 7.19956C22.2315 6.77438 22 6.20452 22 5.61125C22 5.01797 22.2315 4.44812 22.6453 4.02293C22.8495 3.81544 23.093 3.65066 23.3615 3.53819C23.6301 3.42571 23.9183 3.36778 24.2095 3.36778C24.5006 3.36778 24.7889 3.42571 25.0574 3.53819C25.3259 3.65066 25.5694 3.81544 25.7737 4.02293Z" stroke="#004851" stroke-width="1.5" stroke-linecap="round" stroke-linejoin="round"/>
<path d="M28.342 13.1853C28.9721 15.8791 28.7095 18.7048 27.5938 21.2364C26.478 23.768 24.5696 25.8683 22.1562 27.2207C19.7427 28.5732 16.955 29.1045 14.2133 28.7345C11.4716 28.3645 8.92445 27.1134 6.95578 25.1697C4.9871 23.2259 3.7036 20.6949 3.29874 17.9581C2.89388 15.2213 3.38961 12.4271 4.71119 9.99663C6.03278 7.56614 8.1086 5.63111 10.6258 4.4832C13.1429 3.33528 15.965 3.0367 18.6667 3.63246" stroke="#004851" stroke-width="1.5" stroke-linecap="round" stroke-linejoin="round"/>
</g>
<defs>
<clipPath id="clip0_5012_897">
<rect width="32" height="32" fill="white"/>
</clipPath>
</defs>
</svg>
