<svg width="32" height="32" viewBox="0 0 32 32" fill="none" xmlns="http://www.w3.org/2000/svg">
<g clip-path="url(#clip0_5012_972)">
<path d="M18 27.3333V26.792C18.0044 25.2518 19.2518 24.0044 20.792 24H25.208C26.7481 24.0044 27.9956 25.2518 28 26.792V27.3333C28 27.7015 27.7015 28 27.3333 28H18.6667C18.2985 28 18 27.7015 18 27.3333Z" stroke="#004851" stroke-width="1.5" stroke-linecap="round" stroke-linejoin="round"/>
<path d="M20.4333 18.7199C20.0374 17.3014 20.8665 15.8305 22.285 15.4346C23.7036 15.0388 25.1745 15.8678 25.5703 17.2864C25.9662 18.7049 25.1371 20.1758 23.7186 20.5717C23.2831 20.6932 22.8238 20.702 22.384 20.5972C21.4408 20.3726 20.6939 19.6538 20.4333 18.7199Z" stroke="#004851" stroke-width="1.5" stroke-linecap="round" stroke-linejoin="round"/>
<path d="M2.6665 24.6666V24.1252C2.67089 22.5851 3.91833 21.3377 5.45849 21.3333H9.8745C11.4147 21.3376 12.6621 22.5851 12.6665 24.1253V24.6666C12.6665 25.0348 12.368 25.3333 11.9998 25.3333H3.33317C2.96498 25.3333 2.6665 25.0348 2.6665 24.6666Z" stroke="#004851" stroke-width="1.5" stroke-linecap="round" stroke-linejoin="round"/>
<path d="M5.09979 16.0533C4.70393 14.6347 5.53299 13.1639 6.95155 12.768C8.37011 12.3721 9.84099 13.2012 10.2368 14.6198C10.6327 16.0383 9.80364 17.5092 8.38508 17.9051C7.94957 18.0266 7.4903 18.0354 7.05046 17.9306C6.10731 17.706 5.36039 16.9871 5.09979 16.0533Z" stroke="#004851" stroke-width="1.5" stroke-linecap="round" stroke-linejoin="round"/>
<path d="M16 10.6666V12.6666C15.999 13.0348 16.2967 13.3341 16.6649 13.3351C16.8196 13.3355 16.9697 13.2821 17.0893 13.184L19.8253 10.956C20.0524 10.7678 20.3384 10.6654 20.6333 10.6666H24C25.4728 10.6666 26.6667 9.47272 26.6667 7.99996V5.33329C26.6667 3.86053 25.4728 2.66663 24 2.66663H14.6667C13.1939 2.66663 12 3.86053 12 5.33329V7.99996C12 9.47272 13.1939 10.6666 14.6667 10.6666H16Z" stroke="#004851" stroke-width="1.5" stroke-linecap="round" stroke-linejoin="round"/>
</g>
<defs>
<clipPath id="clip0_5012_972">
<rect width="32" height="32" fill="white"/>
</clipPath>
</defs>
</svg>
