<svg width="32" height="32" viewBox="0 0 32 32" fill="none" xmlns="http://www.w3.org/2000/svg">
<path d="M21.3332 10.6666V13.3333C21.3332 14.7478 20.7713 16.1043 19.7711 17.1045C18.7709 18.1047 17.4143 18.6666 15.9998 18.6666C14.5853 18.6666 13.2288 18.1047 12.2286 17.1045C11.2284 16.1043 10.6665 14.7478 10.6665 13.3333V10.6666" stroke="#004851" stroke-width="1.5" stroke-linecap="round" stroke-linejoin="round"/>
<g filter="url(#filter0_d_5012_1448)">
<path d="M21.3332 10.6667H18.472C17.7291 10.6667 17.001 10.4598 16.369 10.0693C15.7371 9.67873 15.2265 9.11994 14.8943 8.45552L14.6665 8" stroke="#004851" stroke-width="1.5" stroke-linecap="round" stroke-linejoin="round" shape-rendering="crispEdges"/>
</g>
<path d="M10.6665 10.6667H10.861C11.6039 10.6667 12.3321 10.4598 12.964 10.0693C13.5959 9.67873 14.1065 9.11994 14.4387 8.45552L14.6665 8" stroke="#004851" stroke-width="1.5" stroke-linecap="round" stroke-linejoin="round"/>
<path d="M28 28V26.62C28 25.5153 27.6081 24.4464 26.8941 23.6036C26.1801 22.7607 25.1902 22.1984 24.1005 22.0168L20 21.3334L16 25.3334" stroke="#004851" stroke-width="1.5" stroke-linecap="round" stroke-linejoin="round"/>
<path d="M16 25.3334L12 21.3334L7.89947 22.0168C6.80983 22.1984 5.81994 22.7607 5.10591 23.6036C4.39188 24.4464 4 25.5153 4 26.62V28" stroke="#004851" stroke-width="1.5" stroke-linecap="round" stroke-linejoin="round"/>
<path d="M16 28V25.3334" stroke="#004851" stroke-width="1.5" stroke-linecap="round" stroke-linejoin="round"/>
<path d="M20.6665 28H23.3332" stroke="#004851" stroke-width="1.5" stroke-linecap="round" stroke-linejoin="round"/>
<path d="M12.991 18.6111H9.3335C8.80306 18.6111 8.29435 18.4004 7.91928 18.0253C7.54421 17.6502 7.3335 17.1415 7.3335 16.6111V10.6667C7.3335 8.36812 8.24659 6.16372 9.8719 4.53841C11.4972 2.91309 13.7016 2 16.0002 2C18.2987 2 20.5031 2.91309 22.1284 4.53841C23.7537 6.16372 24.6668 8.36812 24.6668 10.6667V16.6111C24.6668 17.1416 24.4561 17.6503 24.081 18.0253C23.706 18.4004 23.1973 18.6111 22.6668 18.6111H19.0093" stroke="#004851" stroke-width="1.5" stroke-linecap="round" stroke-linejoin="round"/>
<path d="M12 21.3334L13.2482 17.9041" stroke="#004851" stroke-width="1.5" stroke-linecap="round" stroke-linejoin="round"/>
<path d="M20.0001 21.3334L18.752 17.9041" stroke="#004851" stroke-width="1.5" stroke-linecap="round" stroke-linejoin="round"/>
<defs>
<filter id="filter0_d_5012_1448" x="9.9165" y="7.24988" width="16.1665" height="12.1667" filterUnits="userSpaceOnUse" color-interpolation-filters="sRGB">
<feFlood flood-opacity="0" result="BackgroundImageFix"/>
<feColorMatrix in="SourceAlpha" type="matrix" values="0 0 0 0 0 0 0 0 0 0 0 0 0 0 0 0 0 0 127 0" result="hardAlpha"/>
<feOffset dy="4"/>
<feGaussianBlur stdDeviation="2"/>
<feComposite in2="hardAlpha" operator="out"/>
<feColorMatrix type="matrix" values="0 0 0 0 0 0 0 0 0 0 0 0 0 0 0 0 0 0 0.25 0"/>
<feBlend mode="normal" in2="BackgroundImageFix" result="effect1_dropShadow_5012_1448"/>
<feBlend mode="normal" in="SourceGraphic" in2="effect1_dropShadow_5012_1448" result="shape"/>
</filter>
</defs>
</svg>
