<svg width="32" height="32" viewBox="0 0 32 32" fill="none" xmlns="http://www.w3.org/2000/svg">
<path d="M4 22V14.613C4 13.7131 4.20238 12.8248 4.59217 12.0138C4.98196 11.2028 5.54916 10.4899 6.2518 9.92775L11.8353 5.4609C13.0174 4.51522 14.4862 4 16 4C17.5138 4 18.9826 4.51522 20.1647 5.4609L25.7482 9.92774C26.4508 10.4899 27.018 11.2028 27.4078 12.0138C27.7976 12.8248 28 13.7131 28 14.6129V22C28 23.5913 27.3679 25.1174 26.2426 26.2426C25.1174 27.3679 23.5913 28 22 28H10C8.4087 28 6.88258 27.3679 5.75736 26.2426C4.63214 25.1174 4 23.5913 4 22Z" stroke="#004851" stroke-width="1.5" stroke-linecap="round" stroke-linejoin="round"/>
<path d="M15.7219 15.1426L16.0002 15.4251L16.2785 15.1425C16.5292 14.8864 16.8285 14.6828 17.1589 14.5439C17.4893 14.4049 17.844 14.3334 18.2025 14.3334C18.5609 14.3334 18.9157 14.4049 19.246 14.5439C19.5764 14.6828 19.8757 14.8864 20.1264 15.1425C20.6372 15.6645 20.9233 16.3657 20.9233 17.0961C20.9233 17.8264 20.6372 18.5277 20.1264 19.0496L17.5232 21.6928C17.3248 21.8956 17.0878 22.0567 16.8263 22.1667C16.5648 22.2767 16.2839 22.3334 16.0002 22.3334C15.7165 22.3334 15.4356 22.2767 15.1741 22.1667C14.9126 22.0567 14.6756 21.8956 14.4772 21.6928L11.8741 19.0497C11.3632 18.5277 11.0771 17.8264 11.0771 17.0961C11.0771 16.3658 11.3632 15.6645 11.8741 15.1426C12.1247 14.8864 12.424 14.6829 12.7544 14.5439C13.0848 14.405 13.4396 14.3334 13.798 14.3334C14.1564 14.3334 14.5112 14.405 14.8416 14.5439C15.172 14.6829 15.4713 14.8864 15.7219 15.1426Z" stroke="#004851" stroke-width="1.5" stroke-linecap="round" stroke-linejoin="round"/>
</svg>
