<svg width="32" height="32" viewBox="0 0 32 32" fill="none" xmlns="http://www.w3.org/2000/svg">
<g clip-path="url(#clip0_5012_1470)">
<path d="M5.33354 25.3333C5.33062 24.6359 5.4651 23.9447 5.72931 23.2992C5.99352 22.6537 6.38227 22.0666 6.87339 21.5713C7.3645 21.0761 7.94836 20.6824 8.59161 20.4128C9.23486 20.1432 9.92492 20.0029 10.6224 20C10.6372 20 10.652 20 10.6669 20H13.7483" stroke="#004851" stroke-width="1.5" stroke-linecap="round" stroke-linejoin="round"/>
<path fill-rule="evenodd" clip-rule="evenodd" d="M17.3335 21.9872C17.3981 23.3214 17.93 24.5903 18.8361 25.5718C19.5598 26.4124 20.4234 27.1216 21.3887 27.6681C21.8012 27.8983 22.2684 28.0124 22.7407 27.9985C23.2129 27.9846 23.6726 27.8431 24.0709 27.5891C24.9458 27.0298 25.7325 26.3432 26.405 25.552C27.3278 24.5805 27.8907 23.3227 28.0001 21.9872C28.0065 21.1927 27.7095 20.4258 27.1696 19.8428C26.913 19.5632 26.6015 19.3393 26.2546 19.1852C25.9078 19.031 25.5329 18.9499 25.1534 18.9468C24.6794 18.9137 24.2047 19.0007 23.7732 19.1997C23.3418 19.3988 22.9676 19.7035 22.6852 20.0857L22.6669 20.1125L22.6484 20.0857C22.3913 19.7238 22.0491 19.4307 21.6521 19.2321C21.2551 19.0335 20.8153 18.9355 20.3715 18.9468C19.9705 18.94 19.5722 19.014 19.2004 19.1644C18.8285 19.3148 18.4908 19.5386 18.2073 19.8223C17.9238 20.106 17.7003 20.444 17.5502 20.8159C17.4001 21.1878 17.3264 21.5862 17.3335 21.9872Z" stroke="#004851" stroke-width="1.5" stroke-linecap="round" stroke-linejoin="round"/>
<path d="M16.0002 15.3333C19.1298 15.3333 21.6668 12.7963 21.6668 9.66667C21.6668 6.53705 19.1298 4 16.0002 4C12.8705 4 10.3335 6.53705 10.3335 9.66667C10.3335 12.7963 12.8705 15.3333 16.0002 15.3333Z" stroke="#004851" stroke-width="1.5" stroke-linecap="round" stroke-linejoin="round"/>
</g>
<defs>
<clipPath id="clip0_5012_1470">
<rect width="32" height="32" fill="white"/>
</clipPath>
</defs>
</svg>
