<svg width="32" height="32" viewBox="0 0 32 32" fill="none" xmlns="http://www.w3.org/2000/svg">
<path d="M5.33317 16H26.6665C27.3737 16 28.052 16.281 28.5521 16.781C29.0522 17.2811 29.3332 17.9594 29.3332 18.6667V24C29.3332 24.3536 29.1927 24.6928 28.9426 24.9428C28.6926 25.1929 28.3535 25.3333 27.9998 25.3333H3.99984C3.64622 25.3333 3.30708 25.1929 3.05703 24.9428C2.80698 24.6928 2.6665 24.3536 2.6665 24V18.6667C2.6665 17.9594 2.94746 17.2811 3.44755 16.781C3.94765 16.281 4.62593 16 5.33317 16Z" stroke="#004851" stroke-width="1.5" stroke-linecap="round" stroke-linejoin="round"/>
<path d="M5.3335 16V9.33331C5.3335 8.27245 5.75492 7.25503 6.50507 6.50489C7.25521 5.75474 8.27263 5.33331 9.3335 5.33331H22.6668C23.7277 5.33331 24.7451 5.75474 25.4953 6.50489C26.2454 7.25503 26.6668 8.27245 26.6668 9.33331V16" stroke="#004851" stroke-width="1.5" stroke-linecap="round" stroke-linejoin="round"/>
<path d="M20.6668 10.6667H11.3335C10.2289 10.6667 9.3335 11.5621 9.3335 12.6667V14C9.3335 15.1046 10.2289 16 11.3335 16H20.6668C21.7714 16 22.6668 15.1046 22.6668 14V12.6667C22.6668 11.5621 21.7714 10.6667 20.6668 10.6667Z" stroke="#004851" stroke-width="1.5" stroke-linecap="round" stroke-linejoin="round"/>
<path d="M28 25.3334V28" stroke="#004851" stroke-width="1.5" stroke-linecap="round" stroke-linejoin="round"/>
<path d="M4 25.3334V28" stroke="#004851" stroke-width="1.5" stroke-linecap="round" stroke-linejoin="round"/>
</svg>
