<svg width="32" height="32" viewBox="0 0 32 32" fill="none" xmlns="http://www.w3.org/2000/svg">
<g clip-path="url(#clip0_5012_1041)">
<path d="M10.2159 10.7164C10.7973 10.5404 11.4113 10.8692 11.5873 11.4507C11.6615 11.6959 11.6477 11.9594 11.5484 12.1956C10.1439 15.3507 11.5632 19.047 14.7183 20.4515C16.3371 21.1721 18.1857 21.172 19.8045 20.4514C20.3645 20.2159 21.0094 20.4791 21.2448 21.0391C21.3441 21.2753 21.3579 21.5387 21.2837 21.7839C19.836 26.4487 14.8809 29.0567 10.2161 27.609C5.55127 26.1613 2.94328 21.2062 4.39096 16.5414C5.25453 13.7588 7.43324 11.58 10.2159 10.7164Z" stroke="#004851" stroke-width="1.5" stroke-linecap="round" stroke-linejoin="round"/>
<path d="M23.934 10.4384C24.1513 10.0337 24.6557 9.88179 25.0604 10.0992C25.2044 10.1765 25.3224 10.2945 25.3997 10.4384L26.046 11.6214C26.1226 11.762 26.2382 11.8775 26.3788 11.9541L27.5617 12.6005C27.9665 12.8178 28.1184 13.3222 27.901 13.7269C27.8237 13.8709 27.7057 13.9889 27.5617 14.0662L26.3788 14.7126C26.2382 14.7891 26.1226 14.9047 26.046 15.0453L25.3997 16.2282C25.1823 16.633 24.678 16.7849 24.2732 16.5675C24.1293 16.4902 24.0113 16.3722 23.934 16.2282L23.2876 15.0453C23.211 14.9047 23.0955 14.7891 22.9548 14.7126L21.7719 14.0662C21.3672 13.8488 21.2153 13.3445 21.4327 12.9397C21.51 12.7958 21.628 12.6778 21.7719 12.6005L22.9548 11.9541C23.0955 11.8775 23.211 11.762 23.2876 11.6214L23.934 10.4384Z" stroke="#004851" stroke-width="1.5" stroke-linecap="round" stroke-linejoin="round"/>
<path d="M16.7474 4.35077C16.9213 4.02697 17.3247 3.90544 17.6485 4.07932C17.7637 4.14117 17.8581 4.23558 17.92 4.35077L18.4371 5.2971C18.4983 5.4096 18.5907 5.50203 18.7032 5.56329L19.6496 6.08038C19.9734 6.25426 20.0949 6.65772 19.921 6.98152C19.8592 7.0967 19.7648 7.19112 19.6496 7.25297L18.7032 7.77006C18.5907 7.83132 18.4983 7.92375 18.4371 8.03625L17.92 8.98258C17.7461 9.30638 17.3426 9.42792 17.0188 9.25404C16.9036 9.19218 16.8092 9.09777 16.7474 8.98258L16.2303 8.03625C16.169 7.92375 16.0766 7.83132 15.9641 7.77006L15.0178 7.25297C14.694 7.07909 14.5724 6.67564 14.7463 6.35184C14.8082 6.23665 14.9026 6.14224 15.0178 6.08038L15.9641 5.56329C16.0766 5.50203 16.169 5.4096 16.2303 5.2971L16.7474 4.35077Z" stroke="#004851" stroke-width="1.5" stroke-linecap="round" stroke-linejoin="round"/>
</g>
<defs>
<clipPath id="clip0_5012_1041">
<rect width="32" height="32" fill="white"/>
</clipPath>
</defs>
</svg>
