<svg width="32" height="32" viewBox="0 0 32 32" fill="none" xmlns="http://www.w3.org/2000/svg">
<path d="M22.6668 28V25.3333C22.6668 23.9188 22.1049 22.5623 21.1047 21.5621C20.1045 20.5619 18.748 20 17.3335 20H6.66683C5.25234 20 3.89579 20.5619 2.89559 21.5621C1.8954 22.5623 1.3335 23.9188 1.3335 25.3333V28" stroke="#004851" stroke-width="1.5" stroke-linecap="round" stroke-linejoin="round"/>
<path d="M11.9998 14.6667C14.9454 14.6667 17.3332 12.2789 17.3332 9.33333C17.3332 6.38781 14.9454 4 11.9998 4C9.05432 4 6.6665 6.38781 6.6665 9.33333C6.6665 12.2789 9.05432 14.6667 11.9998 14.6667Z" stroke="#004851" stroke-width="1.5" stroke-linecap="round" stroke-linejoin="round"/>
<path d="M20 4C21.4145 4 22.771 4.5619 23.7712 5.5621C24.7714 6.56229 25.3333 7.91885 25.3333 9.33333C25.3333 10.7478 24.7714 12.1044 23.7712 13.1046C22.771 14.1048 21.4145 14.6667 20 14.6667" stroke="#004851" stroke-width="1.5" stroke-linecap="round" stroke-linejoin="round"/>
<path d="M30.6668 28V25.3333C30.6668 23.9188 30.1049 22.5623 29.1047 21.5621C28.1045 20.5619 26.748 20 25.3335 20" stroke="#004851" stroke-width="1.5" stroke-linecap="round" stroke-linejoin="round"/>
</svg>
