<svg width="32" height="32" viewBox="0 0 32 32" fill="none" xmlns="http://www.w3.org/2000/svg">
<g clip-path="url(#clip0_5012_1658)">
<path d="M20.6668 20.8384C19.397 22.0137 17.7305 22.6667 16.0002 22.6667C14.2699 22.6667 12.6033 22.0137 11.3335 20.8384" stroke="#004851" stroke-width="1.5" stroke-linecap="round" stroke-linejoin="round"/>
<path d="M4 22V14.613C4 13.7131 4.20238 12.8248 4.59217 12.0138C4.98196 11.2028 5.54916 10.4899 6.2518 9.92775L11.8353 5.4609C13.0174 4.51522 14.4862 4 16 4C17.5138 4 18.9826 4.51522 20.1647 5.4609L25.7482 9.92774C26.4508 10.4899 27.018 11.2028 27.4078 12.0138C27.7976 12.8248 28 13.7131 28 14.6129V22C28 23.5913 27.3679 25.1174 26.2426 26.2426C25.1174 27.3679 23.5913 28 22 28H10C8.4087 28 6.88258 27.3679 5.75736 26.2426C4.63214 25.1174 4 23.5913 4 22Z" stroke="#004851" stroke-width="1.5" stroke-linecap="round" stroke-linejoin="round"/>
</g>
<defs>
<clipPath id="clip0_5012_1658">
<rect width="32" height="32" fill="white"/>
</clipPath>
</defs>
</svg>
