<svg width="32" height="32" viewBox="0 0 32 32" fill="none" xmlns="http://www.w3.org/2000/svg">
<g clip-path="url(#clip0_5012_1124)">
<path d="M25.3335 17.3333V11.6727" stroke="#004851" stroke-width="1.5" stroke-linecap="round" stroke-linejoin="round"/>
<path d="M27.9998 20C27.9998 18.5273 26.8059 17.3334 25.3332 17.3334C23.8604 17.3334 22.6665 18.5273 22.6665 20V26.6667C22.6665 28.1395 23.8604 29.3334 25.3332 29.3334C26.8059 29.3334 27.9998 28.1395 27.9998 26.6667V20Z" stroke="#004851" stroke-width="1.5" stroke-linecap="round" stroke-linejoin="round"/>
<path d="M24.0541 4.36837L22.4744 7.52545C22.3492 7.77578 22.3059 8.05917 22.3507 8.33548C22.3955 8.61178 22.5261 8.86698 22.724 9.06491L25.3319 11.6728L27.9429 9.06177C28.1408 8.86385 28.2714 8.60865 28.3162 8.33235C28.361 8.05604 28.3177 7.77264 28.1925 7.52232L26.6144 4.36837C26.559 4.25768 26.4739 4.16459 26.3686 4.09952C26.2633 4.03446 26.142 4 26.0182 4H24.6503C24.5265 4 24.4052 4.03446 24.2999 4.09952C24.1946 4.16458 24.1095 4.25768 24.0541 4.36837Z" stroke="#004851" stroke-width="1.5" stroke-linecap="round" stroke-linejoin="round"/>
<path d="M6.6665 4L2.6665 8V10.6667H15.9998C16.3535 10.6667 16.6926 10.5262 16.9426 10.2761C17.1927 10.0261 17.3332 9.68696 17.3332 9.33333V5.33333C17.3332 4.97971 17.1927 4.64057 16.9426 4.39052C16.6926 4.14048 16.3535 4 15.9998 4H6.6665Z" stroke="#004851" stroke-width="1.5" stroke-linecap="round" stroke-linejoin="round"/>
<path d="M8 10.6666H13.3333V26.6666C13.3333 27.3739 13.0524 28.0521 12.5523 28.5522C12.0522 29.0523 11.3739 29.3333 10.6667 29.3333C9.95942 29.3333 9.28115 29.0523 8.78105 28.5522C8.28095 28.0521 8 27.3739 8 26.6666V10.6666Z" stroke="#004851" stroke-width="1.5" stroke-linecap="round" stroke-linejoin="round"/>
</g>
<defs>
<clipPath id="clip0_5012_1124">
<rect width="32" height="32" fill="white"/>
</clipPath>
</defs>
</svg>
