<svg width="32" height="32" viewBox="0 0 32 32" fill="none" xmlns="http://www.w3.org/2000/svg">
<g clip-path="url(#clip0_5012_1564)">
<path d="M10.6667 28C14.3486 28 17.3333 25.0153 17.3333 21.3334C17.3333 17.6515 14.3486 14.6667 10.6667 14.6667C6.98477 14.6667 4 17.6515 4 21.3334C4 25.0153 6.98477 28 10.6667 28Z" stroke="#004851" stroke-width="1.5" stroke-linecap="round" stroke-linejoin="round"/>
<path d="M10.6667 24C12.1394 24 13.3333 22.8061 13.3333 21.3334C13.3333 19.8606 12.1394 18.6667 10.6667 18.6667C9.19391 18.6667 8 19.8606 8 21.3334C8 22.8061 9.19391 24 10.6667 24Z" stroke="#004851" stroke-width="1.5" stroke-linecap="round" stroke-linejoin="round"/>
<path d="M27.9998 26.6667H25.8537C25.705 26.6667 25.5606 26.617 25.4434 26.5255C25.3262 26.434 25.243 26.3059 25.2069 26.1617L23.1715 18.0199C23.0272 17.443 22.6943 16.9308 22.2255 16.5648C21.7568 16.1988 21.1791 16 20.5844 16H14.6665" stroke="#004851" stroke-width="1.5" stroke-linecap="round" stroke-linejoin="round"/>
<path d="M21.3335 10.6667H9.3335" stroke="#004851" stroke-width="1.5" stroke-linecap="round" stroke-linejoin="round"/>
<path d="M18.6665 16V10.6667" stroke="#004851" stroke-width="1.5" stroke-linecap="round" stroke-linejoin="round"/>
<path d="M5.3335 4H6.66683C7.37407 4 8.05235 4.28095 8.55245 4.78105C9.05254 5.28115 9.3335 5.95942 9.3335 6.66667V14.6667" stroke="#004851" stroke-width="1.5" stroke-linecap="round" stroke-linejoin="round"/>
<path d="M24.6667 24H16.7769" stroke="#004851" stroke-width="1.5" stroke-linecap="round" stroke-linejoin="round"/>
</g>
<defs>
<clipPath id="clip0_5012_1564">
<rect width="32" height="32" fill="white"/>
</clipPath>
</defs>
</svg>
