<svg width="109" height="18" viewBox="0 0 109 18" fill="none" xmlns="http://www.w3.org/2000/svg">
<rect x="0.5" y="1.45078" width="22.4769" height="15.0985" rx="1.5" fill="white" stroke="#D9D9D9"/>
<path fill-rule="evenodd" clip-rule="evenodd" d="M7.12719 11.8563H5.70494L4.63843 7.78751C4.58781 7.60034 4.48033 7.43488 4.32222 7.35689C3.92766 7.16091 3.49287 7.00494 3.01855 6.92628V6.76963H5.30968C5.62589 6.76963 5.86305 7.00494 5.90257 7.27823L6.45594 10.2132L7.87749 6.76963H9.26021L7.12719 11.8563ZM10.0507 11.8563H8.70755L9.81358 6.76963H11.1568L10.0507 11.8563ZM12.8945 8.17879C12.9341 7.90483 13.1712 7.74818 13.4479 7.74818C13.8827 7.70885 14.3563 7.78751 14.7516 7.98281L14.9887 6.88763C14.5935 6.73098 14.1587 6.65231 13.7641 6.65231C12.4604 6.65231 11.5118 7.35689 11.5118 8.33476C11.5118 9.07868 12.1838 9.46928 12.6581 9.70459C13.1712 9.93923 13.3689 10.0959 13.3293 10.3305C13.3293 10.6825 12.9341 10.8391 12.5395 10.8391C12.0652 10.8391 11.5909 10.7218 11.1568 10.5258L10.9196 11.6217C11.3939 11.817 11.9071 11.8956 12.3814 11.8956C13.8432 11.9343 14.7516 11.2304 14.7516 10.1739C14.7516 8.84336 12.8945 8.76538 12.8945 8.17879ZM19.4524 11.8563L18.3859 6.76963H17.2403C17.0032 6.76963 16.766 6.92628 16.687 7.16091L14.712 11.8563H16.0948L16.3708 11.1131H18.0697L18.2278 11.8563H19.4524ZM17.438 8.13946L17.8325 10.0565H16.7265L17.438 8.13946Z" fill="#172B85"/>
<rect x="57.5156" y="1.45078" width="22.4769" height="15.0985" rx="1.5" fill="#1F72CD" stroke="#D9D9D9"/>
<path fill-rule="evenodd" clip-rule="evenodd" d="M61.4971 6.65231L59.3633 11.5132H61.9177L62.2344 10.7382H62.9583L63.2749 11.5132H66.0867V10.9217L66.3372 11.5132H67.7917L68.0422 10.9092V11.5132H73.8898L74.6009 10.7583L75.2667 11.5132L78.2701 11.5195L76.1296 9.09633L78.2701 6.65231H75.3132L74.6211 7.39326L73.9763 6.65231H67.6148L67.0685 7.90695L66.5095 6.65231H63.9604V7.22371L63.6768 6.65231H61.4971ZM70.2293 7.34257H73.5873L74.6144 8.4846L75.6745 7.34257H76.7016L75.1411 9.09565L76.7016 10.8285H75.6279L74.6009 9.67322L73.5353 10.8285H70.2293V7.34257ZM71.0586 8.70149V8.06476V8.06415H73.1538L74.0681 9.08245L73.1133 10.1063H71.0586V9.41118H72.8905V8.70149H71.0586ZM61.9913 7.34257H63.2365L64.6518 10.6388V7.34257H66.0159L67.1091 9.70593L68.1166 7.34257H69.4738V10.8306H68.6479L68.6412 8.09739L67.4372 10.8306H66.6985L65.4878 8.09739V10.8306H63.7888L63.4668 10.0486H61.7267L61.4052 10.8299H60.495L61.9913 7.34257ZM62.0238 9.32573L62.5971 7.93272L63.1697 9.32573H62.0238Z" fill="white"/>
<rect x="86.0234" y="1.45078" width="22.4769" height="15.0985" rx="1.5" fill="white" stroke="#D9D9D9"/>
<path d="M95.585 16.3785L108.33 12.5215V13.3785C108.33 15.0353 106.986 16.3785 105.33 16.3785H95.585Z" fill="#FD6020"/>
<path fill-rule="evenodd" clip-rule="evenodd" d="M105.91 7.06205C106.611 7.06205 106.997 7.38639 106.997 7.99905C107.032 8.46755 106.716 8.86397 106.296 8.93605L107.242 10.2695H106.506L105.7 8.97208H105.63V10.2695H105.034V7.06205H105.91ZM105.63 8.53964H105.805C106.191 8.53964 106.366 8.35945 106.366 8.0351C106.366 7.74679 106.191 7.5666 105.805 7.5666H105.63V8.53964ZM102.965 10.2695H104.648V9.72889H103.561V8.86397H104.613V8.32339H103.561V7.60263H104.648V7.06205H102.965V10.2695ZM101.212 9.22435L100.406 7.06205H99.775L101.072 10.3415H101.388L102.685 7.06205H102.054L101.212 9.22435ZM94.0957 8.68378C94.0957 9.58474 94.7969 10.3415 95.6733 10.3415C95.9538 10.3415 96.1992 10.2695 96.4446 10.1614V9.44059C96.2693 9.65682 96.0239 9.80097 95.7434 9.80097C95.1825 9.80097 94.7268 9.36851 94.7268 8.7919V8.71982C94.6917 8.14321 95.1475 7.63867 95.7084 7.60263C95.9888 7.60263 96.2693 7.74678 96.4446 7.96302V7.24225C96.2342 7.09809 95.9538 7.06206 95.7084 7.06206C94.7969 6.98998 94.0957 7.74678 94.0957 8.68378ZM93.0089 8.28736C92.6584 8.14321 92.5532 8.07113 92.5532 7.89094C92.5882 7.67471 92.7635 7.49452 92.9739 7.53055C93.1492 7.53055 93.3245 7.63867 93.4647 7.78282L93.7802 7.35036C93.5348 7.13413 93.2193 6.98998 92.9038 6.98998C92.413 6.95394 91.9923 7.35036 91.9572 7.8549V7.89094C91.9572 8.3234 92.1325 8.57567 92.6934 8.75586C92.8337 8.7919 92.9739 8.86397 93.1141 8.93605C93.2193 9.00813 93.2894 9.11624 93.2894 9.2604C93.2894 9.51267 93.0791 9.7289 92.8687 9.7289H92.8337C92.5532 9.7289 92.3078 9.5487 92.2026 9.29643L91.817 9.69286C92.0273 10.0893 92.448 10.3055 92.8687 10.3055C93.4296 10.3415 93.8854 9.90909 93.9204 9.33247V9.22436C93.8854 8.7919 93.7101 8.57567 93.0089 8.28736ZM90.9756 10.2695H91.5716V7.06205H90.9756V10.2695ZM88.2061 7.06206H89.0825H89.2578C90.0992 7.0981 90.7653 7.81887 90.7302 8.68379C90.7302 9.15229 90.5199 9.58475 90.1693 9.90909C89.8538 10.1614 89.4681 10.3055 89.0825 10.2695H88.2061V7.06206ZM88.9773 9.72889C89.2578 9.76493 89.5733 9.65681 89.7836 9.47662C89.994 9.26039 90.0992 8.97208 90.0992 8.64774C90.0992 8.35943 89.994 8.07112 89.7836 7.85489C89.5733 7.6747 89.2578 7.56659 88.9773 7.60262H88.802V9.72889H88.9773Z" fill="black"/>
<path fill-rule="evenodd" clip-rule="evenodd" d="M98.2328 6.9877C97.3563 6.9877 96.6201 7.70847 96.6201 8.64547C96.6201 9.54643 97.3213 10.3032 98.2328 10.3393C99.1443 10.3753 99.8454 9.6185 99.8805 8.68151C99.8454 7.74451 99.1443 6.9877 98.2328 6.9877V6.9877Z" fill="#FD6020"/>
<rect x="29.0078" y="1.45078" width="22.4769" height="15.0985" rx="1.5" fill="white" stroke="#D9D9D9"/>
<path fill-rule="evenodd" clip-rule="evenodd" d="M40.4143 12.4591C39.615 13.1489 38.5783 13.5652 37.4453 13.5652C34.9174 13.5652 32.8682 11.4922 32.8682 8.93494C32.8682 6.37769 34.9174 4.30463 37.4453 4.30463C38.5783 4.30463 39.615 4.72101 40.4143 5.41075C41.2136 4.72101 42.2504 4.30463 43.3833 4.30463C45.9112 4.30463 47.9605 6.37769 47.9605 8.93494C47.9605 11.4922 45.9112 13.5652 43.3833 13.5652C42.2504 13.5652 41.2136 13.1489 40.4143 12.4591Z" fill="#ED0006"/>
<path fill-rule="evenodd" clip-rule="evenodd" d="M40.4141 12.4591C41.3982 11.6098 42.0223 10.3461 42.0223 8.93494C42.0223 7.52376 41.3982 6.26003 40.4141 5.41075C41.2133 4.72101 42.2501 4.30463 43.383 4.30463C45.9109 4.30463 47.9602 6.37769 47.9602 8.93494C47.9602 11.4922 45.9109 13.5652 43.383 13.5652C42.2501 13.5652 41.2133 13.1489 40.4141 12.4591Z" fill="#F9A000"/>
<path fill-rule="evenodd" clip-rule="evenodd" d="M40.4148 5.41077C41.399 6.26005 42.023 7.52377 42.023 8.93494C42.023 10.3461 41.399 11.6098 40.4148 12.4591C39.4307 11.6098 38.8066 10.3461 38.8066 8.93494C38.8066 7.52377 39.4307 6.26005 40.4148 5.41077Z" fill="#FF5E00"/>
</svg>
