<svg width="82" height="56" viewBox="0 0 82 56" fill="none" xmlns="http://www.w3.org/2000/svg">
<rect x="0.5" y="0.5" width="81" height="55" rx="1.5" fill="white" stroke="#D9D9D9"/>
<path fill-rule="evenodd" clip-rule="evenodd" d="M41.5857 40.0328C38.794 42.4322 35.1727 43.8806 31.2156 43.8806C22.3862 43.8806 15.2285 36.6693 15.2285 27.7736C15.2285 18.878 22.3862 11.6667 31.2156 11.6667C35.1727 11.6667 38.794 13.1151 41.5857 15.5144C44.3774 13.1151 47.9986 11.6667 51.9557 11.6667C60.7851 11.6667 67.9428 18.878 67.9428 27.7736C67.9428 36.6693 60.7851 43.8806 51.9557 43.8806C47.9986 43.8806 44.3774 42.4322 41.5857 40.0328Z" fill="#ED0006"/>
<path fill-rule="evenodd" clip-rule="evenodd" d="M41.5859 40.0328C45.0234 37.0785 47.203 32.6825 47.203 27.7736C47.203 22.8647 45.0234 18.4687 41.5859 15.5144C44.3776 13.1151 47.9989 11.6667 51.956 11.6667C60.7854 11.6667 67.9431 18.878 67.9431 27.7736C67.9431 36.6693 60.7854 43.8806 51.956 43.8806C47.9989 43.8806 44.3776 42.4322 41.5859 40.0328Z" fill="#F9A000"/>
<path fill-rule="evenodd" clip-rule="evenodd" d="M41.5858 15.5145C45.0232 18.4688 47.2028 22.8648 47.2028 27.7736C47.2028 32.6825 45.0232 37.0785 41.5858 40.0328C38.1484 37.0785 35.9688 32.6825 35.9688 27.7736C35.9688 22.8648 38.1484 18.4688 41.5858 15.5145Z" fill="#FF5E00"/>
</svg>
