<svg width="82" height="56" viewBox="0 0 82 56" fill="none" xmlns="http://www.w3.org/2000/svg">
<rect x="0.5" y="0.5" width="81" height="55" rx="1.5" fill="white" stroke="#D9D9D9"/>
<path fill-rule="evenodd" clip-rule="evenodd" d="M24.8936 37.9359H19.926L16.2009 23.7822C16.0241 23.1311 15.6486 22.5556 15.0964 22.2843C13.7183 21.6025 12.1996 21.06 10.543 20.7863V20.2414H18.5454C19.6498 20.2414 20.4782 21.06 20.6162 22.0106L22.549 32.2202L27.5142 20.2414H32.3438L24.8936 37.9359ZM35.1049 37.9359H30.4134L34.2766 20.2414H38.9681L35.1049 37.9359ZM45.0377 25.1433C45.1758 24.1903 46.0041 23.6454 46.9705 23.6454C48.4891 23.5086 50.1434 23.7822 51.524 24.4616L52.3523 20.6519C50.9717 20.107 49.4531 19.8333 48.075 19.8333C43.5215 19.8333 40.2082 22.2843 40.2082 25.6859C40.2082 28.2737 42.5551 29.6324 44.2118 30.451C46.0041 31.2672 46.6944 31.8121 46.5563 32.6283C46.5563 33.8526 45.1758 34.3975 43.7976 34.3975C42.141 34.3975 40.4843 33.9894 38.9681 33.3077L38.1397 37.1197C39.7964 37.7991 41.5887 38.0728 43.2454 38.0728C48.3511 38.2072 51.524 35.7586 51.524 32.0834C51.524 27.4551 45.0377 27.1838 45.0377 25.1433ZM67.943 37.9359L64.2179 20.2414H60.2167C59.3883 20.2414 58.56 20.7863 58.2839 21.6025L51.3859 37.9359H56.2154L57.1794 35.3505H63.1134L63.6656 37.9359H67.943ZM60.9069 25.0065L62.2851 31.6753H58.4219L60.9069 25.0065Z" fill="#172B85"/>
</svg>
