<svg width="262" height="386" viewBox="0 0 262 386" fill="none" xmlns="http://www.w3.org/2000/svg">
<path d="M222.279 440.921C233.912 423.62 245.677 406.05 253.096 386.44C256.894 376.389 260.037 366.068 261.009 355.321C261.944 344.988 261.418 335.153 259.372 324.979C255.896 307.66 246.467 290.297 231.958 279.837C223.11 273.462 213.166 269.166 202.349 267.447C192.146 265.826 181.749 265.959 171.494 266.898C160.595 267.901 149.783 269.635 138.878 270.556C127.603 271.505 116.265 271.777 104.977 270.936C106.127 271.022 107.282 271.115 108.43 271.207C96.5318 270.277 84.7435 268.083 73.4849 264.062C74.6106 264.464 75.7363 264.867 76.862 265.27C68.1668 262.097 59.8994 257.907 52.3095 252.597C53.2914 253.285 54.267 253.971 55.2506 254.653C49.2306 250.377 43.7445 245.442 38.9731 239.802C39.7132 240.688 40.4516 241.58 41.1916 242.466C37.1943 237.66 33.7634 232.427 31.0946 226.764C31.5795 227.797 32.0581 228.829 32.535 229.866C30.0743 224.509 28.3098 218.892 27.248 213.094C27.4535 214.214 27.6589 215.334 27.8644 216.454C26.8921 210.875 26.5985 205.228 27.0285 199.573C26.9349 200.728 26.8492 201.878 26.7572 203.026C27.203 197.84 28.2597 192.764 30.0054 187.86C29.6026 188.985 29.1999 190.111 28.7971 191.237C30.3878 186.911 32.4781 182.833 35.0973 179.045C34.4112 180.021 33.7234 181.003 33.0357 181.985C35.3636 178.705 38.0821 175.78 41.1521 173.178C40.2662 173.918 39.374 174.657 38.4882 175.397C41.8822 172.592 45.5936 170.263 49.58 168.392C48.5468 168.877 47.5152 169.356 46.4774 169.833C50.4709 168.011 54.6424 166.682 58.9568 165.876C57.8367 166.081 56.7103 166.285 55.5902 166.491C59.6771 165.779 63.8033 165.55 67.9456 165.864C66.7973 165.772 65.6411 165.685 64.4928 165.593C68.2131 165.923 71.8424 166.693 75.367 167.954C74.2413 167.551 73.1156 167.149 71.99 166.746C75.1825 167.938 78.1728 169.508 80.9656 171.463C79.9837 170.775 79.0064 170.095 78.0245 169.408C81.584 171.973 84.698 175.018 87.5226 178.363C86.7826 177.478 86.0442 176.585 85.3041 175.699C96.7146 189.468 103.217 206.911 117.016 218.785C132.055 231.719 152.779 235.331 171.702 230.121C180.989 227.561 189.497 222.553 196.429 215.904C203.46 209.159 208.128 200.217 210.668 190.888C215.376 173.618 211.562 152.933 200.24 138.938C195.995 133.696 191.607 129.796 185.986 126.045C181.033 122.743 175.571 120.511 169.999 118.513C159.001 114.575 147.483 112.378 136.483 108.447C137.609 108.85 138.735 109.252 139.86 109.655C134.561 107.723 129.442 105.34 124.791 102.119C125.773 102.807 126.749 103.493 127.731 104.18C123.963 101.513 120.598 98.3729 117.626 94.8465C118.366 95.7324 119.105 96.6246 119.845 97.5105C116.654 93.6424 114.001 89.4059 111.852 84.8731C112.337 85.9063 112.815 86.9379 113.299 87.9774C110.924 82.8516 109.238 77.4721 108.218 71.9206C108.423 73.0407 108.627 74.1671 108.832 75.2872C107.896 69.8998 107.598 64.4473 107.982 58.9888C107.888 60.1434 107.803 61.2934 107.711 62.4417C108.173 56.566 109.455 50.8226 111.391 45.2608C110.988 46.3865 110.585 47.5122 110.182 48.6379C112.58 41.9529 115.892 35.6814 119.955 29.8537C119.268 30.8293 118.587 31.8129 117.899 32.7948C122.56 26.2174 128.078 20.3415 134.266 15.1845C133.374 15.9229 132.488 16.6629 131.602 17.403C138.294 11.9022 145.656 7.36986 153.504 3.71596C152.473 4.19455 151.439 4.67944 150.402 5.15635C160.332 0.597707 170.831 -2.50777 181.573 -4.483C180.453 -4.27757 179.326 -4.07381 178.206 -3.86838C187.929 -5.61121 197.776 -6.43745 207.643 -6.55734C214.65 -6.64165 220.979 -13.6079 220.311 -20.6019C219.603 -28.0451 213.753 -33.3604 206.267 -33.2699C167.831 -32.7967 126.994 -21.0219 101.884 9.84453C88.8981 25.8059 80.7465 45.4355 81.1 66.2048C81.4206 84.9835 88.8303 103.444 101.744 117.063C109.964 125.73 120.484 130.975 131.61 134.86C141.85 138.433 152.544 140.483 162.777 144.081C161.651 143.678 160.526 143.275 159.4 142.873C164.848 144.831 170.089 147.26 174.847 150.584C173.871 149.898 172.889 149.21 171.907 148.523C174.721 150.551 177.254 152.847 179.512 155.488C178.772 154.602 178.034 153.71 177.294 152.824C179.757 155.783 181.789 159.017 183.438 162.499C182.959 161.467 182.474 160.434 181.997 159.396C183.687 163.078 184.895 166.92 185.654 170.906C185.449 169.785 185.245 168.659 185.04 167.539C185.787 171.716 186.018 175.937 185.715 180.164C185.801 179.014 185.894 177.859 185.986 176.711C185.656 180.734 184.845 184.669 183.518 188.487C183.921 187.361 184.324 186.235 184.727 185.11C183.479 188.557 181.826 191.808 179.749 194.831C180.437 193.849 181.123 192.874 181.804 191.89C179.779 194.745 177.424 197.295 174.754 199.56C175.64 198.82 176.532 198.081 177.418 197.341C174.45 199.788 171.205 201.811 167.722 203.439C168.753 202.96 169.787 202.475 170.825 201.999C167.134 203.672 163.282 204.865 159.302 205.605C160.422 205.399 161.548 205.196 162.668 204.99C158.49 205.718 154.266 205.934 150.038 205.61C151.187 205.702 152.343 205.789 153.491 205.881C149.466 205.531 145.535 204.707 141.729 203.363C142.854 203.766 143.98 204.169 145.106 204.572C141.663 203.305 138.42 201.648 135.409 199.553C136.384 200.239 137.368 200.921 138.35 201.609C134.649 198.966 131.437 195.759 128.53 192.27C129.27 193.156 130.008 194.048 130.748 194.934C122.968 185.427 117.693 174.219 110.327 164.426C105.808 158.423 100.898 153.049 94.7274 148.733C88.7736 144.562 82.1745 141.567 75.0124 140.12C47.3619 134.531 17.4498 149.961 6.2544 175.894C-5.20725 202.443 0.0595454 234.31 18.3788 256.509C28.2697 268.502 40.524 278.115 54.5849 284.836C67.9704 291.233 82.5061 295.175 97.2286 296.835C112.495 298.553 127.821 298.439 143.104 297C156.865 295.706 170.529 293.192 184.374 292.918C187.714 292.856 191.05 292.934 194.38 293.186C193.225 293.092 192.075 293.007 190.927 292.915C196.616 293.394 202.209 294.434 207.612 296.307C206.487 295.904 205.361 295.501 204.235 295.099C208.68 296.701 212.864 298.82 216.729 301.527C215.754 300.841 214.772 300.153 213.79 299.465C217.482 302.113 220.779 305.207 223.702 308.687C222.962 307.801 222.224 306.909 221.484 306.023C224.881 310.149 227.675 314.693 229.943 319.534C229.458 318.501 228.98 317.469 228.501 316.438C231.103 322.123 232.941 328.096 234.106 334.239C233.9 333.119 233.697 331.993 233.491 330.872C234.801 338.059 235.17 345.364 234.613 352.65C234.698 351.5 234.792 350.345 234.884 349.197C234.13 358.176 231.914 366.973 228.895 375.446C229.298 374.32 229.701 373.195 230.104 372.069C222.701 392.499 210.576 410.707 198.52 428.63C196.738 431.28 196.73 435.916 197.655 438.826C198.652 441.951 201.226 445.25 204.256 446.648C207.399 448.097 211.104 448.739 214.452 447.513C217.994 446.218 220.186 444.027 222.274 440.913" fill="#26BAA9"/>
</svg>
