<svg width="263" height="386" viewBox="0 0 263 386" fill="none" xmlns="http://www.w3.org/2000/svg">
<path d="M26.5566 30.8711C29.0499 25.4309 32.1356 20.3349 35.7584 15.5833C35.0146 16.5474 34.2707 17.5115 33.5269 18.4756C37.9762 12.7323 43.1143 7.62264 48.8448 3.16026C47.8805 3.90398 46.9163 4.64771 45.9658 5.39144C51.9029 0.832645 58.3634 -2.9411 65.2509 -5.88848C64.1214 -5.40643 62.978 -4.93814 61.8485 -4.4561C68.736 -7.34838 75.9404 -9.34544 83.3376 -10.3509C82.0703 -10.1856 80.8168 -10.0065 79.5495 -9.84126C86.2993 -10.709 93.0904 -10.7089 99.854 -9.81369C98.5866 -9.97896 97.3331 -10.158 96.0658 -10.3233C103.16 -9.33168 110.048 -7.40345 116.66 -4.6489C115.53 -5.13094 114.387 -5.59923 113.257 -6.08128C120.048 -3.18899 126.426 0.529648 132.308 5.00581C131.344 4.26207 130.38 3.51835 129.415 2.77462C135.256 7.2921 140.504 12.4844 145.05 18.2965C144.306 17.3324 143.562 16.3684 142.818 15.418C147.047 20.9271 150.588 26.9046 153.301 33.3089C152.819 32.1796 152.351 31.0364 151.869 29.907C154.486 36.215 156.235 42.7983 157.172 49.547C157.007 48.2799 156.828 47.0128 156.662 45.7595C157.627 53.1693 157.599 60.6479 156.649 68.0576C156.814 66.7905 156.993 65.5234 157.158 64.2701C156.111 71.9002 154.1 79.3376 151.152 86.4443C151.635 85.315 152.103 84.1718 152.585 83.0424C149.747 89.7222 146.125 96.0026 141.703 101.76C142.447 100.796 143.19 99.8315 143.934 98.8674C140.435 103.357 136.509 107.572 132.005 111.056C132.969 110.313 133.934 109.569 134.898 108.825C131.674 111.249 128.217 113.288 124.511 114.871C125.641 114.389 126.784 113.907 127.914 113.439C124.87 114.692 121.715 115.615 118.45 116.083L122.238 115.574C119.911 115.849 117.61 115.877 115.282 115.574C116.549 115.739 117.803 115.918 119.07 116.083C117.39 115.822 115.778 115.381 114.194 114.747C115.323 115.229 116.467 115.712 117.596 116.18C116.191 115.56 114.883 114.816 113.643 113.907C114.607 114.651 115.571 115.395 116.522 116.138C115.227 115.119 114.084 113.99 113.05 112.709C113.794 113.673 114.538 114.637 115.282 115.588C114.166 114.1 113.257 112.516 112.527 110.808C113.009 111.938 113.478 113.081 113.96 114.21C113.106 112.062 112.568 109.858 112.238 107.572C112.403 108.839 112.582 110.092 112.747 111.359C112.307 107.71 112.417 104.06 112.899 100.41C112.734 101.677 112.555 102.93 112.389 104.197C113.174 98.8123 114.717 93.5786 116.797 88.5516C116.315 89.6809 115.833 90.8241 115.365 91.9534C117.844 86.1275 121.054 80.7011 124.897 75.674C124.153 76.6381 123.409 77.6022 122.666 78.5525C126.812 73.2224 131.578 68.4708 136.895 64.3114C135.931 65.0552 134.967 65.7989 134.002 66.5426C139.499 62.3006 145.463 58.7748 151.841 56.034C150.712 56.5161 149.568 56.9981 148.439 57.4664C154.596 54.8633 161.029 53.0453 167.655 52.1363C166.388 52.3016 165.134 52.4806 163.867 52.6459C169.707 51.8884 175.576 51.8608 181.416 52.6183L177.628 52.1088C183.483 52.9214 189.144 54.5328 194.585 56.8328C193.456 56.3508 192.312 55.8687 191.183 55.4004C196.844 57.8382 202.134 60.9784 207.024 64.7109C206.06 63.9671 205.096 63.2234 204.131 62.4797C209.862 66.9145 214.945 72.0793 219.394 77.795C218.65 76.8309 217.907 75.8668 217.163 74.9027C221.998 81.2244 225.993 88.1246 229.119 95.438C228.637 94.3086 228.155 93.1654 227.687 92.0361C230.841 99.5836 233.032 107.475 234.147 115.574C233.982 114.307 233.803 113.053 233.638 111.786C234.85 121.097 234.712 130.503 233.472 139.8C233.638 138.533 233.817 137.28 233.982 136.013C232.426 147.182 229.271 158.035 224.918 168.434C225.4 167.304 225.882 166.161 226.351 165.032C221.02 177.538 214.022 189.258 205.743 200.029C206.487 199.064 207.231 198.1 207.975 197.15C203.264 203.224 197.988 208.788 191.927 213.54C192.891 212.796 193.855 212.052 194.806 211.308C190.646 214.504 186.21 217.258 181.389 219.324C182.518 218.842 183.662 218.36 184.791 217.892C181.595 219.2 178.317 220.164 174.901 220.66C176.168 220.495 177.422 220.316 178.689 220.151C175.975 220.495 173.289 220.509 170.575 220.164C171.843 220.33 173.096 220.509 174.363 220.674C172.022 220.33 169.776 219.724 167.572 218.842C168.702 219.324 169.845 219.806 170.975 220.275C168.936 219.407 167.049 218.346 165.272 217.024L168.151 219.255C166.374 217.864 164.79 216.294 163.385 214.531C164.129 215.495 164.872 216.459 165.616 217.424C164.018 215.344 162.737 213.099 161.69 210.689C162.172 211.818 162.655 212.961 163.123 214.091C161.966 211.295 161.194 208.402 160.781 205.414C160.947 206.681 161.126 207.934 161.291 209.201C160.905 206.185 160.905 203.155 161.263 200.139C161.098 201.406 160.919 202.659 160.754 203.926C161.139 201.089 161.856 198.348 162.916 195.704C162.434 196.833 161.952 197.976 161.484 199.106C162.476 196.778 163.702 194.63 165.217 192.605C164.473 193.569 163.729 194.533 162.985 195.497C164.817 193.142 166.897 191.076 169.253 189.244C168.289 189.988 167.324 190.732 166.374 191.476C168.909 189.575 171.622 188.019 174.529 186.752L171.126 188.184C174.639 186.724 178.289 185.76 182.064 185.223C180.796 185.388 179.543 185.567 178.276 185.732C182.284 185.223 186.307 185.237 190.315 185.76C189.048 185.595 187.794 185.416 186.527 185.25C190.315 185.801 193.993 186.793 197.519 188.28C196.39 187.798 195.247 187.316 194.117 186.848C197.878 188.501 201.39 190.594 204.655 193.087C203.691 192.343 202.726 191.6 201.762 190.856C205.509 193.789 208.829 197.178 211.763 200.938C211.019 199.973 210.275 199.009 209.531 198.045C212.989 202.563 215.799 207.493 218.031 212.727C217.548 211.598 217.066 210.455 216.598 209.325C219.091 215.344 220.675 221.611 221.557 228.056C221.392 226.789 221.213 225.536 221.047 224.269C222.191 233.221 221.956 242.228 220.799 251.153C220.965 249.886 221.144 248.633 221.309 247.366C219.325 262.006 215.138 276.316 209.421 289.924C209.903 288.794 210.385 287.651 210.854 286.522C204.434 301.672 196.004 315.899 185.948 328.928C186.692 327.964 187.436 327 188.18 326.036C177.669 339.561 165.479 351.681 151.938 362.148C152.902 361.404 153.866 360.661 154.817 359.917C141.413 370.205 126.784 378.799 111.232 385.397C112.362 384.914 113.505 384.432 114.635 383.964C99.8402 390.176 84.3157 394.514 68.4054 396.69C69.6727 396.525 70.94 396.346 72.1936 396.181C71.5737 396.263 70.9538 396.346 70.3339 396.429C66.408 396.924 63.1709 397.696 60.2506 400.602C57.771 403.067 55.9114 407.13 56.0767 410.683C56.242 414.374 57.4542 418.19 60.2506 420.765C62.8403 423.134 66.6835 425.407 70.3339 424.938C81.3402 423.547 92.1813 421.564 102.843 418.41C113.188 415.339 123.272 411.331 133.024 406.717C151.827 397.833 169.184 385.837 184.571 371.885C215.675 343.665 239.079 305.253 247.303 263.865C252.482 237.807 251.697 208.871 236.062 186.297C229.188 176.367 220.207 167.539 209.09 162.498C197.271 157.14 184.86 155.721 172.104 158.132C161.002 160.225 149.871 166.437 142.832 175.348C135.628 184.465 131.578 195.883 132.611 207.631C133.617 219.063 137.873 230.756 146.786 238.468C157.503 247.737 171.209 250.63 184.97 247.751C197.327 245.162 208.581 237.449 217.659 228.965C226.626 220.591 234.037 210.275 240.443 199.849C253.639 178.336 262.194 153.559 262.951 128.203C263.626 105.685 257.303 82.6293 244.369 64.0773C231.585 45.7182 213.127 30.8711 191.018 25.7201C147.378 15.5558 101.273 44.1343 87.4151 85.9898C83.7922 96.953 82.1392 110.161 86.2166 121.248C89.013 128.837 93.6965 135.241 100.653 139.525C106.246 142.982 113.312 144.621 119.842 144.318C144.444 143.188 164.266 123.617 174.763 102.669C185.26 81.7203 188.579 57.6868 183.317 34.7688C178.097 12.0713 163.715 -7.11426 145.146 -20.7355C127.542 -33.6407 104.51 -40.651 82.6902 -38.6677C59.3001 -36.5467 37.1635 -26.4375 20.5094 -9.79995C12.9193 -2.22491 6.3899 6.75497 1.913 16.5199C0.27376 20.1008 -0.607837 23.5715 0.480396 27.5105C1.38955 30.816 3.95171 34.397 7.03734 36.0222C10.3434 37.7713 14.3519 38.639 18.0161 37.4545C21.3497 36.3802 25.0139 34.2179 26.5291 30.8987" fill="#F0EC77"/>
</svg>
