<svg width="617" height="880" viewBox="0 0 617 880" fill="none" xmlns="http://www.w3.org/2000/svg">
<g opacity="0.1">
<path d="M766.186 641.092C704.732 686.14 639.72 726.277 571.827 760.871C552.399 770.771 532.8 780.483 512.731 789.016C515.799 787.72 518.859 786.432 521.926 785.136C504.7 792.342 487.012 798.26 468.458 800.782C471.869 800.321 475.28 799.868 478.691 799.408C468.888 800.579 459.154 800.805 449.35 799.587C452.761 800.048 456.172 800.501 459.583 800.961C450.911 799.736 442.552 797.518 434.442 794.216C437.509 795.512 440.569 796.8 443.637 798.096C436.776 795.153 430.359 791.522 424.396 787.018C426.995 789.024 429.587 791.031 432.186 793.037C427.307 789.18 422.968 784.886 419.143 779.975C421.149 782.575 423.155 785.167 425.161 787.767C422.117 783.653 419.58 779.312 417.504 774.635C418.799 777.704 420.087 780.764 421.383 783.832C419.276 778.711 417.824 773.48 416.957 768.015C417.418 771.427 417.871 774.838 418.331 778.25C417.465 771.598 417.519 765.032 418.347 758.381C417.886 761.792 417.433 765.204 416.973 768.616C418.167 760.606 420.407 752.931 423.498 745.452C422.203 748.52 420.915 751.58 419.619 754.649C423.694 745.288 428.931 736.629 435.168 728.557C433.162 731.156 431.156 733.749 429.15 736.348C437.041 726.449 446.314 717.993 456.305 710.249C453.706 712.255 451.114 714.262 448.515 716.268C469.028 700.669 491.82 688.583 513.364 674.53C537.459 658.806 558.605 640.764 575.785 617.631C592.083 595.684 602.651 566.766 600.7 539.167C598.608 509.64 586.431 483.267 566.402 461.586C527.976 419.997 467.053 407.654 414.046 424.97C358.416 443.145 316.219 484.758 286.167 533.819C270.837 558.842 258.669 585.613 246.726 612.361C235.283 637.992 223.778 663.865 206.543 686.233C208.549 683.634 210.555 681.041 212.561 678.442C205.653 687.186 198.012 695.243 189.207 702.106C191.806 700.099 194.398 698.093 196.997 696.086C189.457 701.77 181.393 706.47 172.706 710.178C175.773 708.882 178.833 707.594 181.901 706.298C174.423 709.335 166.758 711.521 158.781 712.731C162.192 712.271 165.603 711.818 169.014 711.357C161.77 712.294 154.605 712.372 147.361 711.42C150.772 711.88 154.183 712.333 157.594 712.794C152.185 711.935 147.002 710.537 141.905 708.531C144.973 709.827 148.033 711.115 151.1 712.411C145.722 710.116 140.773 707.251 136.106 703.737C138.705 705.744 141.296 707.75 143.896 709.757C138.97 705.853 134.654 701.45 130.774 696.508C132.78 699.108 134.787 701.7 136.793 704.299C132.273 698.28 128.628 691.808 125.67 684.891C126.965 687.959 128.253 691.019 129.549 694.087C126.232 685.913 123.999 677.497 122.75 668.761C123.211 672.172 123.664 675.584 124.124 678.996C122.821 668.644 123.094 658.354 124.452 648.017C123.991 651.428 123.539 654.84 123.078 658.252C125.451 642.2 130.392 626.843 136.66 611.916C135.364 614.984 134.076 618.044 132.781 621.113C154.043 571.575 184.445 525.052 217.26 482.463C215.254 485.063 213.248 487.655 211.242 490.255C251.12 438.773 297.392 392.476 348.885 352.612C346.286 354.619 343.694 356.625 341.095 358.632C357.143 346.28 373.644 334.53 390.621 323.499C407.879 312.28 426.004 302.333 442.755 290.341C462.924 275.898 482.243 259.19 494.256 237.049C507.33 212.963 512.208 186.176 506.94 159.218C502.225 135.07 484.827 112.905 463.431 101.124C443.769 90.2948 420.727 86.1101 398.435 87.008C353.92 88.8037 309.615 105.714 270.439 125.935C247.054 138.005 225.589 152.823 204.958 169.109C186.795 183.459 170.552 200.05 152.232 214.212C154.831 212.206 157.423 210.199 160.022 208.193C150.327 215.555 140.172 222.23 128.964 227.063C132.031 225.767 135.091 224.479 138.158 223.183C132.07 225.666 125.888 227.485 119.378 228.422C122.789 227.961 126.2 227.508 129.611 227.047C124.936 227.586 120.338 227.633 115.655 227.149C119.066 227.61 122.477 228.062 125.888 228.523C120.635 227.805 115.608 226.454 110.722 224.409C113.79 225.705 116.849 226.993 119.917 228.289C116.35 226.665 113.04 224.729 109.887 222.41C112.486 224.416 115.077 226.423 117.677 228.429C113.883 225.478 110.581 222.129 107.615 218.35C109.621 220.95 111.627 223.542 113.633 226.142C110.433 221.832 107.85 217.241 105.726 212.315C107.022 215.383 108.31 218.444 109.606 221.512C106.944 214.962 105.227 208.201 104.275 201.198C104.735 204.609 105.188 208.021 105.648 211.433C104.735 203.711 104.782 196.021 105.75 188.308C105.289 191.719 104.837 195.131 104.376 198.543C105.469 190.868 107.428 183.467 110.41 176.3C109.114 179.368 107.826 182.429 106.53 185.497C110.23 177.065 115.116 169.266 120.635 161.919C118.629 164.519 116.623 167.111 114.617 169.711C126.481 154.346 141.109 141.636 156.4 129.8C153.801 131.806 151.209 133.813 148.61 135.819C182.798 109.579 217.697 84.6659 249.825 55.8179C280.126 28.6017 308.522 -0.722489 334.796 -31.8502C388.873 -95.9168 434.933 -166.596 470.012 -242.803C490.212 -286.68 507.408 -331.939 520.646 -378.4C526.157 -397.762 513.91 -421.176 493.756 -425.767C473.259 -430.436 452.301 -419.607 446.4 -398.871C436.58 -364.378 424.638 -330.549 410.705 -297.509C412.001 -300.577 413.289 -303.638 414.584 -306.706C384.51 -235.855 345.333 -169.087 298.297 -108.166C300.303 -110.766 302.309 -113.358 304.315 -115.958C258.356 -56.6929 205.154 -3.24433 145.824 42.647C148.423 40.6405 151.014 38.634 153.613 36.6276C127.16 56.989 98.4594 75.1409 74.7227 98.7736C62.3665 111.078 50.9002 125.248 42.837 140.769C34.1495 157.492 29.794 174.192 28.2641 192.93C25.7585 223.69 36.5536 259.112 59.9312 280.137C75.8546 294.463 94.4864 302.068 115.663 304.144C135.645 306.104 155.128 299.889 172.862 291.27C206.918 274.711 232.403 244.622 261.869 221.629C259.269 223.636 256.678 225.642 254.079 227.649C278.869 208.536 305.954 192.734 334.765 180.516C331.697 181.812 328.637 183.1 325.57 184.396C347.722 175.152 371.045 167.197 394.899 163.855C391.488 164.316 388.077 164.769 384.666 165.229C396.015 163.762 407.419 163.41 418.784 164.894C415.373 164.433 411.962 163.98 408.551 163.519C415.021 164.48 421.282 166.026 427.37 168.43C424.302 167.134 421.242 165.846 418.175 164.55C423.046 166.611 427.557 169.141 431.78 172.326C429.181 170.32 426.589 168.313 423.99 166.307C427.331 168.992 430.289 171.944 432.974 175.293C430.968 172.693 428.962 170.101 426.956 167.501C429.438 170.804 431.476 174.223 433.201 177.979C431.905 174.91 430.617 171.85 429.321 168.782C431.148 173.161 432.389 177.604 433.154 182.288C432.693 178.876 432.241 175.465 431.78 172.053C432.561 178.01 432.506 183.889 431.78 189.853C432.241 186.442 432.693 183.03 433.154 179.618C432.162 186.317 430.375 192.734 427.869 199.027C429.165 195.959 430.453 192.898 431.749 189.83C428.853 196.654 425.239 203.009 420.829 208.973C422.835 206.374 424.841 203.782 426.847 201.182C419.853 210.215 411.571 217.983 402.603 225.025C405.202 223.019 407.794 221.012 410.393 219.006C396.897 229.366 382.246 237.97 367.782 246.878C353.639 255.583 339.776 264.741 326.233 274.367C297.064 295.088 269.026 317.573 242.753 341.877C192.672 388.213 148.548 441.467 111.815 498.96C92.1838 529.689 74.4028 561.715 60.7196 595.552C46.3574 631.036 40.3627 672.828 53.4293 709.679C66.5504 746.693 95.1265 779.437 135.356 786.776C177.655 794.489 219.438 779.21 250.8 750.597C280.485 723.513 297.579 686.265 313.651 650.265C329.925 613.813 346.863 577.283 371.349 545.491C369.343 548.091 367.337 550.683 365.331 553.283C376.236 539.363 388.42 526.723 402.369 515.839C399.769 517.846 397.178 519.852 394.579 521.859C406.123 513.052 418.518 505.588 431.85 499.819C428.783 501.115 425.723 502.403 422.655 503.699C434.051 498.936 445.838 495.54 458.085 493.823C454.674 494.283 451.263 494.736 447.852 495.197C458.022 493.924 468.224 493.807 478.395 495.126C474.984 494.666 471.573 494.213 468.162 493.752C476.779 495.033 485.045 497.391 493.085 500.74C490.017 499.444 486.957 498.156 483.89 496.86C492.429 500.584 500.36 505.292 507.728 510.983C505.129 508.977 502.537 506.97 499.938 504.964C506.69 510.358 512.716 516.409 518.008 523.248C516.002 520.648 513.996 518.056 511.99 515.457C516.384 521.351 520.076 527.605 523.027 534.342C521.731 531.274 520.443 528.214 519.148 525.145C521.716 531.368 523.534 537.746 524.557 544.406C524.096 540.994 523.644 537.582 523.183 534.171C524.088 541.127 524.042 547.982 523.128 554.938C523.589 551.526 524.042 548.114 524.502 544.703C523.37 551.987 521.341 558.951 518.508 565.751C519.803 562.683 521.091 559.622 522.387 556.554C518.64 565.072 513.824 572.887 508.181 580.265C510.187 577.665 512.193 575.073 514.199 572.473C505.558 583.435 495.458 592.983 484.483 601.571C487.082 599.565 489.674 597.558 492.273 595.552C454.104 624.86 406.193 642.856 375.322 681.166C356.285 704.791 344.139 730.727 341.064 761.113C338.199 789.407 349.338 817.404 367.923 838.335C404.562 879.604 466.32 884.187 516.072 869.08C542.533 861.046 567.729 848.656 592.496 836.485C615.515 825.172 638.221 813.235 660.584 800.68C710.587 772.629 758.825 741.493 805.065 707.594C813.409 701.481 819.911 694.915 822.76 684.578C825.297 675.358 824.15 663.085 818.881 654.903C813.581 646.682 805.689 639.444 795.87 637.203C786.371 635.041 774.413 635.072 766.201 641.084L766.186 641.092Z" fill="#A29B96"/>
</g>
</svg>
