<svg width="1600" height="788" viewBox="0 0 1600 788" fill="none" xmlns="http://www.w3.org/2000/svg">
<g clip-path="url(#clip0_5165_23875)">
<rect width="1600" height="788" transform="translate(0 0.00830078)" fill="#F9F8F4"/>
<path d="M861.293 763.722C907.154 703.594 948.215 639.842 983.832 573.124C994.026 554.03 1004.04 534.768 1012.89 515.009C1011.55 518.027 1010.2 521.046 1008.86 524.064C1016.34 507.112 1022.55 489.669 1025.41 471.293C1024.89 474.675 1024.37 478.047 1023.86 481.42C1025.2 471.709 1025.62 462.063 1024.59 452.305C1024.99 455.696 1025.38 459.095 1025.76 462.486C1024.7 453.853 1022.67 445.52 1019.56 437.405C1020.79 440.474 1022.01 443.542 1023.23 446.61C1020.44 439.745 1016.97 433.304 1012.62 427.304C1014.56 429.92 1016.5 432.536 1018.44 435.152C1014.71 430.234 1010.53 425.847 1005.74 421.959C1008.28 424.002 1010.81 426.044 1013.35 428.087C1009.33 424.991 1005.07 422.385 1000.47 420.229C1003.49 421.568 1006.51 422.916 1009.52 424.255C1004.49 422.063 999.325 420.518 993.916 419.553C997.287 420.076 1000.67 420.599 1004.04 421.112C997.46 420.125 990.946 420.053 984.335 420.748C987.733 420.357 991.121 419.965 994.51 419.583C986.54 420.608 978.888 422.69 971.411 425.617C974.478 424.396 977.545 423.167 980.611 421.946C971.243 425.806 962.565 430.839 954.434 436.871C957.049 434.929 959.663 432.986 962.278 431.044C952.306 438.686 943.742 447.726 935.868 457.493C937.909 454.955 939.95 452.416 941.992 449.877C926.132 469.94 913.699 492.327 899.345 513.433C883.288 537.048 864.986 557.685 841.71 574.293C819.629 590.047 790.744 599.973 763.415 597.504C734.171 594.86 708.246 582.269 687.13 561.964C646.631 523.023 635.566 462.319 653.76 410.036C672.855 355.175 714.946 314.1 764.175 285.205C789.288 270.47 816.067 258.912 842.832 247.574C868.473 236.717 894.353 225.791 916.872 209.113C914.258 211.055 911.643 212.997 909.029 214.94C917.839 208.254 925.97 200.823 932.945 192.218C930.903 194.757 928.862 197.295 926.821 199.834C932.602 192.458 937.416 184.543 941.265 175.996C939.918 179.014 938.58 182.033 937.242 185.051C940.391 177.688 942.713 170.126 944.063 162.226C943.541 165.599 943.018 168.98 942.505 172.353C943.576 165.188 943.788 158.07 942.978 150.858C943.368 154.258 943.759 157.648 944.141 161.039C943.396 155.657 942.108 150.476 940.224 145.383C941.453 148.452 942.672 151.52 943.901 154.588C941.73 149.207 938.976 144.243 935.586 139.533C937.527 142.149 939.468 144.765 941.409 147.381C937.632 142.416 933.349 138.045 928.518 134.102C931.056 136.144 933.593 138.187 936.13 140.229C930.243 135.626 923.901 131.882 917.099 128.815C920.115 130.162 923.132 131.501 926.149 132.849C918.111 129.401 909.796 127.018 901.161 125.616C904.541 126.139 907.912 126.652 911.282 127.175C901.041 125.677 890.832 125.753 880.548 126.907C883.946 126.516 887.335 126.124 890.723 125.742C874.765 127.791 859.434 132.394 844.507 138.33C847.574 137.11 850.64 135.88 853.707 134.66C804.173 154.808 757.441 184.081 714.571 215.833C717.186 213.891 719.8 211.949 722.415 210.006C670.586 248.597 623.785 293.631 583.259 343.971C585.3 341.432 587.341 338.894 589.383 336.355C576.824 352.038 564.86 368.199 553.581 384.83C542.122 401.741 531.908 419.545 519.692 435.939C504.981 455.676 488.039 474.529 465.848 486.029C441.71 498.543 415.054 502.871 388.42 497.123C364.561 491.979 342.91 474.287 331.649 452.829C321.296 433.099 317.584 410.151 318.909 388.041C321.549 343.896 339.174 300.242 359.979 261.753C372.405 238.771 387.507 217.752 404.063 197.594C418.644 179.838 435.408 164.045 449.81 146.13C447.769 148.669 445.727 151.208 443.686 153.746C451.18 144.273 457.989 134.321 463.001 123.282C461.663 126.301 460.316 129.319 458.978 132.338C461.553 126.344 463.48 120.238 464.538 113.794C464.015 117.176 463.493 120.549 462.979 123.931C463.599 119.298 463.743 114.739 463.349 110.077C463.74 113.468 464.131 116.868 464.513 120.258C463.901 115.035 462.665 110.018 460.722 105.126L464.399 114.331C462.86 110.763 461.006 107.435 458.765 104.256C460.706 106.872 462.648 109.488 464.589 112.104C461.73 108.281 458.478 104.936 454.781 101.92C457.318 103.963 459.855 106.005 462.392 108.048C458.179 104.793 453.68 102.136 448.834 99.9302C451.851 101.269 454.868 102.617 457.885 103.955C451.442 101.188 444.77 99.3575 437.847 98.2721C441.227 98.795 444.598 99.3085 447.968 99.8312C440.322 98.7774 432.704 98.6751 425.03 99.486C428.419 99.0947 431.816 98.7127 435.205 98.3214C427.566 99.261 420.193 101.065 413.03 103.879C416.096 102.65 419.163 101.429 422.23 100.2C413.791 103.711 405.97 108.405 398.574 113.747C401.188 111.805 403.803 109.862 406.418 107.92C390.953 119.405 378.066 133.673 366.033 148.626C368.075 146.087 370.116 143.548 372.157 141.01C345.474 174.439 320.093 208.598 290.866 239.92C263.299 269.474 233.659 297.095 202.287 322.57C137.716 375.003 66.7227 419.365 -9.52096 452.709C-53.4258 471.907 -98.6338 488.107 -144.98 500.345C-164.287 505.447 -187.279 492.83 -191.439 472.745C-195.675 452.31 -184.528 431.718 -163.854 426.259C-129.457 417.172 -95.6764 405.979 -62.6342 392.788C-65.7008 394.008 -68.7675 395.238 -71.8341 396.458C-0.984627 367.974 65.9849 330.372 127.305 284.87C124.691 286.813 122.076 288.755 119.462 290.698C179.127 246.225 233.159 194.447 279.809 136.445C277.768 138.984 275.727 141.522 273.685 144.061C294.391 118.196 312.939 90.0575 336.845 66.9515C349.286 54.9235 363.565 43.818 379.112 36.1108C395.867 27.8146 412.511 23.8043 431.12 22.6573C461.676 20.7642 496.589 32.1673 517.001 55.7687C530.906 71.847 538.083 90.4827 539.729 111.543C541.281 131.414 534.748 150.633 525.857 168.07C508.777 201.549 478.444 226.267 455.076 255.07C457.118 252.531 459.159 249.993 461.2 247.454C441.769 271.689 425.572 298.264 412.895 326.635C414.242 323.617 415.58 320.598 416.918 317.58C407.329 339.391 398.987 362.388 395.212 385.995C395.734 382.622 396.257 379.24 396.77 375.867C395.099 387.099 394.532 398.416 395.783 409.723C395.392 406.323 395.001 402.933 394.611 399.533C395.436 405.977 396.859 412.221 399.116 418.309C397.887 415.24 396.668 412.172 395.448 409.104C397.4 413.978 399.816 418.496 402.895 422.753C400.954 420.137 399.013 417.521 397.071 414.904C399.665 418.274 402.54 421.265 405.804 423.998C403.267 421.955 400.73 419.913 398.193 417.87C401.415 420.392 404.773 422.487 408.458 424.269C405.441 422.93 402.424 421.582 399.407 420.244C403.711 422.147 408.099 423.457 412.734 424.306C409.363 423.783 405.983 423.261 402.612 422.747C408.507 423.639 414.335 423.697 420.268 423.09C416.871 423.481 413.482 423.873 410.085 424.255C416.753 423.397 423.145 421.747 429.432 419.382C426.366 420.603 423.299 421.832 420.232 423.062C427.056 420.324 433.429 416.854 439.424 412.591C436.809 414.534 434.195 416.476 431.58 418.419C440.676 411.647 448.535 403.58 455.696 394.814C453.655 397.352 451.613 399.891 449.572 402.43C460.108 389.24 468.922 374.856 478.034 360.678C486.948 346.808 496.294 333.22 506.092 319.971C527.206 291.425 550.053 264.02 574.655 238.422C621.575 189.605 675.24 146.835 732.964 111.486C763.815 92.5924 795.917 75.5703 829.74 62.632C865.211 49.0674 906.769 43.9137 943.063 57.5928C979.52 71.3299 1011.44 100.33 1017.95 140.393C1024.78 182.528 1008.82 223.699 979.839 254.277C952.413 283.212 915.135 299.466 879.119 314.721C842.652 330.177 806.099 346.28 774.096 369.97C776.711 368.027 779.325 366.085 781.94 364.143C767.928 374.695 755.151 386.543 744.086 400.189C746.127 397.65 748.168 395.112 750.21 392.573C741.255 403.864 733.617 416.013 727.632 429.145C728.98 426.127 730.317 423.108 731.665 420.09C726.722 431.313 723.134 442.946 721.18 455.059C721.703 451.686 722.225 448.304 722.739 444.931C721.282 455.006 720.967 465.121 722.077 475.245C721.686 471.846 721.295 468.455 720.913 465.056C722.016 473.635 724.195 481.879 727.356 489.931C726.136 486.863 724.908 483.794 723.688 480.726C727.213 489.27 731.737 497.239 737.24 504.66C735.299 502.044 733.358 499.428 731.416 496.812C736.639 503.616 742.524 509.719 749.199 515.105C746.662 513.063 744.125 511.021 741.588 508.978C747.349 513.451 753.48 517.246 760.109 520.291L751.059 516.266C757.184 518.936 763.47 520.869 770.054 522.011C766.683 521.489 763.303 520.975 759.933 520.452C766.811 521.491 773.617 521.569 780.522 520.798C777.134 521.189 773.736 521.571 770.348 521.962C777.595 520.978 784.539 519.102 791.344 516.418C788.277 517.639 785.211 518.868 782.144 520.089C790.656 516.533 798.504 511.903 805.939 506.443C803.324 508.386 800.71 510.328 798.095 512.27C809.131 503.909 818.798 494.058 827.523 483.329C825.482 485.867 823.441 488.406 821.399 490.945C851.209 453.627 869.973 406.42 908.566 376.514C932.363 358.069 958.319 346.514 988.512 344.047C1016.63 341.75 1044.18 353.348 1064.58 372.195C1104.81 409.356 1108.16 470.743 1092.23 519.833C1083.75 545.945 1070.98 570.712 1058.43 595.062C1046.77 617.684 1034.48 639.992 1021.61 661.95C992.821 711.037 961.008 758.318 926.502 803.564C920.276 811.726 913.638 818.052 903.335 820.677C894.142 823.022 881.998 821.643 873.979 816.257C865.925 810.835 858.906 802.863 856.876 793.077C854.913 783.612 855.171 771.741 861.294 763.704" fill="white"/>
</g>
<defs>
<clipPath id="clip0_5165_23875">
<rect width="1600" height="788" fill="white" transform="translate(0 0.00830078)"/>
</clipPath>
</defs>
</svg>
