<svg width="546" height="590" viewBox="0 0 546 590" fill="none" xmlns="http://www.w3.org/2000/svg">
<g opacity="0.08">
<path d="M737.066 1155.17C768.935 1101.36 801.149 1046.72 819.985 986.729C829.638 955.972 837.263 924.539 838.325 892.196C839.347 861.093 836.053 831.75 828.168 801.637C814.749 750.397 783.493 700.028 738.206 671.227C710.597 653.673 680.049 642.52 647.331 639.245C616.484 636.158 585.346 638.341 554.774 642.936C522.292 647.813 490.187 654.874 457.658 659.508C424.036 664.299 390.108 667.064 356.132 666.506C359.599 666.577 363.065 666.648 366.54 666.718C330.717 665.98 295.02 661.464 260.588 651.356C264.031 652.369 267.474 653.382 270.918 654.395C244.316 646.407 218.806 635.286 195.152 620.693C198.202 622.578 201.26 624.463 204.31 626.348C185.538 614.582 168.244 600.759 152.969 584.697C155.336 587.226 157.71 589.763 160.076 592.292C147.262 578.579 136.076 563.523 127.114 547.029C128.734 550.037 130.353 553.053 131.972 556.061C123.671 540.447 117.414 523.937 113.239 506.753C114.049 510.075 114.851 513.397 115.661 516.72C111.793 500.171 109.922 483.316 110.236 466.327C110.166 469.791 110.095 473.255 110.024 476.726C110.464 461.128 112.752 445.734 117.131 430.748C116.117 434.188 115.102 437.628 114.088 441.068C118.105 427.85 123.663 415.267 130.864 403.47C128.977 406.518 127.091 409.573 125.204 412.62C131.619 402.402 139.244 393.158 148.001 384.856C145.47 387.22 142.931 389.592 140.399 391.956C150.084 382.979 160.807 375.36 172.418 369.061C169.407 370.679 166.388 372.297 163.378 373.915C175.036 367.757 187.299 363.068 200.097 359.911C196.772 360.72 193.446 361.521 190.121 362.33C202.251 359.487 214.577 358.089 227.045 358.325C223.578 358.254 220.111 358.183 216.637 358.112C227.846 358.466 238.86 360.147 249.622 363.304C246.179 362.291 242.735 361.278 239.292 360.264C249.064 363.288 258.293 367.467 266.995 372.831C263.945 370.946 260.887 369.061 257.837 367.176C268.937 374.237 278.81 382.814 287.85 392.349C285.484 389.82 283.11 387.283 280.744 384.754C317.322 424.017 339.812 475.108 383.229 508.268C430.537 544.398 493.253 551.631 549.067 532.758C576.463 523.498 601.076 507.027 620.713 485.915C640.618 464.513 653.054 436.929 659.052 408.568C670.168 356.047 655.169 294.761 618.819 254.83C605.203 239.868 591.376 228.951 573.869 218.693C558.461 209.661 541.709 203.919 524.651 198.908C491.005 189.02 456.11 184.425 422.472 174.568C425.915 175.582 429.358 176.595 432.801 177.608C416.576 172.731 400.846 166.494 386.35 157.658C389.4 159.543 392.458 161.428 395.508 163.313C383.756 155.962 373.136 147.165 363.608 137.104C365.974 139.633 368.348 142.17 370.714 144.699C360.487 133.664 351.808 121.443 344.584 108.256C346.203 111.264 347.823 114.28 349.442 117.288C341.44 102.357 335.457 86.5389 331.448 70.0845C332.258 73.4068 333.06 76.7291 333.869 80.0514C330.127 64.0839 328.304 47.8101 328.5 31.4106C328.429 34.8742 328.359 38.3379 328.288 41.8095C328.665 24.1297 331.511 6.7249 336.353 -10.2715C335.339 -6.83139 334.325 -3.39125 333.311 0.0488742C339.341 -20.3877 348.192 -39.7403 359.347 -57.8835C357.46 -54.836 355.574 -51.7808 353.687 -48.7334C366.517 -69.2249 382.034 -87.7764 399.683 -104.286C397.151 -101.922 394.612 -99.5498 392.081 -97.1857C411.191 -114.81 432.463 -129.647 455.347 -141.954C452.336 -140.337 449.318 -138.719 446.307 -137.101C475.291 -152.463 506.208 -163.585 538.054 -171.353C534.729 -170.544 531.403 -169.743 528.078 -168.934C556.905 -175.837 586.274 -180.008 615.832 -182.074C636.805 -183.542 654.579 -205.495 651.364 -226.316C647.944 -248.473 629.518 -263.388 607.082 -261.817C491.988 -253.766 371.634 -211.448 301.733 -114.693C265.58 -64.6459 244.543 -4.48298 249.197 57.6513C253.403 113.816 278.81 167.798 319.861 206.354C345.983 230.891 378.434 244.777 412.433 254.485C443.736 263.423 476.14 267.695 507.427 276.712C503.984 275.699 500.541 274.685 497.097 273.672C513.771 278.605 529.878 284.967 544.72 294.101C541.67 292.216 538.612 290.331 535.562 288.446C544.343 294.03 552.337 300.471 559.554 307.979C557.188 305.45 554.814 302.913 552.448 300.384C560.332 308.812 566.998 318.158 572.525 328.282C570.905 325.274 569.286 322.258 567.667 319.25C573.366 329.987 577.658 341.289 580.622 353.07C579.812 349.748 579.01 346.425 578.201 343.103C581.164 355.481 582.587 368.072 582.414 380.795C582.485 377.332 582.556 373.868 582.626 370.396C582.328 382.5 580.582 394.422 577.265 406.07C578.279 402.63 579.293 399.19 580.307 395.75C577.155 406.29 572.776 416.304 567.069 425.713C568.956 422.666 570.842 419.611 572.729 416.563C567.156 425.462 560.537 433.512 552.927 440.746C555.458 438.382 557.997 436.01 560.529 433.646C552.054 441.484 542.676 448.106 532.52 453.588C535.53 451.97 538.549 450.352 541.56 448.734C530.79 454.381 519.462 458.622 507.655 461.528C510.98 460.719 514.305 459.918 517.631 459.109C505.234 462.015 492.624 463.382 479.889 463.154C483.356 463.225 486.823 463.295 490.298 463.366C478.184 463.013 466.258 461.222 454.616 457.853C458.059 458.866 461.502 459.879 464.945 460.892C454.412 457.695 444.404 453.281 435.01 447.54C438.06 449.425 441.118 451.31 444.169 453.195C432.628 445.914 422.44 436.866 413.125 426.931C415.491 429.46 417.865 431.997 420.231 434.526C395.272 407.413 377.522 374.763 353.75 346.716C339.168 329.508 323.516 314.278 304.304 302.419C285.744 290.967 265.454 283.137 243.734 280.042C159.895 268.088 72.9276 319.462 43.8808 399.041C14.1343 480.512 35.4222 575.005 94.1604 638.31C125.888 672.507 164.266 699.18 207.557 716.867C248.773 733.707 293.023 743.014 337.423 745.417C383.473 747.915 429.382 744.93 474.929 737.987C515.933 731.735 556.465 721.847 597.9 718.627C607.892 717.849 617.907 717.519 627.922 717.7C624.455 717.629 620.989 717.558 617.514 717.488C634.643 717.935 651.592 720.087 668.1 724.753C664.657 723.74 661.214 722.726 657.771 721.713C671.363 725.735 684.27 731.35 696.337 738.796C693.287 736.911 690.229 735.026 687.179 733.141C698.703 740.438 709.119 749.132 718.474 759.044C716.108 756.515 713.734 753.978 711.368 751.449C722.263 763.223 731.429 776.339 739.062 790.437C737.443 787.429 735.824 784.413 734.204 781.405C742.993 797.977 749.533 815.547 754.085 833.729C753.275 830.407 752.473 827.085 751.664 823.762C756.821 845.055 759.195 866.866 758.786 888.764C758.857 885.3 758.927 881.836 758.998 878.365C758.291 905.383 753.165 932.087 745.587 957.982C746.601 954.542 747.615 951.102 748.629 947.662C729.975 1010.11 696.785 1066.72 663.769 1122.46C658.879 1130.71 659.657 1144.59 662.935 1153.15C666.457 1162.34 674.751 1171.77 684.066 1175.43C693.735 1179.23 704.961 1180.51 714.779 1176.27C725.164 1171.77 731.351 1164.83 737.081 1155.15L737.066 1155.17Z" fill="white"/>
</g>
</svg>
