<?xml version="1.0" encoding="UTF-8" standalone="no"?>
<svg
   width="1"
   height="1"
   viewBox="0 0 1 1"
   fill="none"
   version="1.1"
   id="svg12"
   xml:space="preserve"
   xmlns="http://www.w3.org/2000/svg"
   xmlns:svg="http://www.w3.org/2000/svg"><defs
     id="defs16" /><path
     d="M 0.71739097,0 C 0.87347254,4.0817137e-8 1,0.12652828 1,0.28260898 1,0.37002162 0.96031121,0.4481614 0.89797333,0.49999998 0.96031114,0.55183862 1,0.62997838 1,0.717391 1,0.87347251 0.87347254,1 0.71739097,1 H 0.28260887 C 0.1265283,1 1.0378679e-7,0.87347251 0,0.717391 0,0.62998001 0.03968851,0.5518386 0.10202513,0.49999998 0.03968851,0.4481614 0,0.37001997 0,0.28260898 1.0378679e-7,0.12652828 0.1265283,4.0817137e-8 0.28260887,0 Z"
     fill="#000000"
     id="clip-shape1"
     style="stroke-width:0.00166391" /><path
     d="M 0.31664008,1.0562862e-4 C 0.40710668,-0.00275136 0.52540236,0.05286267 0.63499506,0.10438624 c 0.0260889,0.0122657 0.0516868,0.0242996 0.0762974,0.0352576 0.007218,0.003214 0.0143579,0.006384 0.0214159,0.009518 0.12937271,0.05744 0.2307643,0.10245468 0.2598024,0.17184045 0.030621,0.0731711 -0.040141,0.40003196 -0.0774569,0.53782071 -0.019291,0.0712279 -0.0766785,0.11452549 -0.10400743,0.12636394 -0.0902192,0.039081 -0.22550701,-0.004906 -0.41079812,-0.0651516 l -0.005915,-0.001922 c -0.006565,-0.002134 -0.0130701,-0.004246 -0.0195089,-0.006336 C 0.2104784,0.85841903 0.08791692,0.81862618 0.02520397,0.75166293 -0.02331855,0.69985046 0.00730929,0.58210403 0.04109634,0.46626227 c 0.0115919,-0.0397432 0.006903,-0.0339201 0.039751,-0.14171673 0.0149438,-0.0490404 0.0240929,-0.080211 0.03698,-0.12039982 C 0.15321224,0.0937972 0.19322814,0.00400329 0.31664008,1.0562862e-4 Z"
     fill="#000000"
     id="clip-shape2"
     style="fill:#ffccaa;stroke-width:0.00171373" /><path
     d="M 0.70444492,0 C 0.86767536,3.3e-7 0.99999998,0.22385834 0.99999998,0.50000004 0.99999998,0.77614175 0.86767536,1 0.70444492,1 0.59055797,1 0.49171595,0.89102761 0.44236377,0.73135632 0.39538987,0.79930512 0.33296087,0.84072637 0.26444493,0.84072637 0.1183958,0.84072637 0,0.65252364 0,0.42036225 0,0.188203 0.1183958,0 0.26444493,0 0.35306963,0 0.43150724,0.06930612 0.4794913,0.17567899 0.5337014,0.06817047 0.61436811,0 0.70444492,0 Z"
     fill="#000000"
     id="clip-shape3"
     style="fill:#d38d5f;stroke-width:0.00168906" /><path
     d="m 0.44134071,0.99750181 c 0.11635399,0.005508 0.23445582,0.005451 0.34697502,-0.0383974 0.041661,-0.0162332 0.0832785,-0.039276 0.11557429,-0.0811881 0.0368074,-0.0477705 0.0583784,-0.11602795 0.0727336,-0.1850114 0.0162609,-0.0781593 0.0245566,-0.16004733 0.023245,-0.24174737 -0.001591,-0.099348 -0.0195377,-0.2036609 -0.0681582,-0.27280613 C 0.89128418,0.1208578 0.83505356,0.09480415 0.780236,0.07605746 0.6509095,0.03184279 0.51780037,0.01797796 0.38535068,0.00425135 0.34326358,-1.0990489e-4 0.300462,-0.00439793 0.25931404,0.00929608 0.21907188,0.02268893 0.18231524,0.05271337 0.14787745,0.08608181 0.11172357,0.12111824 0.07676693,0.16127258 0.05281816,0.21426712 0.02301372,0.2802143 0.01256347,0.36062983 0.00550369,0.43908324 -0.00592252,0.56607973 -0.0032038,0.71989443 0.04932627,0.82987776 c 0.04053998,0.0848741 0.12117589,0.11319831 0.18595581,0.13544257 0.0674364,0.0231583 0.13705841,0.0289013 0.20605863,0.0321722"
     fill="#000000"
     id="clip-shape4"
     style="fill:#f4e3d7;stroke-width:0.00164255" /><path
     id="clip-shape5"
     d="m 0.70145828,0.39005971 c 0,0.18022747 -0.0853388,0.4658724 -0.19783221,0.4658724 -0.0830147,0 -0.21043603,-0.26366959 -0.21043603,-0.44389767 C 0.29319004,0.23180697 0.40665122,0 0.5239911,0 0.65296648,0 0.70145828,0.20983163 0.70145828,0.39005971 Z m 0.2783169,0.0659254 C 1.0411741,0.6320737 0.95115769,0.79435175 0.86498831,0.83292589 0.77881346,0.87150003 0.69206484,0.79468509 0.63066594,0.61860454 0.56926704,0.44251535 0.67055665,0.23635081 0.7567315,0.19777667 0.86498831,0.14931856 0.93904294,0.30765278 0.97977518,0.45598511 Z M 0.36980041,0.60871255 c 0.0613994,0.17608363 0.0416994,0.33662094 -0.063382,0.38365806 C 0.2202447,1.0309447 0.10061302,0.91946925 0.03921369,0.74338253 -0.02218559,0.56729828 -0.01214778,0.33523925 0.07402614,0.29666511 0.19136601,0.23403599 0.30840097,0.43262645 0.36980041,0.60871255 Z"
     style="fill:#000000;stroke-width:0.00580788" /><path
     id="clip-shape6"
     style="fill:#c87137;stroke-width:0.00152809"
     d="m 0.94492299,0.30129172 c 0.0390332,0.1574813 0.0958291,0.42304469 0.0108946,0.45923902 C 0.89313778,0.78724172 0.73982617,0.5978463 0.70079293,0.440365 0.66176103,0.2828837 0.69722494,0.04382533 0.78582072,0.00607033 0.88320314,-0.03542898 0.90589109,0.1438099 0.94492299,0.30129172 Z M 0.55689463,0.43959617 c 0,0.16558987 -0.0677518,0.42803593 -0.15705961,0.42803593 -0.0659065,0 -0.16706758,-0.24225696 -0.16706758,-0.40784683 0,-0.16558986 0.0900784,-0.37856859 0.18323554,-0.37856859 0.10239708,0 0.14089165,0.19278963 0.14089165,0.35837949 z m 0.22096078,0.0605708 C 0.82660062,0.66195125 0.75513813,0.81105253 0.68672363,0.84649379 0.61830914,0.88193505 0.54943731,0.81135901 0.5006921,0.64957474 0.45194689,0.48779047 0.53236402,0.29837053 0.60077852,0.26292927 0.68672363,0.21840747 0.74551949,0.36388179 0.77785541,0.50016697 Z M 0.29358862,0.64048894 C 0.34233516,0.80227496 0.3266952,0.94977029 0.24326874,0.99298737 0.17485425,1.0284286 0.07987795,0.92600851 0.03113221,0.7642225 -0.0176134,0.60243823 -0.00964425,0.3892285 0.05877014,0.35378724 c 0.0931575,-0.0575428 0.18607327,0.12491744 0.23481848,0.2867017 z" /><path
     d="m 0.23444079,0 c 0.078936,1.498491e-7 0.14876072,0.0607725 0.19124471,0.15391983 0.0429276,-0.08918098 0.10530593,-0.14530796 0.17473428,-0.14530796 0.0964047,2e-7 0.1792155,0.10821065 0.21523217,0.2628751 0.0179388,-0.0157973 0.0386634,-0.0248122 0.0607399,-0.0248142 0.068267,0 0.12360774,0.0862095 0.12360774,0.19255544 0,0.10634391 -0.0553407,0.19255343 -0.12360774,0.19255343 -0.0212517,0 -0.0412489,-0.008358 -0.0587162,-0.0230726 C 0.78281055,0.76813873 0.6986757,0.8805414 0.60041983,0.8805414 c -0.0423477,0 -0.0820709,-0.020884 -0.11635879,-0.0574069 -0.017758,0.10191057 -0.0775633,0.1768664 -0.14860633,0.1768664 -0.0850347,-2.01e-6 -0.15397073,-0.10738811 -0.15397073,-0.23985503 0,-0.0130695 6.7316e-4,-0.0258945 0.001964,-0.0383969 C 0.07849051,0.68548266 2.3893104e-7,0.53962756 0,0.36521031 0,0.16351102 0.10496324,0 0.23444079,0 Z"
     fill="#000000"
     id="clip-shape7"
     style="fill:#803300;stroke-width:0.00166958" /></svg>
