<svg width="628" height="966" viewBox="0 0 628 966" fill="none" xmlns="http://www.w3.org/2000/svg">
<path d="M-330.703 980.046C-250.931 1038.47 -166.545 1090.53 -78.4184 1135.4C-53.1983 1148.24 -27.7631 1160.84 -1.70636 1171.91C-5.68658 1170.23 -9.66684 1168.55 -13.6471 1166.88C8.70435 1176.22 31.6654 1183.9 55.7619 1187.17C51.3275 1186.58 46.905 1185.98 42.4825 1185.39C55.2121 1186.91 67.834 1187.21 80.5636 1185.62C76.1411 1186.22 71.7067 1186.81 67.2842 1187.4C78.5436 1185.8 89.3846 1182.93 99.9149 1178.66C95.9347 1180.34 91.9545 1182.01 87.9742 1183.7C96.879 1179.87 105.21 1175.17 112.943 1169.33C109.573 1171.93 106.202 1174.53 102.831 1177.14C109.166 1172.13 114.796 1166.57 119.756 1160.2C117.151 1163.57 114.545 1166.94 111.939 1170.31C115.884 1164.97 119.183 1159.34 121.884 1153.27C120.211 1157.25 118.525 1161.23 116.852 1165.2C119.589 1158.56 121.477 1151.78 122.601 1144.68C122.003 1149.1 121.406 1153.53 120.82 1157.95C121.944 1149.33 121.872 1140.81 120.796 1132.19C121.394 1136.62 121.991 1141.04 122.577 1145.46C121.035 1135.07 118.119 1125.11 114.103 1115.41C115.776 1119.39 117.461 1123.37 119.135 1127.35C113.852 1115.2 107.051 1103.98 98.9587 1093.51C101.564 1096.87 104.17 1100.24 106.776 1103.61C96.5323 1090.77 84.496 1079.8 71.5274 1069.76C74.898 1072.36 78.2687 1074.97 81.6393 1077.57C55.0089 1057.35 25.4261 1041.66 -2.5311 1023.43C-33.8112 1003.04 -61.2544 979.64 -83.558 949.632C-104.714 921.165 -118.424 883.656 -115.89 847.867C-113.177 809.569 -97.3752 775.356 -71.3663 747.236C-21.488 693.301 57.5906 677.294 126.402 699.752C198.608 723.32 253.375 777.303 292.4 840.926C312.301 873.383 328.091 908.097 343.593 942.799C358.438 976.044 373.379 1009.6 395.755 1038.62C393.149 1035.25 390.543 1031.88 387.938 1028.51C396.902 1039.86 406.823 1050.3 418.249 1059.2C414.879 1056.59 411.508 1053.99 408.138 1051.39C417.927 1058.76 428.397 1064.85 439.669 1069.66C435.688 1067.98 431.708 1066.31 427.728 1064.63C437.433 1068.56 447.378 1071.41 457.741 1072.97C453.318 1072.37 448.884 1071.78 444.461 1071.19C453.856 1072.41 463.167 1072.51 472.574 1071.26C468.14 1071.86 463.717 1072.46 459.295 1073.04C466.311 1071.93 473.052 1070.12 479.662 1067.52C475.682 1069.21 471.702 1070.88 467.721 1072.57C474.702 1069.59 481.12 1065.86 487.192 1061.31C483.822 1063.92 480.451 1066.52 477.08 1069.13C483.475 1064.06 489.081 1058.35 494.113 1051.94C491.507 1055.3 488.901 1058.67 486.296 1062.04C492.164 1054.23 496.898 1045.84 500.735 1036.87C499.049 1040.85 497.376 1044.83 495.691 1048.81C499.994 1038.21 502.898 1027.28 504.512 1015.95C503.914 1020.39 503.328 1024.81 502.731 1029.23C504.428 1015.8 504.069 1002.46 502.3 989.041C502.898 993.473 503.496 997.893 504.081 1002.31C500.997 981.503 494.591 961.578 486.451 942.214C488.125 946.192 489.81 950.17 491.483 954.148C463.885 889.904 424.429 829.554 381.83 774.317C384.435 777.685 387.041 781.054 389.647 784.423C337.88 717.646 277.818 657.607 210.979 605.906C214.349 608.51 217.72 611.114 221.091 613.719C200.269 597.699 178.838 582.469 156.809 568.146C134.41 553.596 110.875 540.694 89.1336 525.141C62.9574 506.41 37.8808 484.741 22.2826 456.023C5.30984 424.785 -1.02509 390.047 5.8118 355.082C11.9315 323.76 34.5101 295.007 62.2761 279.74C87.8069 265.704 117.712 260.269 146.65 261.439C204.429 263.769 261.945 285.701 312.791 311.922C343.151 327.583 371.013 346.792 397.786 367.924C421.369 386.535 442.442 408.049 466.227 426.422C462.857 423.818 459.486 421.213 456.115 418.609C468.69 428.166 481.873 436.814 496.432 443.086C492.451 441.414 488.471 439.729 484.491 438.057C492.392 441.27 500.424 443.635 508.874 444.854C504.44 444.257 500.017 443.659 495.583 443.074C501.655 443.767 507.619 443.839 513.703 443.205C509.281 443.803 504.846 444.4 500.424 444.985C507.237 444.054 513.763 442.31 520.11 439.646L508.169 444.687C512.795 442.584 517.098 440.076 521.197 437.065C517.827 439.669 514.456 442.274 511.086 444.878C516.01 441.043 520.301 436.707 524.15 431.797C521.544 435.166 518.938 438.535 516.333 441.903C520.48 436.313 523.839 430.364 526.6 423.973C524.927 427.951 523.241 431.929 521.568 435.907C525.022 427.413 527.245 418.645 528.489 409.566C527.891 413.998 527.305 418.418 526.708 422.838C527.891 412.815 527.831 402.853 526.576 392.842C527.174 397.262 527.759 401.694 528.357 406.114C526.935 396.151 524.389 386.559 520.528 377.265C522.213 381.243 523.887 385.221 525.572 389.199C520.767 378.257 514.432 368.151 507.261 358.618C509.866 361.987 512.472 365.355 515.078 368.724C499.671 348.798 480.69 332.313 460.837 316.963C464.207 319.567 467.578 322.171 470.949 324.776C426.568 290.742 381.268 258.429 339.577 221.015C300.241 185.727 263.379 147.68 229.278 107.316C159.092 24.2334 99.2934 -67.45 53.7658 -166.277C27.5537 -223.186 5.22614 -281.876 -11.9498 -342.154C-19.1094 -367.264 -3.20044 -397.641 22.9519 -403.59C49.5585 -409.647 76.7627 -395.599 84.4243 -368.709C97.1778 -323.972 112.668 -280.096 130.753 -237.234C129.079 -241.212 127.394 -245.19 125.721 -249.168C164.758 -157.27 215.616 -70.6753 276.659 8.33365C274.053 4.96497 271.447 1.59625 268.841 -1.77243C328.497 75.0982 397.559 144.419 474.57 203.933C471.2 201.329 467.829 198.724 464.458 196.12C498.798 222.532 536.055 246.065 566.868 276.73C582.909 292.689 597.79 311.074 608.26 331.202C619.532 352.896 625.197 374.553 627.17 398.851C630.421 438.75 616.4 484.681 586.064 511.965C565.398 530.552 541.218 540.408 513.727 543.095C487.79 545.628 462.498 537.577 439.477 526.395C395.276 504.917 362.192 465.89 323.943 436.074C327.314 438.678 330.684 441.282 334.055 443.886C301.879 419.099 266.726 398.6 229.314 382.748C233.294 384.432 237.275 386.105 241.255 387.777C212.497 375.796 182.221 365.475 151.263 361.138C155.686 361.736 160.12 362.333 164.543 362.918C149.817 361.019 135.008 360.565 120.258 362.488C124.693 361.891 129.115 361.294 133.55 360.696C125.147 361.939 117.019 363.958 109.118 367.063C113.099 365.379 117.079 363.707 121.059 362.034C114.736 364.71 108.891 367.983 103.405 372.116C106.776 369.512 110.146 366.908 113.517 364.304C109.178 367.78 105.341 371.615 101.851 375.951C104.457 372.582 107.063 369.214 109.668 365.845C106.453 370.122 103.8 374.565 101.564 379.427C103.238 375.449 104.923 371.471 106.596 367.493C104.218 373.168 102.616 378.938 101.624 385.018C102.222 380.598 102.819 376.166 103.405 371.746C102.389 379.475 102.461 387.096 103.405 394.837C102.807 390.405 102.21 385.985 101.624 381.554C102.915 390.25 105.234 398.564 108.485 406.723C106.812 402.745 105.126 398.767 103.441 394.789C107.194 403.641 111.891 411.884 117.617 419.613C115.011 416.244 112.405 412.875 109.8 409.507C118.884 421.225 129.629 431.296 141.271 440.434C137.9 437.83 134.53 435.226 131.159 432.622C148.67 446.06 167.698 457.218 186.464 468.769C204.823 480.07 222.824 491.944 240.394 504.415C278.248 531.293 314.656 560.465 348.745 591.977C413.755 652.076 471.032 721.146 518.711 795.711C544.194 835.562 567.263 877.098 585.036 920.986C603.671 967.013 611.464 1021.21 594.503 1069.01C577.47 1117.02 540.369 1159.48 488.16 1169C433.25 1179.01 379.021 1159.18 338.31 1122.08C299.787 1086.96 277.591 1038.64 256.733 991.944C235.601 944.663 213.62 897.286 181.838 856.049C184.444 859.418 187.05 862.787 189.655 866.155C175.503 848.105 159.69 831.704 141.57 817.584C144.94 820.188 148.311 822.792 151.682 825.397C136.693 813.977 120.617 804.3 103.298 796.81C107.278 798.495 111.258 800.167 115.238 801.852C100.441 795.676 85.1414 791.28 69.2564 789.034C73.6789 789.631 78.1133 790.228 82.5358 790.814C69.3281 789.165 56.0966 789.01 42.8889 790.718C47.3233 790.121 51.7458 789.524 56.1802 788.938C44.9926 790.599 34.271 793.657 23.8244 797.993C27.8047 796.321 31.7849 794.636 35.7651 792.964C24.6851 797.79 14.3819 803.906 4.81976 811.289C8.1904 808.685 11.561 806.08 14.9317 803.476C6.17041 810.476 -1.6586 818.325 -8.53134 827.188C-5.92569 823.82 -3.31998 820.451 -0.714325 817.082C-6.41571 824.728 -11.2207 832.839 -15.0335 841.583L-10.0015 829.649C-13.3363 837.725 -15.7029 845.991 -17.0297 854.628C-16.432 850.208 -15.8463 845.776 -15.2487 841.356C-16.432 850.375 -16.3603 859.275 -15.177 868.282C-15.7747 863.862 -16.3603 859.43 -16.9579 855.01C-15.4878 864.459 -12.8582 873.49 -9.17676 882.318C-10.8501 878.34 -12.5355 874.362 -14.2089 870.384C-9.34412 881.422 -3.09286 891.564 4.2341 901.144C1.62842 897.776 -0.977264 894.407 -3.58295 891.038C7.62863 905.254 20.7526 917.641 35.0002 928.775C31.6295 926.171 28.2589 923.566 24.8882 920.962C74.4319 958.986 136.621 982.315 176.699 1032.01C201.417 1062.65 217.182 1096.29 221.174 1135.7C224.892 1172.4 210.429 1208.71 186.309 1235.86C138.749 1289.39 58.5827 1295.33 -5.99738 1275.75C-40.3492 1265.33 -73.0516 1249.27 -105.204 1233.47C-135.074 1218.8 -164.549 1203.31 -193.582 1187.04C-258.485 1150.65 -321.105 1110.27 -381.131 1066.31C-391.96 1058.37 -400.398 1049.86 -404.092 1036.45C-407.391 1024.5 -405.897 1008.58 -399.06 997.964C-392.175 987.297 -381.932 977.919 -369.19 975.017C-356.867 972.209 -341.34 972.245 -330.679 980.046" fill="white"/>
</svg>
