<svg width="22" height="21" fill="none" xmlns="http://www.w3.org/2000/svg"><path d="M19.495 1.98H11.87M10.385 1.98H2.754M21.264 1.98c0 .538-.441.98-.98.98a.982.982 0 0 1-.98-.98c0-.54.441-.98.98-.98.539 0 .98.44.98.98ZM2.96 1.98c0 .538-.442.98-.98.98A.983.983 0 0 1 1 1.98c0-.54.44-.98.98-.98.538 0 .98.44.98.98ZM19.907 10.757h-1.96v-1.96h1.96v1.96ZM4.306 10.757H2.347v-1.96h1.96v1.96ZM12.104 2.96h-1.96V1h1.96v1.96ZM10.37 4.644l-3.017 7.127c-.122.28-.152.593-.073.887l.97 4.021h5.755l.974-4.021a1.348 1.348 0 0 0-.073-.887L11.89 4.644H10.37ZM13.941 18.124H8.318V20h5.623v-1.876Z" stroke="#ED4E47" stroke-miterlimit="10"/><path d="M11.688 1.98c3.855.274 6.965 3.384 7.24 7.24M3.327 9.22c.274-3.856 3.384-6.966 7.24-7.24M11.124 4.644v5.702M11.125 12.364a1.009 1.009 0 1 0 0-2.018 1.009 1.009 0 0 0 0 2.018Z" stroke="#ED4E47" stroke-miterlimit="10"/></svg>