<svg width="21" height="19" fill="none" xmlns="http://www.w3.org/2000/svg"><g clip-path="url(#a)" stroke="#ED4E47"><path d="M16.767 5.663c0 1.147-.984 2.081-2.204 2.081-1.22 0-2.204-.93-2.204-2.08 0-1.152.985-2.082 2.204-2.082 1.22 0 2.204.93 2.204 2.081ZM11.19 5.663h1.044M16.892 5.663h1.044M12.18 7.914l.739-.693M16.212 4.106l.74-.694M14.563 8.849v-.987M14.563 3.464v-.986M16.952 7.914l-.74-.693M12.919 4.106l-.74-.694M4.108 16.017v-.075c0-1.26 1.085-1.812 2.419-1.812s2.419.552 2.419 1.812v.075M6.527 12.714c.69 0 1.25-.528 1.25-1.18 0-.652-.56-1.18-1.25-1.18s-1.25.528-1.25 1.18c0 .652.56 1.18 1.25 1.18Z" stroke-linejoin="round"/><path d="M10.5 1.826c2.244-2.119 5.882-2.119 8.126 0 2.244 2.12 2.244 5.555 0 7.674-2.244 2.119-5.882 2.119-8.126 0-2.244-2.119-5.882-2.119-8.126 0-2.244 2.119-2.244 5.555 0 7.674 2.244 2.119 5.882 2.119 8.126 0" stroke-linecap="square" stroke-linejoin="round"/><path d="M11.62 2.166h-1.48V.77" stroke-miterlimit="10" stroke-linecap="square"/><path d="M17.002 13.908h1M19 15.796h1M20 12.02h1M13.054 18.627h1M15.053 15.796h1M18.001 17.683h-1M3.998 5.092h-1M1.999 3.204h-1M1 6.98H0M7.951.373h-1M5.952 3.204h-1M2.999 1.317h1" stroke-miterlimit="10"/></g><defs><clipPath id="a"><path fill="#fff" d="M0 0h21v19H0z"/></clipPath></defs></svg>