<svg width="24" height="18" fill="none" xmlns="http://www.w3.org/2000/svg"><path d="M21.267 14.867H3.133V2c0-.553.431-1.001.963-1.001h16.205c.532 0 .963.448.963 1v12.867h.003ZM1 14.867C1 16.046 1.779 17 2.74 17h18.92c.959 0 1.74-.954 1.74-2.133M11.667 14.867h1.066M11.667 14.867h1.066" stroke="#ED4E47" stroke-linecap="round" stroke-linejoin="round"/><path d="M6.333 3.133h1.298c.485 0 .912.345 1.053.846l1.693 6.11a.672.672 0 0 0 .637.511h4.92" stroke="#ED4E47" stroke-linecap="round" stroke-linejoin="round"/><path d="M10.746 5.267h6c.171 0 .292.147.243.293l-.92 2.742a.252.252 0 0 1-.244.165H10.6M11.667 12.2a.533.533 0 1 1-.534-.533M15.933 12.2a.533.533 0 1 1-.533-.533" stroke="#ED4E47" stroke-linecap="round" stroke-linejoin="round"/></svg>