<svg width="22" height="25" fill="none" xmlns="http://www.w3.org/2000/svg"><path d="M1.299 8.098v-.099c0-1.648 1.352-2.37 3.015-2.37S7.328 6.351 7.328 8v.099h-6.03ZM4.314 4.086c.86 0 1.557-.69 1.557-1.543A1.55 1.55 0 0 0 4.314 1c-.86 0-1.558.69-1.558 1.543a1.55 1.55 0 0 0 1.558 1.543Z" stroke="#ED4E47" stroke-linejoin="round"/><path d="M17.163 19.047v5.29M17.163 19.047l3.395.76v3.912l-3.395.618-3.388-.618v-3.913l3.388-.759Z" stroke="#ED4E47" stroke-miterlimit="10"/><path d="m10.636 22.102-7.344 1.45a1.91 1.91 0 0 1-2.286-1.863v-.044c0-.895.63-1.666 1.508-1.851l16.979-3.654A1.905 1.905 0 0 0 21 14.288c0-1.21-1.127-2.11-2.323-1.851L3.323 15.739C2.127 15.998 1 15.097 1 13.887c0-.895.63-1.666 1.507-1.851l16.98-3.654a1.905 1.905 0 0 0 1.507-1.852v-.074c0-1.185-1.09-2.08-2.267-1.864L9.303 6.326" stroke="#ED4E47" stroke-linejoin="round"/><path d="m9.595 20.991 1.526 1.031-1.04 1.506" stroke="#ED4E47" stroke-miterlimit="10" stroke-linecap="square"/></svg>