<svg width="22" height="23" fill="none" xmlns="http://www.w3.org/2000/svg"><path d="m9.077 14.787 1.238 2.857.38.876a.43.43 0 0 0 .457.245l1.553-.222c.309-.044.492-.348.374-.62l-.13-.3a.489.489 0 0 0-.524-.277l-.298.046-1.152-2.661M10.88 13.115l.581 1.075c.14.258-.114.542-.485.54l-2.27-.006-.437-.808" stroke="#ED4E47" stroke-linecap="round" stroke-linejoin="round"/><path d="m16.346 13.12-5.171-.35-2.45.998a2.09 2.09 0 0 1-1.577-3.87L9.597 8.9l3.456-3.862M13.17 5.23a.723.723 0 0 1 .4-.945c.375-.152.801.027.953.398l3.384 8.242a.723.723 0 0 1-.4.944.732.732 0 0 1-.953-.398M19.577 7.462l.808-.808M17.962 5.846l1.615-1.615M21.192 9.885l-1.615-.808" stroke="#ED4E47" stroke-linecap="round" stroke-linejoin="round"/><path d="M16.866 10.692 15.539 6.81c.9-.437 1.926.079 2.292 1.15.367 1.073-.066 2.296-.965 2.733v0ZM5.846 2.615h.808M1.808 18.77h7.269M11.5 20.086v.533c0 .763-.588 1.381-1.313 1.381H2.313C1.588 22 1 21.382 1 20.619v-1.85" stroke="#ED4E47" stroke-linecap="round" stroke-linejoin="round"/><path d="M11.5 4.689V2.38C11.5 1.618 10.912 1 10.187 1H2.313C1.588 1 1 1.618 1 2.38v16.39M1.808 3.423h8.884" stroke="#ED4E47" stroke-linecap="round" stroke-linejoin="round"/></svg>