<svg width="23" height="20" fill="none" xmlns="http://www.w3.org/2000/svg"><g clip-path="url(#a)" stroke="#ED4E47" stroke-miterlimit="10"><path d="M8.143 17.796h8.082M16.473 14.538c.051-.183.152-.402.305-.723.37-.789.871-1.863.871-3.487 0-3.68-2.422-6.006-6.314-6.072"/><path d="M8.143 17.796v1.95h8.082v-1.95s-.025-.631-.41-.962c-.38-.331-1.146-1.344-1.146-1.782 0-1.537 1.282-2.387 1.282-4.719 0-2.631-1.49-4.443-4.793-4.5a.813.813 0 0 0-.547.214c-.725.667-1.977 1.833-2.721 2.525a.988.988 0 0 0-.152 1.263.974.974 0 0 0 1.17.376c.938-.366 2.524-.896 3.197-.616.38.22-.222.876-.957 1.37-.735.493-1.992 1.781-1.885 3.044.111 1.262.466 1.7-.243 2.413-.71.712-.872.738-.872 1.369M11.837 7.391l-.79.55M7.383 11.525v3.262H.253V9.534h5.98"/><path d="M4.981 14.706 2.63 12.161l-2.3 2.026M3.973 13.612l1.393-1.186 1.987 2.061M1.399.255v4.2h2.006v2.437h.05l1.688-2.438h4.591v-4.2H1.4ZM2.985 2.357h1.043M5.077 2.357h1.044M7.165 2.357h1.044M21.12 15.424c0 .758-.613 1.374-1.368 1.374a1.372 1.372 0 0 1-1.368-1.374c0-.759.613-1.375 1.368-1.375.755 0 1.368.616 1.368 1.375ZM15.146 1.313a1.045 1.045 0 1 1-2.088 0 1.045 1.045 0 1 1 2.088 0ZM5.878 6.75h1.044M17.502 2.856h1.044M19.752 9.62V6.47l2.736 1.573-2.736 1.578Z"/></g><defs><clipPath id="a"><path fill="#fff" d="M0 0h23v20H0z"/></clipPath></defs></svg>