<svg width="20" height="20" fill="none" xmlns="http://www.w3.org/2000/svg"><g clip-path="url(#a)" stroke="#ED4E47" stroke-miterlimit="10"><path d="m10.971 12.236-.952.974-.952-.974M18.81 13.21l-.953.974-.952-.974M3.133 13.21l-.952.974-.952-.974" stroke-linecap="square"/><path d="M1.467 7.55c.657 0 1.19-.545 1.19-1.218 0-.672-.533-1.218-1.19-1.218-.658 0-1.19.546-1.19 1.218 0 .673.532 1.218 1.19 1.218ZM1.467 2.679c.657 0 1.19-.545 1.19-1.218 0-.672-.533-1.217-1.19-1.217C.809.244.277.789.277 1.46c0 .673.532 1.218 1.19 1.218ZM10.019 7.55c.658 0 1.19-.545 1.19-1.218 0-.672-.532-1.218-1.19-1.218-.657 0-1.19.546-1.19 1.218 0 .673.533 1.218 1.19 1.218ZM10.019 2.679c.658 0 1.19-.545 1.19-1.218 0-.672-.532-1.217-1.19-1.217-.657 0-1.19.545-1.19 1.217 0 .673.533 1.218 1.19 1.218ZM18.571 7.55c.658 0 1.19-.545 1.19-1.218 0-.672-.532-1.218-1.19-1.218-.657 0-1.19.546-1.19 1.218 0 .673.533 1.218 1.19 1.218ZM18.571 2.679c.658 0 1.19-.545 1.19-1.218 0-.672-.532-1.217-1.19-1.217-.657 0-1.19.545-1.19 1.217 0 .673.533 1.218 1.19 1.218ZM2.181 14.184V10.05h15.676v4.135M2.657 1.461H8.83M11.21 1.461h6.647M2.657 6.332H8.83M11.21 6.332h6.17M18.571 2.679v2.435M10.019 2.679v2.435M10.019 7.55v5.66M1.467 2.679v2.435M16.19 16.103h2.491c.467 0 .843.385.843.862v2.548h-2.49a.851.851 0 0 1-.843-.862v-2.548ZM9.69 19.756 8.114 18.14v-.667L9.69 15.86h.653l1.58 1.612v.667l-1.58 1.617H9.69ZM3.133 16.113H1.23l-.953 1.695.953 1.69h1.904l.953-1.69-.953-1.695Z"/></g><defs><clipPath id="a"><path fill="#fff" d="M0 0h20v20H0z"/></clipPath></defs></svg>