<svg width="32" height="23" viewBox="0 0 32 23" fill="none" xmlns="http://www.w3.org/2000/svg">
<path d="M18.0282 13.5211C18.0282 11.1775 18.3887 9.16432 19.1099 7.48169C19.831 5.73897 20.7624 4.32676 21.9042 3.24507C23.046 2.10329 24.338 1.29202 25.7803 0.811268C27.2826 0.270423 28.7549 0 30.1972 0V3.15493C28.6347 3.15493 27.1624 3.69578 25.7803 4.77747C24.4582 5.79906 23.677 7.21127 23.4366 9.01408C23.6169 8.95399 23.8272 8.8939 24.0676 8.8338C24.2479 8.77371 24.4582 8.71361 24.6986 8.65352C24.9991 8.59343 25.3296 8.56338 25.6901 8.56338C27.493 8.56338 28.9953 9.25446 30.1972 10.6366C31.3991 11.9587 32 13.5211 32 15.3239C32 17.1268 31.369 18.7192 30.107 20.1014C28.9052 21.4235 27.2826 22.0845 25.2394 22.0845C22.9559 22.0845 21.1831 21.2432 19.9211 19.5606C18.6592 17.8178 18.0282 15.8047 18.0282 13.5211ZM0 13.5211C0 11.1775 0.360563 9.16432 1.08169 7.48169C1.80282 5.73897 2.73427 4.32676 3.87606 3.24507C5.01784 2.10329 6.30986 1.29202 7.75211 0.811268C9.25446 0.270423 10.7268 0 12.169 0V3.15493C10.6066 3.15493 9.13427 3.69578 7.75211 4.77747C6.43005 5.79906 5.64883 7.21127 5.40845 9.01408C5.58873 8.95399 5.79906 8.8939 6.03944 8.8338C6.21972 8.77371 6.43005 8.71361 6.67042 8.65352C6.97089 8.59343 7.30141 8.56338 7.66197 8.56338C9.46479 8.56338 10.9671 9.25446 12.169 10.6366C13.3709 11.9587 13.9718 13.5211 13.9718 15.3239C13.9718 17.1268 13.3408 18.7192 12.0789 20.1014C10.877 21.4235 9.25446 22.0845 7.21127 22.0845C4.9277 22.0845 3.15493 21.2432 1.89296 19.5606C0.630986 17.8178 0 15.8047 0 13.5211Z" fill="#0C67BD"/>
</svg>
