<?xml version="1.0" encoding="UTF-8"?> <svg xmlns="http://www.w3.org/2000/svg" width="34" height="30" viewBox="0 0 34 30" fill="none"><g clip-path="url(#clip0_3652_3164)"><path d="M2 26.9008C5.79116 21.9384 9.93365 17.0549 11.5309 10.8748C12.1825 8.35334 12.4004 5.99616 11.1111 3.65569C9.14765 0.0913539 5.19707 0.398983 4.07408 4.47435C1.83667 12.5939 8.41165 31.1505 19.4568 25.1395C23.3027 23.0464 25.7186 18.9042 26.2963 14.6208C26.7286 11.4151 26.7478 6.07893 22.5679 5.44187C20.0346 5.05579 17.7779 7.09693 16.9629 9.36151C15.7313 12.7844 17.3034 16.9942 18.8395 20.0538C20.3246 23.0119 22.8327 25.9636 25.8642 27.397C27.8568 28.3391 29.8818 28.2405 32 28.2405" stroke="#FF8038" stroke-width="2" stroke-linecap="round"></path></g><defs><clipPath id="clip0_3652_3164"><rect width="32.3529" height="30" fill="white" transform="translate(0.824219 0.00830078)"></rect></clipPath></defs></svg> 