<svg width="28" height="28" viewBox="0 0 28 28" fill="none" xmlns="http://www.w3.org/2000/svg">
<path d="M28 14C28 12.067 26.433 10.5 24.5 10.5H22.4995L23.8949 9.10462C25.2617 7.73779 25.2617 5.52171 23.8949 4.15487C22.528 2.78804 20.312 2.78804 18.9451 4.15487L17.5 5.6V3.5C17.5 1.567 15.933 0 14 0C12.067 0 10.5 1.567 10.5 3.5V5.46L9.13588 4.09588C7.76905 2.72905 5.55297 2.72905 4.18614 4.09588C2.8193 5.46272 2.8193 7.6788 4.18614 9.04563L5.6405 10.5L3.5 10.5C1.567 10.5 8.4494e-08 12.067 0 14C-8.4494e-08 15.933 1.567 17.5 3.5 17.5H5.6L4.09588 19.0041C2.72905 20.3709 2.72905 22.587 4.09588 23.9539C5.46272 25.3207 7.67879 25.3207 9.04563 23.9539L10.5 22.4995V24.5C10.5 26.433 12.067 28 14 28C15.933 28 17.5 26.433 17.5 24.5V22.3595L19.0354 23.8949C20.4022 25.2617 22.6183 25.2617 23.9851 23.8949C25.352 22.528 25.352 20.312 23.9851 18.9451L22.54 17.5H24.5C26.433 17.5 28 15.933 28 14Z" fill="#FFBB4F"/>
</svg>
