<svg width="43" height="57" fill="none" xmlns="http://www.w3.org/2000/svg"><path d="M21.15 22.37V9.563h17.298" stroke="#ED4E47" stroke-width="1.5" stroke-miterlimit="10"/><path d="M25.592 24.525V13.928H7.772M26.502 27.84h3.53V17.243h5.785" stroke="#ED4E47" stroke-width="1.5" stroke-miterlimit="10"/><path d="M12.602 41.387a1.488 1.488 0 0 1 .067-1.945c.566-.608 1.51-.486 2.131-.088l4.041 2.497.889-14.088a1.322 1.322 0 0 1 1.32-1.238 1.33 1.33 0 0 1 1.322 1.182l1.532 8.498s6.706.806 7.716 1.082c.689.188 1.788.498 1.788 2.32l-.067 7.272c-.022 2.176-.933 1.491-.933 4.54H20.951c0-1.07-2.431-2.53-3.386-3.877l-4.963-6.166v.01Z" stroke="#ED4E47" stroke-width="1.5" stroke-linejoin="round"/><path d="M33.408 57v-5.569H17.665v5.57M22.105 54.746v2.21M16.688 24.525V1.785M15.788 27.84h-3.541v-8.387H1.422" stroke="#ED4E47" stroke-width="1.5" stroke-miterlimit="10"/><path d="m4.408 22.404-2.964-2.95 2.964-2.951M10.737 16.879l-2.965-2.95 2.965-2.951M13.723 4.735l2.965-2.95 2.964 2.95M35.45 12.525l2.965-2.961-2.965-2.95M32.852 20.194l2.965-2.95-2.965-2.951M19.408 32.878a5.335 5.335 0 0 1-3.609-5.038c0-2.94 2.398-5.326 5.352-5.326 2.953 0 5.35 2.386 5.35 5.326 0 2.188-1.331 4.066-3.219 4.884M8.616 40.15v2.254M6.662 25.63v2.243M1 30.127v2.243M4.408 36.757v-2.243M10.037 32.37v2.254M40.48 40.15v2.254M37.416 24.525v2.243M32.852 30.127v2.243M37.371 36.757v-2.243M41.89 30.16v2.254" stroke="#ED4E47" stroke-width="1.5" stroke-miterlimit="10"/></svg>