<svg width="39" height="44" fill="none" xmlns="http://www.w3.org/2000/svg"><path d="M2.084 13.738v-.177c0-2.957 2.426-4.253 5.41-4.253 2.985 0 5.41 1.296 5.41 4.253v.177H2.085ZM7.495 6.538c1.543 0 2.794-1.24 2.794-2.769C10.29 2.24 9.038 1 7.495 1 5.95 1 4.7 2.24 4.7 3.77c0 1.529 1.251 2.768 2.795 2.768Z" stroke="#ED4E47" stroke-width="1.5" stroke-linejoin="round"/><path d="M30.555 33.389v9.492M30.555 33.389l6.093 1.362v7.023l-6.093 1.108-6.08-1.108V34.75l6.08-1.362Z" stroke="#ED4E47" stroke-width="1.5" stroke-miterlimit="10"/><path d="M18.84 38.871 5.661 41.474c-2.124.421-4.102-1.196-4.102-3.345v-.077a3.4 3.4 0 0 1 2.705-3.323l30.472-6.558c1.576-.343 2.705-1.728 2.705-3.323 0-2.17-2.023-3.788-4.17-3.323L5.718 27.451c-2.146.465-4.17-1.152-4.17-3.323a3.4 3.4 0 0 1 2.706-3.323l30.472-6.557c1.576-.344 2.705-1.728 2.705-3.323v-.133c0-2.127-1.956-3.733-4.069-3.345l-16.913 3.112" stroke="#ED4E47" stroke-width="1.5" stroke-linejoin="round"/><path d="m16.974 36.878 2.738 1.85-1.866 2.703" stroke="#ED4E47" stroke-width="1.5" stroke-miterlimit="10" stroke-linecap="square"/></svg>