<svg width="47" height="52" fill="none" xmlns="http://www.w3.org/2000/svg"><path d="M25.173 34.413v3.976M27.391 50.43H22.954v-9.854l2.219-2.187 2.218 2.187v9.855ZM15.178 23.58l-2.9-2.108-7.43 5.548M45.44 22.383l-7.245 5.423-8.481-6.334-8.724 6.334-2.507-1.823" stroke="#ED4E47" stroke-width="1.5" stroke-miterlimit="10"/><path d="m40.772 21.643 5.026.421-.416 4.956M34.22 20.378c-1.594-3.338-5.05-5.65-9.047-5.65-5.523 0-9.995 4.408-9.995 9.854 0 5.445 4.472 9.854 9.995 9.854 5.176 0 9.429-3.873 9.949-8.852M7.066 42.672V32.59M11.503 42.672v-13.84M15.952 42.673v-6.278M43.58 42.672V30.654M39.143 42.672V32.59M34.694 42.673v-6.278" stroke="#ED4E47" stroke-width="1.5" stroke-miterlimit="10"/><path d="M27.391 45.999h16.65M44.909 15.616V1.57H1V46h21.954" stroke="#ED4E47" stroke-width="1.5" stroke-miterlimit="10" stroke-linecap="square"/><path d="M4.466 6.126h2.311M9.088 6.126H11.4M13.71 6.126h2.311" stroke="#ED4E47" stroke-width="1.5" stroke-miterlimit="10"/><path d="M44.909 1.57H1v9.114h43.909V1.57Z" stroke="#ED4E47" stroke-width="1.5" stroke-miterlimit="10" stroke-linecap="square"/></svg>