<svg width="54" height="55" viewBox="0 0 54 55" fill="none" xmlns="http://www.w3.org/2000/svg">
<path d="M19.126 1.92884C24.3612 0.47803 29.9954 0.560903 35.1877 2.14546L35.7055 2.30854L35.8242 2.35235C36.407 2.58983 36.8228 3.12235 36.9073 3.75248L37.5139 8.27963L41.1515 6.20104L41.2689 6.13958C41.862 5.85699 42.5682 5.92652 43.0968 6.32882L43.5002 6.64158C47.6373 9.90702 50.8865 14.2938 52.7876 19.2178C53.0745 19.961 52.8283 20.8045 52.1864 21.2763L50.4188 22.5748C50.8773 22.7072 51.319 22.8407 51.6887 22.9649C51.9628 23.057 52.2501 23.1611 52.4864 23.2697C52.5921 23.3183 52.7743 23.4064 52.9537 23.5363C53.0378 23.5971 53.2112 23.7305 53.3718 23.9439C53.4292 24.0204 53.5104 24.1434 53.5823 24.3054C53.653 24.4542 53.7033 24.6123 53.7302 24.7758C54.4082 28.8983 53.8756 33.2045 52.212 37.038C51.9436 37.6565 51.3486 38.0647 50.6828 38.0986L50.549 38.0998L47.5376 38.025C47.9721 38.7047 48.4119 39.4002 48.7521 39.9588C48.9262 40.2447 49.0833 40.509 49.2024 40.7224C49.261 40.8273 49.3208 40.9385 49.3716 41.0431C49.3846 41.0698 49.5218 41.3351 49.5748 41.6467L49.5943 41.8061C49.6232 42.1788 49.5335 42.5527 49.335 42.8728C47.1486 46.3999 43.9956 49.3187 40.3179 51.234C39.6615 51.5758 38.8614 51.4723 38.3141 50.9742L34.8561 47.8271C34.8067 48.0988 34.757 48.3764 34.7064 48.654C34.5251 49.6483 34.3416 50.6486 34.1995 51.4087C34.1286 51.788 34.0671 52.1119 34.0212 52.3464C33.9985 52.4623 33.9781 52.5637 33.9616 52.6415C33.9537 52.6788 33.9446 52.7224 33.9348 52.7632C33.9302 52.7823 33.9222 52.8147 33.9117 52.852C33.9065 52.8704 33.8972 52.9023 33.8843 52.9408C33.8806 52.9519 33.8706 52.9817 33.8545 53.023L33.7876 53.1745C33.5343 53.681 33.0533 54.0351 32.4945 54.1268C26.408 55.1256 20.0321 54.2568 14.4248 51.6703L13.8845 51.4142C13.2359 51.0992 12.8439 50.4217 12.8945 49.7025L13.1561 45.9797C13.0963 46.0053 13.0366 46.0315 12.9766 46.057C12.2632 46.3609 11.5397 46.6664 10.9863 46.8937C10.7118 47.0064 10.4669 47.1044 10.2823 47.1748C10.1935 47.2086 10.0967 47.2449 10.0097 47.2734C9.9713 47.286 9.89769 47.3091 9.81251 47.3294C9.7746 47.3384 9.68422 47.3589 9.56972 47.3707C9.51321 47.3766 9.40649 47.3851 9.27339 47.3768C9.18675 47.3714 8.94289 47.353 8.65881 47.2259L8.53529 47.1645C8.38073 47.0802 8.23956 46.9729 8.11665 46.8468C3.4054 42.0154 0.49372 35.4826 0.0505271 28.7461L0.0152348 28.0938C-0.0163656 27.3409 0.433761 26.6509 1.13546 26.3761L4.76023 24.9559C4.60272 24.8206 4.44223 24.6838 4.28256 24.5464C3.60555 23.9635 2.92463 23.3742 2.41329 22.9241C2.15914 22.7004 1.93834 22.5032 1.77863 22.3564C1.70178 22.2857 1.62284 22.2122 1.55775 22.1471C1.53 22.1193 1.47486 22.0638 1.41841 21.9974C1.39637 21.9715 1.32826 21.8909 1.25838 21.7796C1.22701 21.7296 1.15006 21.6025 1.08739 21.4254C1.06006 21.3482 0.902482 20.916 1.04662 20.3788H1.04541C2.49615 14.9409 5.70453 10.0089 10.0827 6.47608L10.1837 6.40001C10.6999 6.04109 11.3724 5.98235 11.9465 6.25398L16.4773 8.39829C16.5363 8.0059 16.6004 7.59052 16.6653 7.17401C16.8056 6.27351 16.955 5.35357 17.0852 4.64392C17.1495 4.29298 17.2133 3.96925 17.2726 3.7178C17.301 3.59731 17.3373 3.45574 17.3809 3.3235C17.4013 3.2616 17.438 3.15509 17.4947 3.03751C17.5229 2.97889 17.5733 2.88109 17.6498 2.7716C17.711 2.68399 17.8755 2.46087 18.1677 2.2769L18.2711 2.21666C18.3768 2.15974 18.4881 2.11352 18.6033 2.07914L19.126 1.92884ZM50.2198 25.2498C50.2239 25.282 50.2287 25.3134 50.2344 25.3441C50.2289 25.3127 50.2236 25.2814 50.2198 25.2498ZM50.2064 25.0465C50.2067 25.1023 50.2096 25.1562 50.2149 25.2084C50.2097 25.1547 50.2067 25.1007 50.2064 25.0465ZM50.2356 24.7179C50.2262 24.7691 50.2197 24.8193 50.2149 24.8682C50.2198 24.8181 50.2264 24.7679 50.2356 24.7179ZM4.45659 21.2891C4.4471 21.3247 4.43541 21.3595 4.42373 21.3944C4.43316 21.3664 4.44335 21.3391 4.45111 21.3116L4.45659 21.2891ZM50.2113 24.9102C50.2078 24.9568 50.2061 25.0022 50.2064 25.0465C50.2062 25.0011 50.208 24.9557 50.2113 24.9102Z" fill="#00C0AA"/>
</svg>
