<svg width="45" height="47" fill="none" xmlns="http://www.w3.org/2000/svg"><path d="m41.5 33.43-16.54-6.2-.03.03 6.2 16.53h.1l2.75-4.92 6.74 6.74 2.64-2.64-6.73-6.72 4.86-2.72.01-.1Z" stroke="#ED4E47" stroke-width="1.5" stroke-miterlimit="10"/><path d="M29.74 25.81c-.61-2.07-2.51-3.59-4.77-3.59-2.76 0-5 2.24-5 5 0 2.25 1.49 4.13 3.53 4.76M5.52 37.58h2M11.55 37.58c0 2.77-2.25 5.02-5.02 5.02-2.77 0-5.02-2.25-5.02-5.02 0-2.77 2.25-5.02 5.02-5.02 2.77 0 5.02 2.25 5.02 5.02ZM7.52 16.88h-2M1.5 16.88c0 2.77 2.25 5.02 5.02 5.02 2.77 0 5.02-2.25 5.02-5.02 0-2.77-2.25-5.02-5.02-5.02-2.77 0-5.02 2.24-5.02 5.02ZM25.93 6.52h-2M24.93 11.54a5.02 5.02 0 1 0 0-10.04 5.02 5.02 0 0 0 0 10.04ZM20.54 29.75l-9.65 5.35M10.89 19.37l9.68 5.39M10.89 14.39l9.68-5.38" stroke="#ED4E47" stroke-width="1.5" stroke-miterlimit="10"/></svg>