<svg width="16" height="16" viewBox="0 0 16 16" fill="none" xmlns="http://www.w3.org/2000/svg">
<path d="M5.33329 14H2.64771C2.35587 14.0085 2.07046 13.9133 1.84215 13.7313C1.61203 13.5456 1.44849 13.2901 1.37616 13.0033C1.30383 12.7166 1.32662 12.4141 1.4411 12.1414L2.29824 10.1414C2.40104 9.90157 2.57195 9.69716 2.78979 9.55353C3.00763 9.40989 3.26283 9.33333 3.52377 9.33333H5.33329" stroke="#BCCF00" stroke-width="1.5" stroke-linecap="round" stroke-linejoin="round"/>
<path d="M5.33341 9.33333H3.66675C3.40153 9.33333 3.14718 9.22798 2.95964 9.04044C2.7721 8.8529 2.66675 8.59855 2.66675 8.33333V3.33333C2.66675 2.97971 2.80722 2.64057 3.05727 2.39052C3.30732 2.14048 3.64646 2 4.00008 2H12.0001C12.3537 2 12.6928 2.14048 12.9429 2.39052C13.1929 2.64057 13.3334 2.97971 13.3334 3.33333V6.66667" stroke="#BCCF00" stroke-width="1.5" stroke-linecap="round" stroke-linejoin="round"/>
<path d="M11 12.25C11.5523 12.25 12 11.8023 12 11.25C12 10.6977 11.5523 10.25 11 10.25C10.4477 10.25 10 10.6977 10 11.25C10 11.8023 10.4477 12.25 11 12.25Z" stroke="#BCCF00" stroke-width="1.5" stroke-linecap="round" stroke-linejoin="round"/>
<path d="M8.83325 14H13.1666C13.5644 14 13.9459 13.842 14.2272 13.5607C14.5086 13.2794 14.6666 12.8978 14.6666 12.5V10C14.6666 9.60218 14.5086 9.22064 14.2272 8.93934C13.9459 8.65804 13.5644 8.5 13.1666 8.5H8.83325C8.43543 8.5 8.0539 8.65804 7.77259 8.93934C7.49129 9.22064 7.33325 9.60218 7.33325 10V12.5C7.33325 12.8978 7.49129 13.2794 7.77259 13.5607C8.0539 13.842 8.43543 14 8.83325 14Z" stroke="#BCCF00" stroke-width="1.5" stroke-linecap="round" stroke-linejoin="round"/>
</svg>
