<svg width="16" height="16" viewBox="0 0 16 16" fill="none" xmlns="http://www.w3.org/2000/svg">
<path d="M10 9.17133C10.6407 8.95866 11.2973 8.82333 12 8.74466" stroke="#BCCF00" stroke-width="1.5" stroke-linecap="round" stroke-linejoin="round"/>
<path d="M4 8.74533C4.70267 8.82333 5.35933 8.95933 6 9.172" stroke="#BCCF00" stroke-width="1.5" stroke-linecap="round" stroke-linejoin="round"/>
<path d="M12 6.07866C11.2973 6.15666 10.6407 6.29266 10 6.50533" stroke="#BCCF00" stroke-width="1.5" stroke-linecap="round" stroke-linejoin="round"/>
<path d="M6 6.50465C5.35933 6.29199 4.70267 6.15665 4 6.07799" stroke="#BCCF00" stroke-width="1.5" stroke-linecap="round" stroke-linejoin="round"/>
<path d="M8 4.08731C6.27067 3.11865 4.72533 2.73331 2.678 2.66731C2.306 2.65465 2 2.96131 2 3.33398V11.236C2 11.5966 2.28867 11.896 2.64933 11.9013C4.71067 11.932 6.26267 12.312 8 13.3333C9.73733 12.312 11.2893 11.932 13.3507 11.9013C13.7113 11.896 14 11.5966 14 11.2353V3.33331C14 2.96065 13.694 2.65465 13.322 2.66665C11.2747 2.73331 9.72933 3.11865 8 4.08731Z" stroke="#BCCF00" stroke-width="1.5" stroke-linecap="round" stroke-linejoin="round"/>
<path d="M8 4.08665V13.3333" stroke="#BCCF00" stroke-width="1.5" stroke-linecap="round" stroke-linejoin="round"/>
</svg>
