<svg width="55" height="44" fill="none" xmlns="http://www.w3.org/2000/svg"><path d="M28.349 31.28H1V5.883M43.977 5.884v14.651M30.302 5.884h13.675" stroke="#ED4E47" stroke-width="1.5" stroke-linecap="round" stroke-linejoin="round"/><path d="M30.418 5.884H1V1h42.977v4.884" stroke="#ED4E47" stroke-width="1.5" stroke-linecap="round" stroke-linejoin="round"/><circle cx="41.535" cy="3.442" r=".488" fill="#3F3A34" stroke="#ED4E47" stroke-width="1.5" stroke-linecap="round" stroke-linejoin="round"/><ellipse cx="39.093" cy="3.442" rx=".977" ry=".488" fill="#3F3A34" stroke="#ED4E47" stroke-width="1.5" stroke-linecap="round" stroke-linejoin="round"/><ellipse cx="37.14" cy="3.442" rx=".977" ry=".488" fill="#3F3A34" stroke="#ED4E47" stroke-width="1.5" stroke-linecap="round" stroke-linejoin="round"/><path d="m28.349 20.535 7.814-7.814M18.581 17.605l5.86 3.907M9.79 23.465l4.885-4.884M17.605 16.628c0 1.079-.656 1.953-1.465 1.953-.81 0-1.466-.874-1.466-1.953 0-1.08.656-1.954 1.466-1.954.809 0 1.465.875 1.465 1.954ZM9.79 25.907c0 .81-.874 1.465-1.953 1.465-1.079 0-1.953-.656-1.953-1.465 0-.81.874-1.465 1.953-1.465 1.08 0 1.954.656 1.954 1.465ZM28.349 22.488a1.953 1.953 0 1 1-3.907 0 1.953 1.953 0 0 1 3.907 0ZM39.093 10.768a1.953 1.953 0 1 1-3.907 0 1.953 1.953 0 0 1 3.907 0ZM36.325 33.922a4.395 4.395 0 1 0 8.467-2.357 4.395 4.395 0 0 0-8.467 2.357Z" stroke="#ED4E47" stroke-width="1.5" stroke-linecap="round" stroke-linejoin="round"/><path d="M34.936 38.13c-.053-.055-.104-.112-.156-.168a4.187 4.187 0 0 1-.237-.276l-.115-.14-.109-.144-.123-.166c-.03-.042-.058-.086-.088-.13l-.127-.19c-.025-.039-.048-.079-.071-.118-.022-.036-.044-.07-.064-.107l-2.079.275a.916.916 0 0 1-1.001-.662l-.43-1.545a.914.914 0 0 1 .516-1.084l1.921-.839v-.26c.001-.077.005-.153.01-.23l.008-.155a10.021 10.021 0 0 1 .038-.385l.024-.18c.01-.069.02-.135.032-.204l.029-.154c.014-.075.028-.15.046-.224.01-.045.022-.09.033-.133l.028-.12-1.663-1.276a.916.916 0 0 1-.24-1.177l.789-1.396a.915.915 0 0 1 1.13-.402l1.952.765c.029-.03.059-.058.089-.087l.096-.097c.055-.053.112-.104.168-.156a4.35 4.35 0 0 1 .276-.237l.14-.115.145-.109a7.24 7.24 0 0 1 .167-.121c.042-.03.086-.059.13-.089.062-.042.125-.085.19-.125l.119-.073c.035-.022.07-.044.105-.064l-.274-2.078A.916.916 0 0 1 37 22.952l1.545-.43a.914.914 0 0 1 1.084.516l.839 1.921h.262c.076.002.151.006.227.01l.157.008.205.018c.06.005.12.01.18.019.06.007.12.016.179.024.068.01.136.02.203.032l.154.029c.075.015.15.028.224.046.045.01.089.022.134.033l.121.028 1.276-1.663a.916.916 0 0 1 1.176-.24l1.396.788a.916.916 0 0 1 .403 1.132L46 27.174l.088.088.096.098c.054.054.104.112.155.168a4.347 4.347 0 0 1 .237.275 5.749 5.749 0 0 1 .222.285c.041.055.082.11.122.167l.089.13c.042.062.084.125.125.19l.072.118.065.105 2.078-.274a.915.915 0 0 1 1.001.662l.43 1.544a.914.914 0 0 1-.516 1.084l-1.92.838v.262c-.002.076-.006.151-.01.228l-.009.157-.017.205c-.006.06-.011.12-.02.18-.006.06-.016.12-.024.178l-.031.204-.03.154c-.015.075-.03.149-.047.224l-.033.135-.028.12 1.663 1.276c.362.277.464.78.24 1.176l-.788 1.396a.915.915 0 0 1-1.132.403l-1.95-.766c-.03.03-.06.058-.088.088l-.098.097c-.055.053-.112.103-.168.154l-.117.105a13.591 13.591 0 0 1-.299.247 7.24 7.24 0 0 1-.311.23l-.13.09c-.063.041-.126.084-.191.125-.04.024-.08.047-.119.072-.035.022-.07.044-.105.064l.274 2.079a.916.916 0 0 1-.661 1.001l-1.545.43a.914.914 0 0 1-1.083-.516l-.84-1.921h-.262c-.076-.002-.151-.006-.227-.01L40 40.511a10.807 10.807 0 0 1-.205-.019c-.06-.005-.12-.01-.18-.02-.06-.006-.12-.016-.179-.024a5.126 5.126 0 0 1-.357-.061c-.075-.015-.15-.029-.224-.047l-.134-.032-.12-.029-1.276 1.664a.916.916 0 0 1-1.176.24l-1.396-.789a.916.916 0 0 1-.402-1.131l.765-1.952c-.03-.028-.057-.058-.087-.087a6.366 6.366 0 0 1-.097-.098l.003.004Z" stroke="#ED4E47" stroke-width="1.5" stroke-linecap="round" stroke-linejoin="round"/></svg>