<svg width="55" height="38" fill="none" xmlns="http://www.w3.org/2000/svg"><path d="M15.539 5.8V3.77c0-1.2.991-2.182 2.216-2.182H47.93c1.225 0 2.217.981 2.217 2.181v22.28c0 1.2-.992 2.182-2.217 2.182H31.78M28.28 22.588h21.843M37.218 28.22v7.569M23.718 36.92v-4.674c0-2.342-1.925-4.246-4.306-4.246h-7.77c-2.381 0-4.306 1.904-4.306 4.246v4.673" stroke="#ED4E47" stroke-width="1.5" stroke-miterlimit="10"/><path d="m1.583 36.93 1.027-7.65c.315-1.96 1.692-3.634 3.419-4.21l.688-.232a27.652 27.652 0 0 1 17.62.024l.71.242c1.728.577 3.105 2.25 3.408 4.212l.84 6.484H55M44.65 6.47l-3.547 3.46-2.485-2.468M44.65 13.68l-3.547 3.462-2.485-2.469M23.064 7.68h13.197M25.095 12.365H36.26M24.873 17.05H36.26M15.375 19.877c3.19 0 5.776-2.557 5.776-5.712 0-3.154-2.586-5.711-5.776-5.711S9.6 11.01 9.6 14.165c0 3.155 2.586 5.712 5.776 5.712Z" stroke="#ED4E47" stroke-width="1.5" stroke-miterlimit="10"/></svg>