<svg width="45" height="41" fill="none" xmlns="http://www.w3.org/2000/svg"><path d="M29.206 16.814c0-2.512-1.927-4.171-4.606-4.75l-2.228 1.592-2.227-1.591c-2.68.578-4.606 2.237-4.606 4.749M22.372 9.84c2.291 0 4.148-1.84 4.148-4.11 0-2.269-1.857-4.108-4.148-4.108-2.29 0-4.147 1.84-4.147 4.108 0 2.27 1.857 4.11 4.147 4.11ZM30.706 31.47v-8.223h1.361a.55.55 0 0 0 .534-.41l.89-3.605c.101-.367-.213-.672-.533-.672H11.787a.543.543 0 0 0-.534.672l.891 3.605c.057.242.276.41.527.41h1.368v8.224M16.305 21.836h12.763M7.35 34.28c2.127 0 3.853-1.709 3.853-3.816 0-2.107-1.726-3.817-3.853-3.817-2.127 0-3.853 1.71-3.853 3.817S5.223 34.28 7.35 34.28ZM13.7 41c0-2.94-2.842-4.625-6.35-4.625C3.843 36.375 1 38.06 1 41M28.723 41c0-2.94-2.843-4.625-6.35-4.625-3.508 0-6.35 1.685-6.35 4.625M37.395 34.28c2.133 0 3.853-1.709 3.853-3.816 0-2.107-1.726-3.817-3.853-3.817-2.128 0-3.853 1.71-3.853 3.817s1.725 3.817 3.853 3.817ZM43.745 41c0-2.94-2.842-4.625-6.35-4.625-3.508 0-6.35 1.685-6.35 4.625" stroke="#ED4E47" stroke-width="1.5" stroke-linejoin="round"/><path d="M26.232 30.458c0 2.107-1.726 3.816-3.86 3.816-2.133 0-3.852-1.71-3.852-3.816 0-2.108 1.725-3.817 3.852-3.817 2.128 0 3.86 1.71 3.86 3.817Z" stroke="#ED4E47" stroke-width="1.5" stroke-linejoin="round"/></svg>