<svg width="29" height="29" viewBox="0 0 29 29" fill="none" xmlns="http://www.w3.org/2000/svg">
<path d="M14.5 9.1333C13.7707 9.1333 13.0714 9.42324 12.5557 9.93896C12.0399 10.4547 11.75 11.154 11.75 11.8833C11.75 12.4271 11.9118 12.9584 12.2139 13.4106C12.516 13.8628 12.9448 14.2162 13.4473 14.4243C13.9496 14.6324 14.5028 14.6866 15.0361 14.5806C15.5696 14.4745 16.0597 14.2122 16.4443 13.8276C16.8289 13.443 17.0912 12.9529 17.1973 12.4194C17.3033 11.8861 17.2491 11.3329 17.041 10.8306C16.8329 10.3281 16.4795 9.89931 16.0273 9.59717C15.5751 9.29505 15.0438 9.1333 14.5 9.1333ZM24.875 11.8833C24.875 16.2629 22.5547 20.0469 20.2734 22.7192C17.9848 25.4002 15.6503 27.0607 15.4316 27.2134C15.1584 27.4047 14.8335 27.5083 14.5 27.5083C14.1664 27.5083 13.8406 27.4058 13.5674 27.2144V27.2134C13.3448 27.0579 11.013 25.3975 8.72656 22.7192C6.44528 20.0469 4.125 16.2629 4.125 11.8833V11.8823L4.13867 11.3687C4.26846 8.80539 5.34359 6.37369 7.16699 4.55029C9.11182 2.60547 11.7486 1.51145 14.499 1.5083H14.501L15.0146 1.52197C17.5779 1.65176 20.0096 2.72689 21.833 4.55029C23.7778 6.49512 24.8718 9.13193 24.875 11.8823V11.8833Z" fill="#BCCF00" stroke="#004851" stroke-width="1.5"/>
</svg>
