<svg width="44" height="42" fill="none" xmlns="http://www.w3.org/2000/svg"><path d="M38.76 3.5H23.19M20.16 3.5H4.58M42.37 3.5c0 1.1-.9 2-2 2s-2-.9-2-2 .9-2 2-2 2 .9 2 2ZM5 3.5c0 1.1-.9 2-2 2s-2-.9-2-2 .9-2 2-2 2 .9 2 2ZM39.6 21.42h-4v-4h4v4ZM7.75 21.42h-4v-4h4v4ZM23.67 5.5h-4v-4h4v4ZM20.13 8.94l-6.16 14.55c-.25.57-.31 1.21-.15 1.81l1.98 8.21h11.75l1.99-8.21c.16-.6.1-1.24-.15-1.81L23.23 8.94H20.13ZM27.42 36.46H15.94v3.83h11.48v-3.83Z" stroke="#ED4E47" stroke-width="1.5" stroke-miterlimit="10"/><path d="M22.82 3.5c7.87.56 14.22 6.91 14.78 14.78M5.75 18.28c.56-7.87 6.91-14.22 14.78-14.78M21.67 8.94v11.64M21.67 24.7a2.06 2.06 0 1 0 0-4.12 2.06 2.06 0 0 0 0 4.12Z" stroke="#ED4E47" stroke-width="1.5" stroke-miterlimit="10"/></svg>