<svg width="52" height="42" fill="none" xmlns="http://www.w3.org/2000/svg"><path d="M20.99 25.15v-1.02c0-1.03.51-1.93 1.23-2.21l1.56-.59.11-.02c1.42-.28 2.87-.28 4.29.02l1.66.6c.74.27 1.25 1.17 1.25 2.21v1c-2.98 2.78-7.13 2.78-10.11 0l.01.01Z" stroke="#ED4E47" stroke-width="1.5" stroke-miterlimit="10" stroke-linecap="square"/><path d="M28.71 17.43c0 1.47-1.19 2.66-2.66 2.66-1.47 0-2.66-1.19-2.66-2.66 0-1.47 1.19-2.66 2.66-2.66 1.47 0 2.66 1.19 2.66 2.66ZM36.5 33H15.59M22.86 37h6.37M36.5 9H15.59M15.04 13.98V2.94c0-1.07.87-1.94 1.94-1.94h18.11c1.07 0 1.94.87 1.94 1.94v11.03M37.04 28.03v11.03c0 1.07-.87 1.94-1.94 1.94H16.99c-1.07 0-1.94-.87-1.94-1.94V28.03M22.04 5h2M26.04 5h4M34.1 16.98h5.28l3.51-4h2.2" stroke="#ED4E47" stroke-width="1.5" stroke-miterlimit="10"/><path d="M47.09 14.98a2 2 0 1 0 0-4 2 2 0 0 0 0 4ZM34.1 25.02h5.28l3.51 4h2.2" stroke="#ED4E47" stroke-width="1.5" stroke-miterlimit="10"/><path d="M47.09 31.02a2 2 0 1 0 0-4 2 2 0 0 0 0 4ZM49.09 22.87a2 2 0 1 0 0-4 2 2 0 0 0 0 4ZM34.1 21.02h12.99M17.99 24.98h-5.28l-3.51 4H7" stroke="#ED4E47" stroke-width="1.5" stroke-miterlimit="10"/><path d="M5 30.98a2 2 0 1 0 0-4 2 2 0 0 0 0 4ZM17.99 16.98h-5.28l-3.51-4H7" stroke="#ED4E47" stroke-width="1.5" stroke-miterlimit="10"/><path d="M5 14.98a2 2 0 1 0 0-4 2 2 0 0 0 0 4ZM3 23.13a2 2 0 1 0 0-4 2 2 0 0 0 0 4ZM17.99 20.98H5" stroke="#ED4E47" stroke-width="1.5" stroke-miterlimit="10"/></svg>