<svg version="1.2" xmlns="http://www.w3.org/2000/svg" width="32" height="32"><path d="M26.5 6.8h-.1q-.1-.1-.2-.1-.1-.1-.2-.1 0-.1-.1-.1-.2-.2-.5-.3l-.4-.4q-.2-.1-.4-.3-.2-.2-.3-.4c-1.3-1.4-1.7-2.8-1.9-3.8-.1-.8-.1-1.3 0-1.3h-5.6V22.3q0 .5-.2 1.1-.2.5-.5 1t-.7.9q-.5.4-1 .7-.2.1-.5.2l-.6.2q-.3.1-.6.1-.3.1-.6.1c-2.5 0-4.6-2.1-4.6-4.7s2.1-4.7 4.6-4.7h.4q.2.1.4.1t.3.1q.2 0 .4.1v-5.6q-1.1-.2-2.1-.1-1.1.1-2.1.4-1 .3-2 .8-.9.5-1.7 1.2-.4.3-.7.6-.4.3-.6.7l-.6.8q-.3.4-.5.8c-.2.4-1.1 2-1.2 4.6-.1 1.5.4 3 .6 3.6.1.4.6 1.7 1.5 2.8q.2.3.5.6l.6.6q.3.3.6.5.3.3.7.5c2.7 1.8 5.6 1.7 5.6 1.7.5 0 2.3 0 4.2-.9 2.2-1 3.4-2.6 3.4-2.6q.3-.3.6-.7.3-.3.5-.7l.4-.8.4-.8c.5-1.3.7-2.9.7-3.5V10.7l.9.6s1.3.8 3.3 1.4c1.5.4 3.4.4 3.4.4V7.7c-.7.1-2.1-.2-3.5-.9z" style="fill:#000"/></svg>