<svg version="1.2" xmlns="http://www.w3.org/2000/svg" width="32" height="32"><path fill-rule="evenodd" d="M31.9 9.4c0 1.3.1 3.5.1 6.6 0 3.1-.1 5.4-.1 6.7-.1 1.4-.3 2.5-.6 3.5-.4 1.2-1.2 2.3-2 3.2-.9.8-1.9 1.5-3.1 1.9-1 .3-2.2.6-3.6.6-1.3.1-3.5.1-6.6.1-3.1 0-5.4 0-6.7-.1-1.4 0-2.5-.3-3.5-.7-1.2-.3-2.3-1-3.2-1.8-.8-.9-1.5-2-1.9-3.2-.3-1-.6-2.1-.6-3.5C0 21.4 0 19.1 0 16s0-5.3.1-6.6c0-1.4.3-2.6.6-3.6.4-1.2 1.1-2.2 1.9-3.1.9-.8 2-1.6 3.2-2C6.8.4 7.9.2 9.3.1 10.6.1 12.9 0 16 0s5.3.1 6.6.1c1.4.1 2.6.3 3.6.6 1.2.4 2.2 1.2 3.1 2 .8.9 1.6 1.9 2 3.1.3 1 .5 2.2.6 3.6zm-3.4 16c.3-.8.4-2 .6-3.8V10.4c-.2-1.8-.3-3-.6-3.8-.6-1.5-1.6-2.5-3.1-3.1-.8-.3-2-.4-3.8-.6H10.4c-1.8.2-3 .3-3.8.6-1.5.6-2.5 1.6-3.1 3.1-.3.8-.5 2-.6 3.8v11.2c.1 1.8.3 3 .6 3.8.6 1.5 1.6 2.5 3.1 3.1.8.3 2 .5 3.8.6h11.2c1.8-.1 3-.3 3.8-.6 1.5-.6 2.5-1.6 3.1-3.1zM25.9 8.8c-.4.4-.8.6-1.3.6-.6 0-1-.2-1.4-.6-.4-.4-.6-.8-.6-1.4 0-.5.2-.9.6-1.3.4-.4.8-.6 1.4-.6.5 0 .9.2 1.3.6.4.4.6.8.6 1.3-.1.6-.3 1-.6 1.4zm-9.9-1c1.4 0 2.8.4 4.1 1.1q1.9 1.1 3 3c.7 1.3 1.1 2.7 1.1 4.1 0 1.5-.4 2.9-1.1 4.1q-1.1 2-3 3-2 1.1-4.1 1.1c-1.5 0-2.9-.3-4.1-1.1q-2-1-3-3c-.8-1.2-1.1-2.6-1.1-4.1q0-2.1 1.1-4.1 1-1.9 3-3c1.2-.7 2.6-1.1 4.1-1.1zm0 13.6c1.4 0 2.7-.5 3.8-1.6 1-1 1.6-2.3 1.6-3.8 0-1.4-.6-2.7-1.6-3.8-1.1-1-2.4-1.6-3.8-1.6-1.5 0-2.8.6-3.8 1.6-1.1 1.1-1.6 2.4-1.6 3.8 0 1.5.5 2.8 1.6 3.8 1 1.1 2.3 1.6 3.8 1.6z" style="fill:#000"/></svg>