<svg width="125" height="138" viewBox="0 0 125 138" fill="none" xmlns="http://www.w3.org/2000/svg">
<path d="M67.0401 9.89843L67.5877 47.1115L81.4224 32.5453C84.0076 29.8242 88.2531 29.5577 91.1581 31.9337C94.3629 34.5548 94.6867 39.3374 91.8644 42.3676L79.3196 55.8345L113.873 54.5886C119.399 54.39 124.006 58.7755 124.078 64.3043C124.143 69.3453 120.392 73.6215 115.385 74.2132L85.6759 77.7272L95.2797 87.724C98.6911 91.2753 99.0415 96.7695 96.1086 100.726C92.6239 105.427 85.8851 106.188 81.4384 102.384L72.6795 94.8879L70.7912 128.077C70.4834 133.482 66.0726 137.74 60.6597 137.858C54.9964 137.98 50.2818 133.536 50.0699 127.874L48.6907 90.8635L33.9779 103.677C30.8583 106.395 26.1557 106.188 23.2867 103.207C20.3857 100.193 20.3937 95.4236 23.3054 92.42L39.6279 75.5817L10.754 77.1928C5.64627 77.478 1.27546 73.5669 0.994294 68.4592C0.718454 63.4634 4.46162 59.1539 9.4454 58.7248L37.1494 56.3449L24.578 45.4672C21.0853 42.4462 20.9534 37.0734 24.2928 33.8845C27.2804 31.0315 31.9697 30.9902 35.0066 33.7899L48.8159 46.5186L47.2902 10.4608C47.049 4.76407 51.6663 0.0467967 57.367 0.166727C62.6852 0.27733 66.9601 4.57884 67.0387 9.89843H67.0401Z" fill="#B9A3E3"/>
</svg>
