<svg width="385" height="411" viewBox="0 0 385 411" fill="none" xmlns="http://www.w3.org/2000/svg">
<path d="M324.906 39.9796C320.27 39.9796 316.512 36.2212 316.512 31.5852V9.45398H333.302V31.5852C333.302 36.2212 329.543 39.9796 324.907 39.9796H324.906Z" fill="#FF8038"/>
<path d="M324.906 66.6182C320.27 66.6182 316.512 70.3766 316.512 75.0126V97.1438H333.302V75.0126C333.302 70.3766 329.543 66.6182 324.907 66.6182H324.906Z" fill="#FF8038"/>
<path d="M315.489 43.8815C312.21 47.1602 306.895 47.1602 303.617 43.8815L287.968 28.2324L299.84 16.3605L315.489 32.0096C318.767 35.2883 318.767 40.6029 315.489 43.8815Z" fill="#FF8038"/>
<path d="M334.325 62.7173C331.046 65.9959 331.046 71.3106 334.325 74.5892L349.974 90.2383L361.846 78.3664L346.196 62.7173C342.918 59.4386 337.603 59.4386 334.325 62.7173Z" fill="#FF8038"/>
<path d="M311.588 53.299C311.588 57.935 307.829 61.6934 303.193 61.6934H281.061V44.9036H303.192C307.828 44.9036 311.587 48.662 311.587 53.298L311.588 53.299Z" fill="#FF8038"/>
<path d="M338.225 53.299C338.225 57.935 341.984 61.6934 346.62 61.6934H368.751V44.9036H346.62C341.984 44.9036 338.225 48.662 338.225 53.298V53.299Z" fill="#FF8038"/>
<path d="M315.489 62.7173C318.767 65.9959 318.767 71.3106 315.489 74.5892L299.84 90.2383L287.968 78.3664L303.617 62.7173C306.895 59.4386 312.21 59.4386 315.489 62.7173Z" fill="#FF8038"/>
<path d="M334.325 43.8815C337.603 47.1602 342.918 47.1602 346.196 43.8815L361.846 28.2324L349.974 16.3605L334.325 32.0096C331.046 35.2883 331.046 40.6029 334.325 43.8815Z" fill="#FF8038"/>
<path d="M303.406 339.559L295.396 363.803C295.432 359.585 296.116 355.301 297.512 351.078C298.907 346.855 300.914 342.993 303.406 339.56" fill="#00C0AA"/>
<path d="M312.376 330.472L297.219 376.35C296.533 374.108 296.032 371.802 295.73 369.46L307.055 335.185C308.7 333.46 310.482 331.89 312.376 330.472Z" fill="#00C0AA"/>
<path d="M319.828 325.994L300.572 384.275C299.739 382.755 299 381.187 298.36 379.579L315.231 328.514C316.711 327.583 318.245 326.741 319.828 325.994Z" fill="#00C0AA"/>
<path d="M326.642 323.451L304.565 390.271C303.639 389.112 302.781 387.907 301.992 386.663L322.405 324.883C323.787 324.333 325.201 323.854 326.643 323.451" fill="#00C0AA"/>
<path d="M333.035 322.161L308.964 395.015C307.976 394.102 307.035 393.144 306.145 392.153L329.044 322.847C330.356 322.559 331.69 322.327 333.035 322.161Z" fill="#00C0AA"/>
<path d="M339.118 321.831L313.69 398.792C312.648 398.075 311.643 397.313 310.679 396.509L335.318 321.939C336.577 321.845 337.846 321.81 339.118 321.831Z" fill="#00C0AA"/>
<path d="M344.924 322.316L318.679 401.752C317.586 401.202 316.527 400.607 315.502 399.973L341.289 321.924C342.497 322.003 343.71 322.134 344.924 322.316Z" fill="#00C0AA"/>
<path d="M346.955 322.465L350.505 323.599L323.91 404.091L320.361 402.957L346.955 322.465Z" fill="#00C0AA"/>
<path d="M350.492 323.543L323.913 403.987C322.776 403.591 321.666 403.146 320.586 402.662L347.01 322.687C348.172 322.925 349.336 323.207 350.492 323.543Z" fill="#00C0AA"/>
<path d="M352.427 324.214L355.976 325.348L329.382 405.84L325.833 404.705L352.427 324.214Z" fill="#00C0AA"/>
<path d="M355.831 325.462L329.382 405.517C328.223 405.269 327.064 404.977 325.91 404.631L352.493 324.172C353.628 324.557 354.741 324.991 355.831 325.462Z" fill="#00C0AA"/>
<path d="M360.928 328.093L335.077 406.334C333.874 406.245 332.665 406.098 331.456 405.901L357.74 326.349C358.836 326.889 359.899 327.475 360.928 328.093Z" fill="#00C0AA"/>
<path d="M365.775 331.503L341.038 406.377C339.783 406.456 338.52 406.476 337.251 406.444L362.752 329.261C363.8 329.962 364.807 330.714 365.775 331.502" fill="#00C0AA"/>
<path d="M370.326 335.794L347.283 405.537C345.968 405.814 344.642 406.025 343.306 406.177L367.491 332.977C368.485 333.874 369.431 334.817 370.325 335.794" fill="#00C0AA"/>
<path d="M374.515 341.189L353.896 403.598C352.515 404.127 351.109 404.58 349.678 404.97L371.923 337.641C372.849 338.778 373.715 339.963 374.515 341.188" fill="#00C0AA"/>
<path d="M378.195 348.132L361.023 400.103C359.55 400.998 358.025 401.808 356.459 402.523L375.95 343.531C376.788 345.019 377.537 346.557 378.195 348.132Z" fill="#00C0AA"/>
<path d="M380.926 357.927L369.085 393.763C367.459 395.394 365.702 396.89 363.845 398.229L379.357 351.278C380.058 353.442 380.587 355.66 380.926 357.926" fill="#00C0AA"/>
<path d="M379.276 377.209C377.719 381.922 375.4 386.184 372.494 389.909L381.38 363.014C381.507 367.702 380.836 372.491 379.276 377.209Z" fill="#00C0AA"/>
<path d="M36.4188 105.334C22.4364 105.334 10.3272 98.6975 4.80091 87.9991C0.380654 79.4413 1.07368 70.0036 6.70159 62.106C11.251 55.7216 18.0162 52.1378 25.7496 52.0144C25.8878 52.0123 26.0271 52.0107 26.1663 52.0107C34.5293 52.0107 42.7636 56.0265 47.7397 62.5576C52.8049 69.2052 53.5657 76.7222 49.7738 82.6651C46.008 88.5683 38.3661 91.5903 31.1975 90.0163C25.4939 88.7642 22.7186 85.677 21.394 83.3083C19.1751 79.3386 19.0872 74.1263 21.1409 68.2348L30.2689 71.4162C29.1994 74.4853 29.0358 77.1679 29.8321 78.5921C30.0254 78.9384 30.6136 79.9914 33.2703 80.5743C36.5062 81.2843 40.0211 79.9782 41.6242 77.466C43.1882 75.0147 42.6291 71.8011 40.0502 68.4164C36.8673 64.2375 31.3002 61.5941 25.9037 61.6798C22.6609 61.7317 18.0622 62.8208 14.5738 67.7159C11.071 72.6312 10.6506 78.2596 13.39 83.563C16.4151 89.4191 24.0517 95.668 36.4146 95.668H36.485L36.5041 105.335H36.4193L36.4188 105.334Z" fill="#DB55AA"/>
</svg>
