<svg width="193" height="218" viewBox="0 0 193 218" fill="none" xmlns="http://www.w3.org/2000/svg">
<path d="M103.256 15.8352L104.117 74.4356L125.746 51.4996C129.779 47.2155 136.424 46.7884 140.963 50.5353C145.967 54.6679 146.473 62.1893 142.07 66.9693L122.465 88.1834L176.469 86.2273C185.11 85.9105 192.301 92.8257 192.424 101.532C192.52 109.466 186.668 116.203 178.834 117.139L132.404 122.677L147.416 138.422C152.748 144.015 153.295 152.666 148.715 158.892C143.274 166.29 132.732 167.488 125.787 161.51L112.102 149.704L109.148 201.968C108.67 210.481 101.766 217.19 93.3163 217.369C84.4706 217.562 77.1014 210.564 76.7733 201.651L74.6131 143.368L51.617 163.548C46.7361 167.833 39.3943 167.502 34.9099 162.805C30.3708 158.052 30.3845 150.545 34.9372 145.82L60.449 119.302L15.318 121.837C7.33359 122.291 0.511295 116.12 0.0601219 108.089C-0.37738 100.223 5.47421 93.4318 13.2672 92.7568L56.5662 89.0099L36.9196 71.8734C31.4645 67.1209 31.2595 58.6628 36.4685 53.6348C41.1443 49.144 48.4724 49.0751 53.2166 53.4832L74.8046 73.5264L72.4256 16.7443C72.0155 7.74902 79.2342 0.324093 88.1347 0.503173C96.4472 0.682253 103.133 7.45973 103.256 15.8214" fill="#BCCF00"/>
</svg>
