<svg width="157" height="91" viewBox="0 0 157 91" fill="none" xmlns="http://www.w3.org/2000/svg">
<path d="M96.5675 0.762722C105.869 -0.502743 116.089 1.54234 125.568 5.34787C135.038 9.1498 144.552 15.0156 152.866 22.469L153.261 22.8251L153.368 22.9237C157.88 27.1205 158.191 34.1776 154.04 38.7559C149.889 43.3342 142.835 43.7134 138.219 39.6323L138.11 39.5351L137.806 39.2613C131.414 33.5314 124.144 29.0824 117.165 26.2808C109.935 23.3779 103.791 22.5444 99.6079 23.1135C95.8143 23.6296 94.4977 25.0372 93.813 26.6377C92.7925 29.0232 92.0304 34.696 95.7212 45.6531L95.8065 45.9083C99.3829 56.7063 98.9006 66.9739 93.886 75.0231C88.8553 83.0981 80.302 87.164 71.7928 87.137C63.2475 87.1098 54.7422 83.007 49.1501 75.1759C43.553 67.3378 41.5248 56.7803 43.4174 44.5863L43.459 44.3127C45.1819 32.7909 41.6758 28.3166 39.6485 26.7893C37.1757 24.9264 33.2229 24.4954 29.5631 26.3736C26.3371 28.029 23.3895 31.5357 23.5223 37.8472C23.6647 44.6165 27.4757 55.8476 41.5806 71.0481L41.9157 71.408L42.0145 71.5151C46.1651 76.0695 45.8933 83.1284 41.3789 87.3489C36.8646 91.5693 29.8038 91.3656 25.5393 86.9178L25.4391 86.8119L25.0567 86.4014C8.93529 69.0295 1.27561 52.7432 0.972186 38.3217C0.655626 23.2756 8.45781 11.8513 19.2658 6.30495C29.6399 0.981213 43.0053 1.0774 53.2198 8.77268C63.7807 16.7289 68.304 30.6289 65.7668 47.6436L65.7056 48.0461C64.4751 55.9741 66.1521 60.1722 67.5052 62.067C68.8632 63.9688 70.553 64.5763 71.8644 64.5805C73.2118 64.5847 74.1768 64.003 74.7424 63.0952C75.2846 62.2249 76.5086 59.2728 74.3465 52.8546L74.3464 52.8544C69.8788 39.5915 68.9013 27.5237 73.076 17.7651C77.5867 7.22136 86.8763 2.08121 96.5675 0.762722Z" fill="#FF8038"/>
</svg>
