<svg width="181" height="182" viewBox="0 0 181 182" fill="none" xmlns="http://www.w3.org/2000/svg">
<path d="M89.6388 68.5571C81.8153 68.5571 75.4727 62.1823 75.4727 54.3191V16.7817H103.807V54.3191C103.807 62.1823 97.4639 68.5571 89.6404 68.5571H89.6388Z" fill="#DB55AA"/>
<path d="M89.6388 113.74C81.8153 113.74 75.4727 120.114 75.4727 127.978V165.515H103.807V127.978C103.807 120.114 97.4639 113.74 89.6404 113.74H89.6388Z" fill="#DB55AA"/>
<path d="M73.7462 75.1751C68.2133 80.7361 59.2445 80.7361 53.7116 75.1751L27.3027 48.6322L47.3373 28.496L73.7462 55.0389C79.279 60.5999 79.279 69.6142 73.7462 75.1751Z" fill="#DB55AA"/>
<path d="M105.532 107.123C99.9996 112.684 99.9996 121.698 105.532 127.259L131.941 153.802L151.976 133.666L125.567 107.123C120.034 101.562 111.065 101.562 105.532 107.123Z" fill="#DB55AA"/>
<path d="M67.1635 91.1483C67.1635 99.0115 60.8208 105.386 52.9974 105.386H15.6479V76.9086H52.9957C60.8192 76.9086 67.1618 83.2834 67.1618 91.1466L67.1635 91.1483Z" fill="#DB55AA"/>
<path d="M112.116 91.1483C112.116 99.0115 118.459 105.386 126.282 105.386H163.63V76.9086H126.282C118.459 76.9086 112.116 83.2834 112.116 91.1466V91.1483Z" fill="#DB55AA"/>
<path d="M73.7462 107.123C79.279 112.684 79.279 121.698 73.7462 127.259L47.3373 153.802L27.3027 133.666L53.7116 107.123C59.2445 101.562 68.2133 101.562 73.7462 107.123Z" fill="#DB55AA"/>
<path d="M105.532 75.1751C111.065 80.7361 120.034 80.7361 125.567 75.1751L151.976 48.6322L131.941 28.496L105.532 55.0389C99.9996 60.5999 99.9996 69.6142 105.532 75.1751Z" fill="#DB55AA"/>
</svg>
