<svg width="384" height="365" viewBox="0 0 384 365" fill="none" xmlns="http://www.w3.org/2000/svg">
<path d="M328.784 297.267C324.148 297.267 320.39 293.509 320.39 288.873V266.742H337.179V288.873C337.179 293.509 333.421 297.267 328.785 297.267H328.784Z" fill="#FF8038"/>
<path d="M328.784 323.906C324.148 323.906 320.39 327.664 320.39 332.3V354.431H337.179V332.3C337.179 327.664 333.421 323.906 328.785 323.906H328.784Z" fill="#FF8038"/>
<path d="M319.367 301.169C316.088 304.448 310.773 304.448 307.495 301.169L291.846 285.52L303.718 273.648L319.367 289.297C322.645 292.576 322.645 297.89 319.367 301.169Z" fill="#FF8038"/>
<path d="M338.202 320.005C334.924 323.283 334.924 328.598 338.202 331.877L353.851 347.526L365.723 335.654L350.074 320.005C346.795 316.726 341.481 316.726 338.202 320.005Z" fill="#FF8038"/>
<path d="M315.466 310.586C315.466 315.222 311.708 318.981 307.072 318.981H284.939V302.191H307.071C311.707 302.191 315.465 305.949 315.465 310.585L315.466 310.586Z" fill="#FF8038"/>
<path d="M342.104 310.586C342.104 315.222 345.862 318.981 350.498 318.981H372.629V302.191H350.498C345.862 302.191 342.104 305.949 342.104 310.585V310.586Z" fill="#FF8038"/>
<path d="M319.367 320.005C322.645 323.283 322.645 328.598 319.367 331.877L303.718 347.526L291.846 335.654L307.495 320.005C310.773 316.726 316.088 316.726 319.367 320.005Z" fill="#FF8038"/>
<path d="M338.202 301.169C341.481 304.448 346.795 304.448 350.074 301.169L365.723 285.52L353.851 273.648L338.202 289.297C334.924 292.576 334.924 297.89 338.202 301.169Z" fill="#FF8038"/>
<g clip-path="url(#clip0_5042_26353)">
<path d="M21.5123 85.5961C16.1956 63.5955 10.6303 41.6551 4.81862 19.7808L12.9981 18.132L16.8597 37.4152L22.5401 18.2186L31.3847 22.1395L25.2172 43.8409L39.8423 27.1906L46.9698 33.3173L31.5025 50.1452L53.778 47.4798L55.8195 56.2014L30.6072 59.621L48.6414 70.9427L44.6091 78.1362L24.535 65.4851L29.97 83.4045L21.5115 85.5957L21.5123 85.5961Z" fill="#00C0AA"/>
</g>
<path d="M378.583 56.0777L377.267 54.7895L376.823 56.625L378.583 56.0777Z" fill="#DB55AA"/>
<path d="M371.466 58.2922L373.251 50.8653L374.014 51.6169L375.442 53.0079L374.387 57.3838L373.25 57.7369L371.466 58.2922Z" fill="#DB55AA"/>
<path d="M366.234 59.9198L369.334 47.0419L370.345 48.0272L371.522 49.1787L369.16 59.0085L368.345 59.2603L366.234 59.9198Z" fill="#DB55AA"/>
<path d="M361.008 61.5431L365.413 43.2155L367.605 45.3538L363.932 60.6369L361.008 61.5431Z" fill="#DB55AA"/>
<path d="M355.774 63.1707L361.497 39.387L361.778 39.661L363.688 41.5296L358.701 62.2602L356.912 62.8169L355.774 63.1707Z" fill="#DB55AA"/>
<path d="M350.548 64.7948L357.58 35.5622L358.103 36.0735L359.772 37.7005L353.473 63.8878L352.006 64.3402L350.548 64.7948Z" fill="#DB55AA"/>
<path d="M345.32 66.4238L353.663 31.7387L355.654 33.6856L355.855 33.877L348.241 65.5111L345.32 66.4238Z" fill="#DB55AA"/>
<path d="M340.089 68.0464L349.747 27.9095L351.933 30.0506L343.014 67.1395L340.573 67.8976L340.089 68.0464Z" fill="#DB55AA"/>
<path d="M334.861 69.6748L345.83 24.0846L345.866 24.1206L348.018 26.2222L337.783 68.7628L335.668 69.4202L334.861 69.6748Z" fill="#DB55AA"/>
<path d="M329.63 71.2981L341.909 20.2554L343.418 21.7276L344.1 22.398L332.554 70.3911L332.401 70.4372L329.63 71.2981Z" fill="#DB55AA"/>
<path d="M324.402 72.9265L337.993 16.4305L339.743 18.1408L340.185 18.5687L327.328 72.0152L324.402 72.9265Z" fill="#DB55AA"/>
<path d="M319.175 74.5512L334.075 12.607L336.267 14.7453L322.096 73.6428L319.329 74.5009L319.175 74.5512Z" fill="#DB55AA"/>
<path d="M313.942 76.1781L330.158 8.77777L331.175 9.77391L332.35 10.9204L316.868 75.2668L316.062 75.5171L313.942 76.1781Z" fill="#DB55AA"/>
<path d="M311.161 77.0412L311.636 76.8945L328.429 7.09049L327.504 6.18784L326.241 4.95292L308.716 77.8022L311.161 77.0412Z" fill="#DB55AA"/>
<defs>
<clipPath id="clip0_5042_26353">
<rect width="72.6996" height="72.6996" fill="white" transform="translate(18.8164 89.0385) rotate(-105)"/>
</clipPath>
</defs>
</svg>
