<svg width="113" height="113" viewBox="0 0 113 113" fill="none" xmlns="http://www.w3.org/2000/svg">
<path d="M112.184 56.0108C112.184 48.2773 105.914 42.0081 98.181 42.0081H90.1775L95.76 36.4255C101.228 30.9571 101.228 22.0911 95.76 16.6227C90.2917 11.1543 81.4256 11.1543 75.9572 16.6227L70.1756 22.4043V14.0027C70.1756 6.26922 63.9064 0 56.1729 0C48.4394 0 42.1702 6.26922 42.1702 14.0027V21.8442L36.7127 16.3867C31.2443 10.9183 22.3783 10.9183 16.9099 16.3867C11.4415 21.8551 11.4415 30.7211 16.9099 36.1895L22.7285 42.0081L14.1648 42.0081C6.43134 42.0081 0.16211 48.2773 0.162109 56.0108C0.162109 63.7443 6.43133 70.0135 14.1648 70.0135H22.5664L16.5488 76.0311C11.0804 81.4995 11.0804 90.3655 16.5488 95.8339C22.0172 101.302 30.8832 101.302 36.3516 95.8339L42.1702 90.0153V98.0189C42.1702 105.752 48.4394 112.022 56.1729 112.022C63.9064 112.022 70.1756 105.752 70.1756 98.0189V89.4552L76.3183 95.5979C81.7867 101.066 90.6527 101.066 96.1211 95.5979C101.59 90.1295 101.59 81.2635 96.1211 75.7951L90.3395 70.0135H98.181C105.914 70.0135 112.184 63.7443 112.184 56.0108Z" fill="#B9A3E3"/>
</svg>
