<svg width="138" height="119" viewBox="0 0 138 119" fill="none" xmlns="http://www.w3.org/2000/svg">
<path d="M104.154 57.5135C107.563 62.0542 112.411 65.4992 117.822 67.2268C120.355 68.0351 123.243 68.4404 125.58 67.1709C127.929 65.8932 129.185 63.1396 129.323 60.4705C129.46 57.8015 128.649 55.1792 127.74 52.6667C122.319 37.6926 113.032 24.2596 101.643 13.1241C99.5274 11.0551 97.2618 9.01463 94.4858 7.9884C91.7097 6.96217 88.291 7.1599 86.1503 9.20407C83.9027 11.3518 83.6395 14.8138 83.7846 17.9161C84.2003 26.8481 86.8304 35.6676 91.3719 43.37C91.331 43.2827 87.3401 37.9281 84.6659 35.9446C81.9916 33.961 78.2348 33.0677 75.2879 34.6201C72.4661 36.1062 71.0796 39.3873 70.5186 42.5244C69.9576 45.6615 69.4775 50.7786 68.996 51.9488C68.5022 47.178 68.0621 42.6514 66.6863 38.3603C65.3106 34.0693 62.9054 29.9744 59.2315 27.3626C55.5578 24.7518 50.4903 23.8611 46.433 25.8315C42.6038 27.6917 40.2684 31.6575 38.6917 35.6096C34.7752 45.4251 34.2242 56.5441 36.6669 67.0938C34.0317 64.6178 31.3653 62.1173 28.2253 60.3229C25.0854 58.5284 21.38 57.4774 17.8242 58.1424C14.2683 58.8074 10.9664 61.447 10.2063 64.9814C9.55737 67.9958 10.7525 71.0753 12.0187 73.8866C17.5598 86.1892 24.9997 97.7561 34.7822 107.054C37.5707 109.704 40.8773 112.295 44.7255 112.35C48.8568 112.408 52.6119 109.305 54.1177 105.46C55.6247 101.614 55.172 97.2243 53.7387 93.3523C52.3055 89.4802 49.9622 86.0227 48.3797 82.9394C48.2726 82.933 51.582 87.615 53.5956 89.5931C55.6095 91.5723 58.0795 93.1824 60.8503 93.7304C63.6211 94.2783 66.7094 93.638 68.7297 91.6647C70.8569 89.5879 71.5109 86.4481 71.7621 83.4877C72.1068 79.4387 71.8934 75.3427 71.4166 71.1383C71.5367 72.0537 77.2994 80.4246 81.963 83.1468C86.6267 85.869 92.7515 86.5103 97.4004 83.759C101.572 81.2899 103.951 76.5122 104.68 71.7228C105.408 66.9323 104.371 58.3878 104.151 57.5155L104.154 57.5135Z" fill="#FF8038"/>
<mask id="mask0_5057_5790" style="mask-type:luminance" maskUnits="userSpaceOnUse" x="10" y="7" width="120" height="106">
<path d="M104.154 57.5135C107.563 62.0542 112.411 65.4992 117.822 67.2268C120.355 68.0351 123.243 68.4404 125.58 67.1709C127.929 65.8932 129.185 63.1396 129.323 60.4705C129.46 57.8015 128.649 55.1792 127.74 52.6667C122.319 37.6926 113.032 24.2596 101.643 13.1241C99.5274 11.0551 97.2618 9.01463 94.4858 7.9884C91.7097 6.96217 88.291 7.1599 86.1503 9.20407C83.9027 11.3518 83.6395 14.8138 83.7846 17.9161C84.2003 26.8481 86.8304 35.6676 91.3719 43.37C91.331 43.2827 87.3401 37.9281 84.6659 35.9446C81.9916 33.961 78.2348 33.0677 75.2879 34.6201C72.4661 36.1062 71.0796 39.3873 70.5186 42.5244C69.9576 45.6615 69.4775 50.7786 68.996 51.9488C68.5022 47.178 68.0621 42.6514 66.6863 38.3603C65.3106 34.0693 62.9054 29.9744 59.2315 27.3626C55.5578 24.7518 50.4903 23.8611 46.433 25.8315C42.6038 27.6917 40.2684 31.6575 38.6917 35.6096C34.7752 45.4251 34.2242 56.5441 36.6669 67.0938C34.0317 64.6178 31.3653 62.1173 28.2253 60.3229C25.0854 58.5284 21.38 57.4774 17.8242 58.1424C14.2683 58.8074 10.9664 61.447 10.2063 64.9814C9.55737 67.9958 10.7525 71.0753 12.0187 73.8866C17.5598 86.1892 24.9997 97.7561 34.7822 107.054C37.5707 109.704 40.8773 112.295 44.7255 112.35C48.8568 112.408 52.6119 109.305 54.1177 105.46C55.6247 101.614 55.172 97.2243 53.7387 93.3523C52.3055 89.4802 49.9622 86.0227 48.3797 82.9394C48.2726 82.933 51.582 87.615 53.5956 89.5931C55.6095 91.5723 58.0795 93.1824 60.8503 93.7304C63.6211 94.2783 66.7094 93.638 68.7297 91.6647C70.8569 89.5879 71.5109 86.4481 71.7621 83.4877C72.1068 79.4387 71.8934 75.3427 71.4166 71.1383C71.5367 72.0537 77.2994 80.4246 81.963 83.1468C86.6267 85.869 92.7515 86.5103 97.4004 83.759C101.572 81.2899 103.951 76.5122 104.68 71.7228C105.408 66.9323 104.371 58.3878 104.151 57.5155L104.154 57.5135Z" fill="white"/>
</mask>
<g mask="url(#mask0_5057_5790)">
<path d="M33.8537 94.6865C32.1036 92.5162 28.9241 92.1736 26.7503 93.9237C24.5776 95.6734 24.2334 98.8507 25.9839 101.022C27.734 103.192 30.9134 103.535 33.0873 101.785C35.26 100.035 35.6041 96.858 33.8537 94.6865Z" fill="#FF8038"/>
<path d="M90.9514 22.799C89.2013 20.6286 86.0218 20.2861 83.848 22.0361C81.6753 23.7858 81.3311 26.9631 83.0815 29.1346C84.8316 31.3049 88.0111 31.6474 90.1849 29.8974C92.3576 28.1477 92.7018 24.9704 90.9514 22.799Z" fill="#FF8038"/>
<path d="M71.2175 87.7904C69.4674 85.62 66.2879 85.2775 64.1141 87.0275C61.9414 88.7773 61.5972 91.9545 63.3476 94.126C65.0977 96.2964 68.2772 96.6389 70.451 94.8889C72.6238 93.1391 72.9679 89.9619 71.2175 87.7904Z" fill="#FF8038"/>
<path d="M44.2691 61.4947C48.676 59.9535 50.9996 55.1349 49.4591 50.732C47.9187 46.3291 43.0975 44.0093 38.6907 45.5505C34.2838 47.0917 31.9602 51.9103 33.5007 56.3132C35.0411 60.716 39.8623 63.0359 44.2691 61.4947Z" fill="#FF8038"/>
<path d="M125.943 48.1029C129.58 45.176 130.154 39.8586 127.227 36.2263C124.299 32.594 118.978 32.0222 115.342 34.9492C111.706 37.8761 111.131 43.1935 114.059 46.8258C116.986 50.4581 122.307 51.0299 125.943 48.1029Z" fill="#FF8038"/>
</g>
</svg>
