<svg width="119" height="120" viewBox="0 0 119 120" fill="none" xmlns="http://www.w3.org/2000/svg">
<path d="M119 30.6581C119 14.2276 105.68 0.90808 89.25 0.908081C72.8195 0.908082 59.5 14.2276 59.5 30.6581C59.5 14.2276 46.1805 0.908083 29.75 0.908084C13.3195 0.908085 -1.30041e-06 14.2276 0 30.6581C7.18199e-07 47.0886 13.3195 60.4081 29.75 60.4081C13.3195 60.4081 1.88263e-06 73.7276 2.60083e-06 90.1581C3.31903e-06 106.589 13.3195 119.908 29.75 119.908C46.1805 119.908 59.5 106.589 59.5 90.1581C59.5 106.589 72.8195 119.908 89.25 119.908C105.68 119.908 119 106.589 119 90.1581C119 73.7315 105.687 60.4144 89.2617 60.4081C105.687 60.4018 119 47.0847 119 30.6581Z" fill="#FF8038"/>
</svg>
