<svg width="48" height="48" fill="none" xmlns="http://www.w3.org/2000/svg"><g clip-path="url(#a)" stroke="#ED4E47" stroke-width="1.5" stroke-linecap="round" stroke-linejoin="round"><path d="M29.176 5.779A7.334 7.334 0 1 1 18.804 16.15 7.334 7.334 0 0 1 29.176 5.779ZM42.45 28.766A7.322 7.322 0 1 1 32.095 39.12 7.322 7.322 0 0 1 42.45 28.765ZM15.905 28.766A7.322 7.322 0 1 1 5.55 39.12a7.322 7.322 0 0 1 10.355-10.355Z"/><path d="M34.837 15.456c5.986 5.985 5.986 15.689 0 21.674-5.985 5.985-15.689 5.985-21.674 0-5.985-5.985-5.985-15.69 0-21.674 5.985-5.986 15.69-5.986 21.674 0Z"/></g><defs><clipPath id="a"><path fill="#fff" d="M0 0h48v48H0z"/></clipPath></defs></svg>