<svg width="17" height="17" fill="none" xmlns="http://www.w3.org/2000/svg"><g clip-path="url(#a)"><path d="M8.757 13.778a.79.79 0 0 0-.82 0l-3.86 2.34a.79.79 0 0 1-1.18-.855l1.024-4.387a.79.79 0 0 0-.25-.775L.272 7.14a.79.79 0 0 1 .452-1.383l4.479-.38a.79.79 0 0 0 .66-.478L7.621.769a.79.79 0 0 1 1.454 0l1.758 4.13a.79.79 0 0 0 .66.479l4.478.38a.79.79 0 0 1 .452 1.383l-3.398 2.96a.79.79 0 0 0-.25.775l1.023 4.387a.79.79 0 0 1-1.179.855l-3.862-2.34Z" fill="#a9c2da" opacity="0.3"/><mask id="b" style="mask-type:alpha" maskUnits="userSpaceOnUse" x="0" y="0" width="17" height="17"><path d="M8.757 13.778a.79.79 0 0 0-.82 0l-3.86 2.34a.79.79 0 0 1-1.18-.855l1.024-4.387a.79.79 0 0 0-.25-.775L.272 7.14a.79.79 0 0 1 .452-1.383l4.479-.38a.79.79 0 0 0 .66-.478L7.621.769a.79.79 0 0 1 1.454 0l1.758 4.13a.79.79 0 0 0 .66.479l4.478.38a.79.79 0 0 1 .452 1.383l-3.398 2.96a.79.79 0 0 0-.25.775l1.023 4.387a.79.79 0 0 1-1.179.855l-3.862-2.34Z" fill="#a9c2da"/></mask><g mask="url(#b)"><path fill="#FFC500" d="M0 .288h8.348v15.945H0z"/></g></g><defs><clipPath id="a"><path fill="#fff" transform="translate(0 .288)" d="M0 0h16.696v16H0z"/></clipPath></defs></svg>