<svg width="128" height="91" viewBox="0 0 128 91" fill="none" xmlns="http://www.w3.org/2000/svg">
<path d="M101.11 4.03922C80.2623 -2.12443 57.6688 0.419926 38.2706 10.0254C28.2017 15.0056 19.0499 21.8694 11.3872 30.0843C7.51151 34.246 3.87249 38.7923 1.91985 44.1966C-0.161001 49.9559 0.174315 56.376 2.08751 62.1353C5.52929 72.4902 13.8132 80.646 23.6751 85.0246C35.8544 90.4289 49.6906 90.4092 62.7575 89.9555C75.568 89.5118 88.9801 88.3185 101.189 84.1371C111.327 80.6558 120.499 74.2555 124.739 64.0879C128.842 54.2458 128.418 42.1848 123.161 32.8358C118.24 24.0982 108.625 18.0628 98.4771 18.3192C96.0018 18.3783 93.5462 18.832 91.1991 19.6308C89.4634 20.2225 90.203 22.9937 91.9584 22.3921C101.11 19.2856 111.11 22.6189 117.441 29.7194C124.345 37.4511 126.071 49.0388 123.487 58.871C117.422 81.928 89.207 85.4487 69.2663 86.7603C47.521 88.1903 19.1583 88.496 7.10718 66.5041C4.33601 61.445 2.82713 55.5081 3.51746 49.7291C4.20779 43.9994 7.39318 39.0192 11.0618 34.7194C17.8171 26.8299 25.9827 20.1337 35.0063 14.9859C52.4618 5.04513 73.3393 1.04122 93.132 4.99582C95.558 5.47905 97.9643 6.09048 100.331 6.79067C102.106 7.31335 102.866 4.55203 101.09 4.02936" fill="#BCCF00"/>
</svg>
