<svg width="71" height="60" viewBox="0 0 71 60" fill="none" xmlns="http://www.w3.org/2000/svg">
<g clip-path="url(#clip0_2822_20388)">
<path d="M7.38733 33.4907C6.9458 27.6549 5.698 21.9246 3.60554 16.4535C3.29839 15.6568 2.54012 15.1097 1.65706 15.3497C0.898783 15.5608 0.246089 16.4919 0.553239 17.2981C2.54012 22.4909 3.80711 27.9428 4.22944 33.4907C4.29663 34.345 4.91093 35.0745 5.81319 35.0745C6.61945 35.0745 7.46412 34.345 7.39693 33.4907" fill="#BCCF00"/>
<path d="M24.5203 31.1487C26.8912 21.771 28.7628 12.2685 30.1162 2.68929C30.4042 0.70241 27.3519 -0.16145 27.0639 1.84462C25.7009 11.4239 23.8388 20.9263 21.468 30.304C20.9689 32.2813 24.0212 33.126 24.5203 31.1487Z" fill="#BCCF00"/>
<path d="M38.9187 35.5735C45.0425 30.1312 50.9551 24.4586 56.6566 18.5747C58.0772 17.1061 55.8407 14.8697 54.4202 16.3383C48.7283 22.2221 42.8061 27.8948 36.6823 33.3371C35.1561 34.6905 37.4021 36.9269 38.9187 35.5735Z" fill="#BCCF00"/>
<path d="M49.7936 44.0202C56.167 41.9949 62.6651 40.392 69.2496 39.2401C70.0943 39.0962 70.5646 38.0595 70.3535 37.2917C70.1039 36.399 69.2496 36.0343 68.405 36.1878C61.8204 37.3493 55.3223 38.9426 48.9489 40.9679C47.0196 41.5822 47.8451 44.6345 49.7936 44.0202Z" fill="#BCCF00"/>
<path d="M60.4864 59.3873H63.961C64.3641 59.3873 64.7961 59.2146 65.084 58.9266C65.3624 58.6483 65.564 58.2067 65.5448 57.8036C65.5256 57.3909 65.3912 56.9685 65.084 56.6806C64.7769 56.4022 64.3929 56.2198 63.961 56.2198H60.4864C60.0832 56.2198 59.6513 56.3926 59.3634 56.6806C59.085 56.9589 58.8834 57.4101 58.9026 57.8036C58.9218 58.2163 59.0562 58.6387 59.3634 58.9266C59.6705 59.2146 60.0544 59.3873 60.4864 59.3873Z" fill="#BCCF00"/>
</g>
<defs>
<clipPath id="clip0_2822_20388">
<rect width="69.9247" height="58.6877" fill="#BCCF00" transform="translate(0.476562 0.700989)"/>
</clipPath>
</defs>
</svg>
